<?xml version="1.0" encoding="utf-8"?>
<!-- Generator: Adobe Illustrator 25.2.3, SVG Export Plug-In . SVG Version: 6.00 Build 0)  -->
<svg version="1.1" id="Layer_1" xmlns="http://www.w3.org/2000/svg" xmlns:xlink="http://www.w3.org/1999/xlink" x="0px" y="0px"
	 viewBox="0 0 1000 328" style="enable-background:new 0 0 1000 328;" xml:space="preserve">
<style type="text/css">
	.st0{fill:#021224;}
	.st1{enable-background:new    ;}
	.st2{fill:#FFFFFF;}
	.st3{fill:#106FFF;}
</style>
<g>
	<rect x="0.73" y="0.04" class="st0" width="999" height="328.26"/>
	<path class="st0" d="M999.23,0.2v327.93h-998V0.2H999.23 M1000.23-0.12H0.23v328.59h1000V-0.12L1000.23-0.12z"/>
</g>
<g class="st1">
	<path class="st2" d="M82.63,235.18c-18.3,0-32.5-6.5-42.5-19.6s-15-32.7-15-58.8c0-26.1,5-45.8,15-59s24.2-19.8,42.5-19.8
		c11.6,0,21.5,2.9,29.7,8.6s14.4,13.4,18.6,23l-6.8,3.7c-3.8-8.7-9.2-15.6-16.2-20.6s-15.5-7.5-25.4-7.5c-15.2,0-27.2,5.5-35.8,16.6
		c-8.6,11-13,27.4-13,49v12.2c0,21.6,4.3,37.9,13,48.8c8.6,10.9,20.6,16.3,35.8,16.3c10.6,0,19.5-2.6,26.7-8
		c7.2-5.3,12.6-12.6,16.2-21.9l6.5,3.5c-4.2,10.2-10.5,18.3-18.8,24.4C104.93,232.18,94.73,235.18,82.63,235.18z"/>
</g>
<g class="st1">
	<path class="st2" d="M203.53,235.18c-14.5,0-26-4.9-34.3-14.8c-8.4-9.9-12.5-24.3-12.5-43.1c0-19,4.2-33.4,12.5-43.2
		c8.3-9.8,19.8-14.7,34.3-14.7s26,4.9,34.3,14.7c8.3,9.8,12.5,24.2,12.5,43.2c0,18.9-4.2,33.3-12.5,43.1
		C229.53,230.28,218.13,235.18,203.53,235.18z M203.53,228.48c12.3,0,21.9-4,28.5-12.1c6.7-8.1,10-19.1,10-33.2v-11.8
		c0-14.2-3.3-25.3-10-33.3s-16.2-12-28.5-12s-21.9,4-28.5,12c-6.7,8-10,19.1-10,33.3v11.8c0,14.1,3.3,25.2,10,33.2
		C181.73,224.48,191.23,228.48,203.53,228.48z"/>
	<path class="st2" d="M356.93,215.58h-0.7c-2.5,5.2-6.6,9.7-12.4,13.7s-13.4,5.9-22.7,5.9c-14.5,0-25.8-4.9-33.9-14.7
		s-12.1-24.2-12.1-43.2s4-33.4,12.1-43.2c8.1-9.8,19.3-14.7,33.9-14.7c9.3,0,16.8,2,22.7,5.9c5.8,3.9,9.9,8.6,12.4,13.9h0.7v-67.7
		h7.6v161.2h-7.6V215.58z M322.33,228.48c4.6,0,9.1-0.7,13.3-2c4.2-1.3,7.9-3.2,11-5.7s5.6-5.4,7.5-8.8c1.9-3.4,2.8-7.2,2.8-11.5
		v-46.7c0-4.1-0.9-7.8-2.8-11.2c-1.9-3.4-4.4-6.3-7.5-8.7c-3.1-2.4-6.8-4.3-11-5.7c-4.2-1.4-8.6-2.1-13.3-2.1
		c-12.3,0-21.9,4-28.6,12.1c-6.8,8.1-10.1,19-10.1,32.9v12.7c0,13.8,3.4,24.7,10.1,32.7S309.93,228.48,322.33,228.48z"/>
	<path class="st2" d="M446.23,235.18c-14.7,0-26.2-4.9-34.7-14.8c-8.5-9.9-12.7-24.3-12.7-43.1c0-18.7,4.1-33.1,12.4-43
		s19.7-14.9,34.2-14.9c6.8,0,13,1.3,18.6,3.9s10.4,6.3,14.4,11.1c4,4.8,7.1,10.6,9.3,17.3c2.2,6.8,3.3,14.3,3.3,22.5v3.5h-84.1v5.9
		c0,6.8,0.9,13,2.6,18.5s4.3,10.2,7.7,14.2c3.4,3.9,7.5,6.9,12.4,9s10.4,3.2,16.7,3.2c17.6,0,29.7-8.4,36.4-25.3l5.9,3.3
		c-3.3,8.7-8.6,15.7-15.7,20.9C465.73,232.58,456.83,235.18,446.23,235.18z M445.33,126.08c-6.1,0-11.5,1.1-16.2,3.2
		s-8.8,5.1-12.1,9c-3.3,3.9-5.9,8.6-7.6,14.2c-1.7,5.5-2.6,11.6-2.6,18.3v0.9h75.8v-1.3c0-6.7-0.9-12.7-2.7-18.2
		c-1.8-5.4-4.4-10.1-7.6-13.9c-3.3-3.8-7.2-6.8-11.8-8.9C455.93,127.18,450.83,126.08,445.33,126.08z"/>
</g>
<g class="st1">
	<path class="st3" d="M518.93,232.58v-152h91.5v27.2h-60.3v34.2h51.1v27.2h-51.2v63.4L518.93,232.58L518.93,232.58z"/>
</g>
<g class="st1">
	<path class="st3" d="M662.03,232.58c-10.6,0-18.2-2.4-22.8-7.1c-4.6-4.7-6.9-11.9-6.9-21.7V71.38h30.5v137.5h12.9v23.7H662.03z"/>
</g>
<g class="st1">
	<path class="st3" d="M767.93,232.58c-11.9,0-18.4-6.6-19.4-19.8h-2.8c-1.2,7-4.3,12.5-9.4,16.4c-5.1,4-11.5,6-19.4,6
		c-10.3,0-18.1-2.9-23.3-8.8c-5.2-5.9-7.8-14.1-7.8-24.5c0-12.5,3.8-21.6,11.4-27.2s18.3-8.5,31.9-8.5h16.6v-8.9
		c0-5.9-1.2-10.3-3.7-13.2c-2.5-2.9-6.6-4.3-12.4-4.3c-5.1,0-9.3,1.3-12.7,3.8s-6.4,5.9-9,10l-18.1-16.2c4.6-6.8,10.3-12.2,17-16.1
		s15.2-5.8,25.7-5.8c15,0,26,3.5,33.1,10.5s10.7,17.4,10.7,31.2v51.6h9.4v23.7h-17.8V232.58z M729.13,213.88c4.5,0,8.4-1.3,11.7-3.8
		s4.9-6.5,4.9-11.9v-14.1h-13.7c-10.5,0-15.7,4.4-15.7,13.1v4.1c0,4.4,1.1,7.6,3.4,9.6C721.93,212.88,725.03,213.88,729.13,213.88z"
		/>
	<path class="st3" d="M804.93,232.58v-114.3h30.5v24.4h3.5c0.4-3.2,1.2-6.3,2.2-9.3s2.4-5.6,4.2-7.8c1.8-2.2,4.1-4,6.9-5.3
		c2.8-1.3,6-2,9.8-2h5.4v30.9h-7.8c-8.3,0-14.4,1.2-18.3,3.5c-3.9,2.3-5.9,6.8-5.9,13.3v66.7h-30.5V232.58z"/>
	<path class="st3" d="M928.83,235.18c-15.7,0-28.2-5-37.6-14.9c-9.4-9.9-14-24.9-14-44.8c0-20.3,4.1-35.4,12.3-45.2
		c8.2-9.8,20.3-14.7,36.3-14.7s28.1,4.9,36.3,14.7c8.2,9.8,12.3,24.8,12.3,45.1v7.4h-65.3v7.2c0,6.4,2,11.5,5.9,15.4
		c3.9,3.8,9.3,5.8,16.1,5.8c5.7,0,10.5-1.3,14.5-3.8s7.7-6.1,11-10.6l15.5,18.2c-4.6,6.3-10.6,11.2-17.8,14.9
		S938.63,235.18,928.83,235.18z M925.83,138.48c-11.2,0-16.8,6.5-16.8,19.4v6.9h33.5v-6.9
		C942.63,144.98,937.03,138.48,925.83,138.48z"/>
</g>
</svg>
