<?xml version="1.0" encoding="utf-8"?>
<!-- Generator: Adobe Illustrator 25.2.3, SVG Export Plug-In . SVG Version: 6.00 Build 0)  -->
<svg version="1.1" id="Layer_1" xmlns="http://www.w3.org/2000/svg" xmlns:xlink="http://www.w3.org/1999/xlink" x="0px" y="0px"
	 viewBox="0 0 296 180" style="enable-background:new 0 0 296 180;" xml:space="preserve">
<style type="text/css">
	.st0{fill:#CCCCCC;}
	.st1{fill:none;stroke:#0F6FFF;stroke-width:4;stroke-linejoin:round;stroke-miterlimit:10;}
</style>
<path class="st0" d="M81.26,53.02l5.16-8.8l-10.14,1.15L81.26,53.02z M40.92,75.16l39.75-25.84l-1.24-1.91L39.68,73.25L40.92,75.16z
	"/>
<path class="st0" d="M75.4,94.47l9.09-4.63l-9.16-4.5L75.4,94.47z M46.39,91.26l30.51-0.22l-0.02-2.28l-30.51,0.22L46.39,91.26z"/>
<path class="st0" d="M81.01,128.17l4.83,8.99l-10.09-1.53L81.01,128.17z M40.95,104.12l39.33,27.72l-1.31,1.86l-39.33-27.72
	L40.95,104.12z"/>
<path class="st0" d="M239.66,92.95l9.09-4.63l-9.16-4.5L239.66,92.95z M210.64,89.74l30.51-0.22l-0.02-2.28l-30.51,0.22
	L210.64,89.74z"/>
<path class="st0" d="M165.13,65.28l4.87,8.96l-10.09-1.48L165.13,65.28z M127.64,43.28l36.78,25.67l-1.31,1.87l-36.78-25.67
	L127.64,43.28z"/>
<ellipse transform="matrix(0.1602 -0.9871 0.9871 0.1602 58.4024 132.7489)" class="st1" cx="107.22" cy="32.05" rx="22.05" ry="22.05"/>
<ellipse class="st1" cx="107.22" cy="148.4" rx="22.05" ry="21.29"/>
<circle class="st1" cx="25.85" cy="90.61" r="21.29"/>
<path class="st0" d="M168.37,112.57l4.74-9.04l-10.07,1.63L168.37,112.57z M127.65,137.68l39.95-28.77l-1.33-1.85l-39.95,28.77
	L127.65,137.68z"/>
<path class="st0" d="M159.05,92.95l9.09-4.63l-9.16-4.5L159.05,92.95z M130.04,89.74l30.51-0.22l-0.02-2.28l-30.51,0.22
	L130.04,89.74z"/>
<ellipse class="st1" cx="189.34" cy="89.08" rx="22.05" ry="21.29"/>
<circle class="st1" cx="107.22" cy="89.85" r="22.05"/>
<ellipse class="st1" cx="269.95" cy="89.08" rx="22.05" ry="21.29"/>
<g>
	<path d="M143.62,161.57c-0.7,0-1.34-0.13-1.9-0.38c-0.56-0.26-1.03-0.65-1.42-1.17c-0.39-0.52-0.69-1.2-0.89-2.01
		s-0.31-1.78-0.31-2.89s0.1-2.07,0.31-2.89s0.51-1.49,0.89-2.01c0.39-0.52,0.86-0.91,1.42-1.17c0.56-0.26,1.19-0.38,1.9-0.38
		c1.02,0,1.85,0.22,2.47,0.65c0.62,0.43,1.11,1.1,1.47,1.99l-1.14,0.7c-0.23-0.68-0.55-1.19-0.97-1.55
		c-0.42-0.35-1.03-0.53-1.81-0.53c-0.95,0-1.69,0.34-2.21,1.03s-0.78,1.61-0.78,2.76v2.79c0,1.16,0.26,2.08,0.78,2.76
		s1.25,1.03,2.21,1.03c0.81,0,1.44-0.19,1.88-0.56c0.44-0.38,0.77-0.92,1-1.64l1.14,0.71c-0.36,0.89-0.86,1.58-1.51,2.05
		C145.48,161.33,144.65,161.57,143.62,161.57z"/>
	<path d="M152.72,161.57c-0.54,0-1.04-0.09-1.5-0.27s-0.86-0.46-1.2-0.86s-0.6-0.89-0.79-1.5c-0.19-0.61-0.29-1.34-0.29-2.2
		s0.09-1.59,0.29-2.2c0.19-0.61,0.45-1.11,0.79-1.5s0.73-0.68,1.2-0.86s0.97-0.27,1.5-0.27c0.54,0,1.04,0.09,1.5,0.27
		s0.87,0.46,1.2,0.86c0.33,0.39,0.6,0.89,0.79,1.5c0.19,0.61,0.29,1.34,0.29,2.2s-0.1,1.59-0.29,2.2c-0.19,0.61-0.45,1.11-0.79,1.5
		c-0.33,0.39-0.73,0.68-1.2,0.86S153.26,161.57,152.72,161.57z M152.72,160.37c0.74,0,1.31-0.22,1.71-0.67
		c0.4-0.44,0.6-1.12,0.6-2.03v-1.87c0-0.91-0.2-1.59-0.6-2.03c-0.4-0.44-0.97-0.67-1.71-0.67c-0.74,0-1.31,0.22-1.71,0.67
		c-0.4,0.44-0.6,1.12-0.6,2.03v1.87c0,0.91,0.2,1.59,0.6,2.03C151.41,160.15,151.98,160.37,152.72,160.37z"/>
	<path d="M163.9,159.87h-0.18c-0.18,0.6-0.47,1.04-0.87,1.3s-0.88,0.4-1.46,0.4c-0.55,0-1.03-0.11-1.45-0.34
		c-0.42-0.23-0.77-0.55-1.06-0.97c-0.29-0.42-0.5-0.92-0.64-1.52c-0.14-0.6-0.21-1.26-0.21-2c0-0.74,0.07-1.41,0.21-2
		c0.14-0.6,0.36-1.1,0.64-1.52c0.29-0.42,0.64-0.74,1.06-0.96c0.42-0.23,0.9-0.34,1.45-0.34c0.57,0,1.06,0.13,1.46,0.4
		s0.69,0.7,0.87,1.3h0.18v-5.49h1.36v13.23h-1.36V159.87z M161.8,160.37c0.29,0,0.56-0.04,0.81-0.13c0.26-0.08,0.48-0.2,0.66-0.36
		c0.18-0.16,0.33-0.34,0.45-0.56s0.17-0.46,0.17-0.72v-3.74c0-0.26-0.06-0.5-0.17-0.72s-0.26-0.4-0.45-0.56
		c-0.18-0.16-0.41-0.28-0.66-0.36c-0.26-0.08-0.53-0.13-0.81-0.13c-0.75,0-1.32,0.24-1.72,0.71c-0.39,0.47-0.59,1.14-0.59,1.99v1.87
		c0,0.85,0.2,1.51,0.59,1.99C160.48,160.13,161.05,160.37,161.8,160.37z"/>
	<path d="M171.16,161.57c-0.54,0-1.04-0.09-1.5-0.27s-0.86-0.46-1.2-0.86s-0.6-0.89-0.79-1.5c-0.19-0.61-0.29-1.34-0.29-2.2
		s0.09-1.59,0.29-2.2c0.19-0.61,0.45-1.11,0.79-1.5s0.73-0.68,1.2-0.86s0.97-0.27,1.5-0.27s1.03,0.09,1.47,0.27
		c0.45,0.18,0.83,0.46,1.14,0.86s0.55,0.89,0.72,1.5c0.17,0.61,0.26,1.34,0.26,2.2v0.34h-5.92v0.59c0,0.91,0.21,1.58,0.62,2.03
		c0.41,0.45,0.98,0.67,1.71,0.67c0.62,0,1.13-0.13,1.52-0.4s0.7-0.67,0.93-1.21l0.93,0.68c-0.29,0.63-0.71,1.14-1.26,1.54
		C172.72,161.37,172.01,161.57,171.16,161.57z M171.16,153.05c-0.74,0-1.31,0.23-1.72,0.7s-0.61,1.15-0.61,2.06v0.23h4.47v-0.23
		C173.3,153.97,172.59,153.05,171.16,153.05z"/>
</g>
<g>
	<path d="M176.73,161.35v-12.48h7.51v2.24h-4.95v2.81h4.2v2.24h-4.2v5.2H176.73z"/>
	<path d="M188.46,161.35c-0.87,0-1.49-0.19-1.87-0.58c-0.38-0.39-0.56-0.98-0.56-1.78v-10.87h2.5v11.28h1.05v1.95H188.46z"/>
	<path d="M197.15,161.35c-0.98,0-1.51-0.54-1.59-1.63h-0.23c-0.1,0.57-0.35,1.02-0.77,1.35c-0.42,0.33-0.95,0.49-1.59,0.49
		c-0.85,0-1.48-0.24-1.91-0.72c-0.43-0.48-0.64-1.15-0.64-2.01c0-1.02,0.31-1.77,0.94-2.23c0.62-0.46,1.5-0.7,2.62-0.7h1.36v-0.73
		c0-0.48-0.1-0.84-0.3-1.08c-0.2-0.24-0.54-0.36-1.02-0.36c-0.42,0-0.77,0.1-1.05,0.31s-0.53,0.48-0.74,0.82l-1.48-1.33
		c0.38-0.56,0.85-1,1.39-1.32c0.55-0.32,1.25-0.48,2.11-0.48c1.23,0,2.13,0.29,2.72,0.86s0.88,1.42,0.88,2.56v4.24h0.77v1.95H197.15
		z M193.96,159.81c0.37,0,0.69-0.1,0.96-0.31c0.27-0.21,0.4-0.53,0.4-0.97v-1.16h-1.13c-0.86,0-1.29,0.36-1.29,1.07v0.34
		c0,0.36,0.09,0.62,0.28,0.79S193.63,159.81,193.96,159.81z"/>
	<path d="M200.19,161.35v-9.39h2.5v2h0.29c0.04-0.26,0.1-0.52,0.18-0.76s0.2-0.46,0.35-0.64s0.34-0.33,0.56-0.44
		c0.23-0.11,0.49-0.16,0.8-0.16h0.45v2.54h-0.64c-0.68,0-1.18,0.09-1.5,0.29c-0.32,0.19-0.48,0.55-0.48,1.09v5.47H200.19z"/>
	<path d="M210.43,161.57c-1.29,0-2.32-0.41-3.08-1.22c-0.77-0.82-1.15-2.04-1.15-3.67c0-1.67,0.34-2.91,1.01-3.71
		s1.67-1.21,2.98-1.21c1.31,0,2.3,0.4,2.98,1.2s1.01,2.03,1.01,3.7v0.61h-5.36v0.59c0,0.53,0.16,0.95,0.48,1.26
		c0.32,0.32,0.76,0.47,1.32,0.47c0.46,0,0.86-0.1,1.19-0.31c0.33-0.21,0.63-0.5,0.9-0.87l1.27,1.49c-0.38,0.52-0.87,0.92-1.46,1.22
		C211.92,161.42,211.23,161.57,210.43,161.57z M210.18,153.63c-0.92,0-1.38,0.53-1.38,1.6v0.57h2.75v-0.57
		C211.56,154.16,211.1,153.63,210.18,153.63z"/>
</g>
<g>
	<path d="M220.39,161.35v-12.48h4.85c1.05,0,1.84,0.31,2.39,0.92c0.54,0.61,0.81,1.45,0.81,2.49s-0.27,1.88-0.81,2.49
		c-0.54,0.61-1.34,0.92-2.39,0.92h-4.18v5.65H220.39z M221.06,155.11h4.18c0.42,0,0.78-0.07,1.09-0.2c0.31-0.13,0.57-0.31,0.78-0.53
		c0.21-0.22,0.36-0.48,0.46-0.78c0.1-0.3,0.15-0.61,0.15-0.93v-0.79c0-0.32-0.05-0.63-0.15-0.93c-0.1-0.3-0.26-0.56-0.46-0.78
		c-0.21-0.22-0.47-0.4-0.78-0.53c-0.31-0.13-0.67-0.2-1.09-0.2h-4.18V155.11z"/>
	<path d="M231.35,149.46c-0.19,0-0.33-0.04-0.41-0.13c-0.08-0.09-0.12-0.2-0.12-0.33v-0.16c0-0.13,0.04-0.24,0.12-0.33
		c0.08-0.09,0.21-0.13,0.4-0.13s0.33,0.04,0.41,0.13c0.08,0.09,0.12,0.2,0.12,0.33V149c0,0.13-0.04,0.24-0.12,0.33
		C231.68,149.42,231.55,149.46,231.35,149.46z M231.03,152.27h0.63v9.08h-0.63V152.27z"/>
	<path d="M235.23,152.27h0.63v1.41h0.05c0.2-0.44,0.54-0.82,1.02-1.14c0.48-0.32,1.1-0.48,1.86-0.48c1.19,0,2.12,0.4,2.78,1.21
		c0.66,0.8,0.99,1.99,0.99,3.55c0,1.56-0.33,2.75-0.99,3.55c-0.66,0.8-1.59,1.21-2.78,1.21c-0.76,0-1.38-0.16-1.86-0.49
		s-0.82-0.7-1.02-1.12h-0.05v4.97h-0.63V152.27z M238.7,161.01c1.01,0,1.8-0.33,2.35-0.99c0.55-0.66,0.83-1.55,0.83-2.69v-1.04
		c0-1.13-0.28-2.03-0.83-2.7c-0.55-0.66-1.34-0.99-2.35-0.99c-0.38,0-0.75,0.06-1.09,0.17s-0.65,0.27-0.9,0.47
		c-0.26,0.2-0.46,0.44-0.62,0.72c-0.16,0.28-0.23,0.59-0.23,0.92v3.83c0,0.35,0.08,0.66,0.23,0.94c0.15,0.28,0.36,0.52,0.62,0.73
		c0.26,0.2,0.56,0.36,0.9,0.47S238.32,161.01,238.7,161.01z"/>
	<path d="M248.52,161.57c-1.2,0-2.15-0.41-2.85-1.22s-1.05-1.99-1.05-3.54c0-1.54,0.34-2.71,1.02-3.53
		c0.68-0.82,1.62-1.22,2.81-1.22c0.56,0,1.07,0.11,1.53,0.32c0.46,0.21,0.85,0.52,1.18,0.91c0.33,0.39,0.58,0.87,0.76,1.42
		c0.18,0.55,0.27,1.17,0.27,1.85v0.29h-6.9v0.48c0,0.56,0.07,1.07,0.21,1.52c0.14,0.45,0.35,0.84,0.63,1.16
		c0.28,0.32,0.62,0.57,1.02,0.74s0.86,0.26,1.37,0.26c1.44,0,2.44-0.69,2.99-2.07l0.48,0.27c-0.27,0.71-0.7,1.29-1.29,1.72
		C250.12,161.35,249.39,161.57,248.52,161.57z M248.45,152.61c-0.5,0-0.95,0.09-1.33,0.26c-0.39,0.17-0.72,0.42-0.99,0.74
		c-0.27,0.32-0.48,0.71-0.63,1.16c-0.14,0.45-0.21,0.95-0.21,1.5v0.07h6.22v-0.11c0-0.55-0.08-1.05-0.22-1.49
		c-0.15-0.45-0.36-0.83-0.63-1.14s-0.59-0.56-0.97-0.73C249.32,152.69,248.9,152.61,248.45,152.61z"/>
	<path d="M255.76,161.35c-0.51,0-0.77-0.25-0.77-0.75v-12.48h0.63v12.68h1.48v0.55H255.76z"/>
	<path d="M259.87,149.46c-0.19,0-0.33-0.04-0.41-0.13c-0.08-0.09-0.12-0.2-0.12-0.33v-0.16c0-0.13,0.04-0.24,0.12-0.33
		c0.08-0.09,0.21-0.13,0.4-0.13s0.33,0.04,0.41,0.13c0.08,0.09,0.12,0.2,0.12,0.33V149c0,0.13-0.04,0.24-0.12,0.33
		C260.2,149.42,260.06,149.46,259.87,149.46z M259.55,152.27h0.63v9.08h-0.63V152.27z"/>
	<path d="M263.75,161.35v-9.08h0.63v1.39h0.05c0.18-0.44,0.49-0.82,0.94-1.14c0.45-0.32,1.06-0.47,1.85-0.47c1,0,1.77,0.29,2.3,0.88
		c0.53,0.59,0.79,1.45,0.79,2.58v5.83h-0.62v-5.72c0-1.05-0.22-1.81-0.67-2.3c-0.45-0.48-1.09-0.72-1.94-0.72
		c-0.35,0-0.68,0.05-1.01,0.14c-0.33,0.1-0.62,0.24-0.87,0.43s-0.45,0.43-0.6,0.71c-0.15,0.29-0.22,0.62-0.22,1v6.46H263.75z"/>
	<path d="M276.95,161.57c-1.2,0-2.15-0.41-2.85-1.22s-1.05-1.99-1.05-3.54c0-1.54,0.34-2.71,1.02-3.53
		c0.68-0.82,1.62-1.22,2.81-1.22c0.56,0,1.07,0.11,1.53,0.32c0.46,0.21,0.85,0.52,1.18,0.91c0.33,0.39,0.58,0.87,0.76,1.42
		c0.18,0.55,0.27,1.17,0.27,1.85v0.29h-6.9v0.48c0,0.56,0.07,1.07,0.21,1.52c0.14,0.45,0.35,0.84,0.63,1.16
		c0.28,0.32,0.62,0.57,1.02,0.74s0.86,0.26,1.37,0.26c1.44,0,2.44-0.69,2.99-2.07l0.48,0.27c-0.27,0.71-0.7,1.29-1.29,1.72
		C278.55,161.35,277.82,161.57,276.95,161.57z M276.88,152.61c-0.5,0-0.95,0.09-1.33,0.26c-0.39,0.17-0.72,0.42-0.99,0.74
		c-0.27,0.32-0.48,0.71-0.63,1.16c-0.14,0.45-0.21,0.95-0.21,1.5v0.07h6.22v-0.11c0-0.55-0.08-1.05-0.22-1.49
		c-0.15-0.45-0.36-0.83-0.63-1.14s-0.59-0.56-0.97-0.73C277.74,152.69,277.33,152.61,276.88,152.61z"/>
	<path d="M285.87,161.57c-0.75,0-1.4-0.14-1.96-0.41c-0.55-0.27-1.04-0.7-1.46-1.29l0.48-0.36c0.4,0.54,0.84,0.92,1.3,1.15
		s1.01,0.35,1.65,0.35c0.81,0,1.42-0.17,1.84-0.5c0.42-0.33,0.63-0.82,0.63-1.45c0-0.61-0.18-1.06-0.53-1.36s-0.89-0.51-1.62-0.63
		l-0.77-0.12c-0.41-0.06-0.77-0.15-1.1-0.27c-0.33-0.12-0.61-0.28-0.84-0.47s-0.41-0.44-0.54-0.72c-0.12-0.29-0.19-0.63-0.19-1.04
		c0-0.39,0.07-0.74,0.22-1.04c0.15-0.3,0.36-0.55,0.62-0.75c0.27-0.2,0.58-0.35,0.95-0.46c0.36-0.1,0.75-0.15,1.17-0.15
		c0.76,0,1.38,0.13,1.86,0.4s0.87,0.58,1.18,0.94l-0.45,0.41c-0.13-0.15-0.28-0.3-0.44-0.45c-0.16-0.14-0.34-0.27-0.54-0.38
		c-0.2-0.11-0.44-0.2-0.71-0.27c-0.27-0.06-0.58-0.1-0.92-0.1c-0.72,0-1.29,0.16-1.71,0.46s-0.63,0.76-0.63,1.36
		c0,0.61,0.18,1.05,0.54,1.33c0.36,0.28,0.9,0.48,1.63,0.6l0.77,0.12c0.85,0.13,1.5,0.39,1.96,0.78c0.46,0.39,0.69,0.97,0.69,1.74
		c0,0.81-0.27,1.44-0.82,1.89C287.59,161.34,286.84,161.57,285.87,161.57z"/>
</g>
</svg>
