<?xml version="1.0" encoding="utf-8"?>
<!-- Generator: Adobe Illustrator 25.2.3, SVG Export Plug-In . SVG Version: 6.00 Build 0)  -->
<svg version="1.1" id="Layer_1" xmlns="http://www.w3.org/2000/svg" xmlns:xlink="http://www.w3.org/1999/xlink" x="0px" y="0px"
	 viewBox="0 0 876 246" style="enable-background:new 0 0 876 246;" xml:space="preserve">
<style type="text/css">
	.st0{fill:#CCCCCC;}
	.st1{fill:none;stroke:#0F6FFF;stroke-width:4.0001;stroke-linejoin:round;stroke-miterlimit:10.0002;}
	.st2{fill:none;stroke:#0F6FFF;stroke-width:4;stroke-linejoin:round;stroke-miterlimit:10;}
</style>
<path class="st0" d="M361.9,72.7l7-12l-13.7,1.6L361.9,72.7z M307.2,102.8l54-35.1l-1.7-2.6l-54,35.1L307.2,102.8z"/>
<path class="st0" d="M354,129l12.4-6.3l-12.5-6.1L354,129z M314.7,124.7l41.4-0.3v-3.1l-41.4,0.3V124.7z"/>
<path class="st0" d="M361.6,174.8l6.6,12.2l-13.7-2.1L361.6,174.8z M307.2,142.1l53.5,37.6l-1.8,2.5l-53.5-37.6L307.2,142.1z"/>
<path class="st0" d="M577.2,127l12.4-6.3l-12.5-6.1L577.2,127z M537.7,122.6l41.4-0.3v-3.1l-41.4,0.3V122.6z"/>
<path class="st0" d="M475.9,89.4l6.6,12.2l-13.7-2L475.9,89.4z M424.9,59.5l50,34.9l-1.8,2.5l-50-34.9L424.9,59.5z"/>
<ellipse class="st1" cx="397.3" cy="44.3" rx="30" ry="30"/>
<ellipse class="st2" cx="397.3" cy="202.3" rx="30" ry="28.9"/>
<circle class="st2" cx="286.7" cy="123.8" r="28.9"/>
<path class="st0" d="M480.3,153.7l6.4-12.3l-13.6,2.2L480.3,153.7z M424.9,187.7l54.3-39.1l-1.8-2.5l-54.3,39.1L424.9,187.7z"/>
<path class="st0" d="M467.6,127l12.4-6.3l-12.5-6.1L467.6,127z M428.2,122.6l41.4-0.3v-3.1l-41.4,0.3V122.6z"/>
<ellipse class="st2" cx="508.8" cy="121.8" rx="30" ry="28.9"/>
<circle class="st2" cx="397.3" cy="122.8" r="30"/>
<ellipse class="st2" cx="618.2" cy="121.8" rx="30" ry="28.9"/>
<g>
	<path d="M446.6,220.2c-0.9,0-1.8-0.2-2.6-0.5c-0.7-0.3-1.4-0.8-1.9-1.6s-0.9-1.7-1.3-2.7c-0.3-1-0.4-2.4-0.4-3.9
		c0-1.5,0.1-2.8,0.4-3.9c0.3-1.2,0.7-2,1.3-2.7c0.5-0.7,1.2-1.3,1.9-1.6c0.7-0.3,1.6-0.5,2.6-0.5c1.4,0,2.5,0.3,3.4,0.8
		c0.8,0.5,1.5,1.5,2,2.7l-1.6,0.9c-0.3-0.9-0.7-1.6-1.4-2.1c-0.5-0.5-1.4-0.7-2.4-0.7c-1.3,0-2.3,0.4-3,1.4c-0.7,0.9-1,2.2-1,3.8
		v3.8c0,1.6,0.3,2.8,1,3.8c0.7,0.9,1.7,1.4,3,1.4c1,0,2-0.2,2.5-0.7c0.6-0.5,1-1.3,1.4-2.2l1.6,0.9c-0.5,1.3-1.2,2.1-2.1,2.8
		C449.2,219.9,448.1,220.2,446.6,220.2z"/>
	<path d="M459,220.2c-0.7,0-1.4-0.1-2-0.3c-0.6-0.2-1.2-0.6-1.7-1.2c-0.5-0.5-0.8-1.3-1-2c-0.2-0.8-0.4-1.8-0.4-3s0.1-2.2,0.4-3
		c0.2-0.8,0.6-1.5,1-2c0.4-0.5,0.9-0.9,1.7-1.2c0.6-0.2,1.4-0.3,2-0.3c0.7,0,1.4,0.1,2,0.3c0.6,0.2,1.2,0.6,1.7,1.2
		c0.4,0.5,0.8,1.3,1,2c0.2,0.8,0.4,1.8,0.4,3s-0.1,2.2-0.4,3c-0.2,0.8-0.6,1.5-1,2c-0.4,0.5-0.9,0.9-1.7,1.2
		C460.3,220.1,459.7,220.2,459,220.2z M459,218.6c1,0,1.8-0.3,2.3-0.9c0.5-0.6,0.8-1.6,0.8-2.7v-2.5c0-1.3-0.3-2.2-0.8-2.7
		c-0.5-0.5-1.4-0.9-2.3-0.9c-1,0-1.8,0.3-2.3,0.9c-0.5,0.6-0.8,1.6-0.8,2.7v2.5c0,1.3,0.3,2.2,0.8,2.7
		C457.2,218.2,458.1,218.6,459,218.6z"/>
	<path d="M474.2,217.9H474c-0.2,0.8-0.6,1.4-1.2,1.8c-0.5,0.3-1.2,0.5-2,0.5c-0.7,0-1.4-0.1-2-0.4c-0.5-0.3-1-0.7-1.5-1.4
		c-0.4-0.6-0.6-1.3-0.8-2.1s-0.3-1.7-0.3-2.7c0-1,0.1-1.9,0.3-2.7c0.2-0.8,0.5-1.5,0.8-2.1c0.4-0.5,0.8-1,1.5-1.3
		c0.5-0.3,1.3-0.4,2-0.4s1.5,0.2,2,0.5s0.9,0.9,1.2,1.8h0.2V202h1.9v17.9h-1.9V217.9z M471.4,218.6c0.4,0,0.7-0.1,1-0.2
		c0.3-0.1,0.6-0.3,0.9-0.5c0.2-0.2,0.4-0.4,0.6-0.7c0.2-0.3,0.2-0.6,0.2-0.9v-5c0-0.3-0.1-0.6-0.2-0.9s-0.3-0.5-0.6-0.7
		c-0.2-0.2-0.5-0.4-0.9-0.5c-0.3-0.1-0.7-0.2-1-0.2c-1,0-1.8,0.3-2.3,0.9c-0.5,0.6-0.8,1.6-0.8,2.7v2.5c0,1.2,0.3,2.1,0.8,2.7
		S470.3,218.6,471.4,218.6z"/>
	<path d="M484.1,220.2c-0.7,0-1.4-0.1-2-0.3c-0.6-0.2-1.2-0.6-1.7-1.2c-0.4-0.5-0.8-1.3-1-2c-0.2-0.8-0.4-1.8-0.4-3s0.1-2.2,0.4-3
		c0.2-0.8,0.6-1.5,1-2c0.4-0.5,0.9-0.9,1.7-1.2c0.6-0.2,1.4-0.3,2-0.3s1.4,0.1,2,0.3c0.6,0.2,1.2,0.6,1.6,1.2c0.4,0.5,0.7,1.3,0.9,2
		c0.2,0.8,0.3,1.8,0.3,3v0.4h-8.1v0.8c0,1.3,0.3,2.1,0.8,2.7c0.5,0.6,1.4,0.9,2.3,0.9c0.8,0,1.6-0.2,2.1-0.5s0.9-0.9,1.3-1.7
		l1.3,0.9c-0.4,0.8-0.9,1.6-1.7,2.1C486.2,219.9,485.2,220.2,484.1,220.2z M484.1,208.6c-1,0-1.8,0.3-2.3,0.9
		c-0.5,0.6-0.8,1.6-0.8,2.8v0.3h6.1v-0.3C487,209.9,486.1,208.6,484.1,208.6z"/>
</g>
<g>
	<path d="M491.6,219.9v-17h10.2v3h-6.7v3.8h5.7v3h-5.7v7L491.6,219.9L491.6,219.9z"/>
	<path d="M507.5,219.9c-1.2,0-2-0.2-2.5-0.8c-0.5-0.5-0.7-1.4-0.7-2.4v-14.8h3.4v15.3h1.5v2.6h-1.6V219.9z"/>
	<path d="M519.4,219.9c-1.4,0-2.1-0.7-2.2-2.2h-0.3c-0.1,0.7-0.5,1.4-1,1.8c-0.5,0.4-1.3,0.6-2.2,0.6c-1.2,0-2-0.3-2.6-0.9
		c-0.6-0.6-0.8-1.6-0.8-2.7c0-1.4,0.4-2.4,1.3-3s2-0.9,3.6-0.9h1.9v-0.9c0-0.6-0.1-1.2-0.4-1.5c-0.3-0.3-0.7-0.5-1.4-0.5
		c-0.5,0-1,0.1-1.5,0.4c-0.4,0.3-0.7,0.6-1,1.2l-2-1.8c0.5-0.7,1.2-1.4,1.9-1.8s1.7-0.6,2.8-0.6c1.7,0,2.9,0.4,3.7,1.2
		c0.8,0.7,1.2,1.9,1.2,3.5v5.8h1v2.6L519.4,219.9L519.4,219.9z M515.1,217.8c0.5,0,0.9-0.1,1.3-0.4c0.3-0.3,0.5-0.7,0.5-1.4v-1.6
		h-1.6c-1.2,0-1.8,0.5-1.8,1.5v0.4c0,0.5,0.1,0.8,0.4,1C514.3,217.7,514.6,217.8,515.1,217.8z"/>
	<path d="M523.5,219.9v-12.8h3.4v2.7h0.4c0.1-0.3,0.1-0.7,0.2-1c0.1-0.3,0.3-0.6,0.5-0.8c0.2-0.2,0.4-0.4,0.7-0.6
		c0.3-0.1,0.6-0.2,1-0.2h0.6v3.5h-0.8c-0.9,0-1.6,0.1-2,0.4c-0.4,0.2-0.6,0.7-0.6,1.5v7.4H523.5L523.5,219.9z"/>
	<path d="M537.4,220.2c-1.8,0-3.1-0.5-4.2-1.7s-1.6-2.7-1.6-5s0.4-4,1.4-5c0.9-1,2.3-1.7,4.1-1.7s3.1,0.5,4.1,1.7
		c0.9,1.2,1.4,2.7,1.4,5v0.8h-7.2v0.8c0,0.7,0.2,1.3,0.6,1.7c0.4,0.4,1,0.6,1.8,0.6c0.6,0,1.2-0.1,1.6-0.4c0.4-0.3,0.8-0.6,1.3-1.2
		l1.7,2c-0.5,0.7-1.2,1.3-2,1.7C539.4,220,538.5,220.2,537.4,220.2z M537.1,209.4c-1.3,0-1.9,0.7-1.9,2.2v0.7h3.8v-0.7
		C539,210.2,538.4,209.4,537.1,209.4z"/>
</g>
<g>
	<path d="M550.9,219.9v-17h6.6c1.5,0,2.5,0.4,3.2,1.3s1,2,1,3.4s-0.3,2.5-1,3.4c-0.7,0.8-1.8,1.3-3.2,1.3h-5.7v7.7L550.9,219.9
		L550.9,219.9z M551.9,211.4h5.7c0.5,0,1-0.1,1.5-0.3c0.4-0.2,0.7-0.4,1-0.7c0.3-0.3,0.5-0.6,0.6-1c0.1-0.4,0.2-0.8,0.2-1.3v-1
		c0-0.4-0.1-0.8-0.2-1.3c-0.1-0.4-0.3-0.7-0.6-1c-0.3-0.3-0.6-0.5-1-0.7c-0.4-0.2-0.9-0.3-1.5-0.3h-5.7V211.4z"/>
	<path d="M565.8,203.8c-0.2,0-0.4-0.1-0.5-0.2c-0.1-0.1-0.2-0.3-0.2-0.4v-0.2c0-0.2,0.1-0.3,0.2-0.4c0.1-0.1,0.3-0.2,0.5-0.2
		c0.2,0,0.4,0.1,0.5,0.2c0.1,0.1,0.2,0.3,0.2,0.4v0.2c0,0.2-0.1,0.3-0.2,0.4S566.1,203.8,565.8,203.8z M565.4,207.6h0.8v12.4h-0.8
		V207.6z"/>
	<path d="M571.1,207.6h0.8v1.9h0.1c0.3-0.6,0.7-1.2,1.4-1.6s1.5-0.6,2.5-0.6c1.6,0,2.8,0.5,3.8,1.7c0.9,1,1.4,2.7,1.4,4.8
		s-0.4,3.8-1.4,4.8c-0.9,1-2.2,1.7-3.8,1.7c-1,0-1.9-0.2-2.5-0.6c-0.6-0.4-1.2-0.9-1.4-1.6h-0.1v6.7h-0.8V207.6z M575.8,219.5
		c1.4,0,2.4-0.4,3.1-1.4c0.7-0.9,1.2-2.1,1.2-3.7v-1.4c0-1.6-0.4-2.7-1.2-3.7c-0.7-0.9-1.8-1.4-3.1-1.4c-0.5,0-1,0.1-1.5,0.2
		c-0.4,0.1-0.8,0.3-1.3,0.6c-0.3,0.3-0.6,0.6-0.8,0.9c-0.2,0.4-0.3,0.8-0.3,1.3v5.2c0,0.5,0.1,0.9,0.3,1.3c0.2,0.4,0.5,0.7,0.8,0.9
		c0.3,0.3,0.7,0.5,1.3,0.6C574.8,219.4,575.3,219.5,575.8,219.5z"/>
	<path d="M589.2,220.2c-1.7,0-2.9-0.5-3.9-1.7c-0.9-1-1.5-2.7-1.5-4.8c0-2.1,0.4-3.7,1.4-4.8c0.9-1.2,2.2-1.7,3.8-1.7
		c0.7,0,1.5,0.1,2.1,0.4c0.6,0.3,1.2,0.7,1.6,1.3s0.8,1.2,1,1.9c0.2,0.7,0.3,1.6,0.3,2.5v0.4h-9.3v0.6c0,0.7,0.1,1.5,0.3,2.1
		s0.5,1.2,0.8,1.6c0.3,0.4,0.8,0.7,1.4,1c0.5,0.2,1.2,0.3,1.9,0.3c2,0,3.4-0.9,4.1-2.8l0.6,0.3c-0.3,0.9-0.9,1.8-1.8,2.3
		C591.3,219.9,590.4,220.2,589.2,220.2z M589.1,208.1c-0.6,0-1.3,0.1-1.8,0.3c-0.5,0.2-0.9,0.5-1.4,1c-0.3,0.4-0.6,0.9-0.8,1.6
		c-0.2,0.6-0.3,1.3-0.3,2v0.1h8.5V213c0-0.7-0.1-1.5-0.3-2c-0.2-0.6-0.5-1.2-0.8-1.6c-0.3-0.4-0.8-0.7-1.4-0.9
		C590.3,208.2,589.6,208.1,589.1,208.1z"/>
	<path d="M599,219.9c-0.7,0-1-0.3-1-1v-17h0.8v17.2h2v0.7L599,219.9L599,219.9z"/>
	<path d="M604.6,203.8c-0.2,0-0.4-0.1-0.5-0.2c-0.1-0.1-0.2-0.3-0.2-0.4v-0.2c0-0.2,0.1-0.3,0.2-0.4c0.1-0.1,0.3-0.2,0.5-0.2
		c0.2,0,0.4,0.1,0.5,0.2c0.1,0.1,0.2,0.3,0.2,0.4v0.2c0,0.2-0.1,0.3-0.2,0.4C605,203.7,604.8,203.8,604.6,203.8z M604.1,207.6h0.8
		v12.4h-0.8V207.6z"/>
	<path d="M609.9,219.9v-12.4h0.8v1.9h0.1c0.2-0.6,0.6-1.2,1.3-1.6c0.6-0.4,1.5-0.6,2.5-0.6c1.4,0,2.4,0.4,3.1,1.2c0.7,0.8,1,2,1,3.5
		v8h-0.8v-7.8c0-1.5-0.3-2.4-0.9-3.1c-0.6-0.6-1.5-0.9-2.6-0.9c-0.5,0-0.9,0.1-1.4,0.2c-0.4,0.1-0.8,0.3-1.2,0.6
		c-0.3,0.2-0.6,0.6-0.8,0.9c-0.2,0.4-0.3,0.8-0.3,1.4v8.8L609.9,219.9L609.9,219.9z"/>
	<path d="M627.8,220.2c-1.7,0-2.9-0.5-3.9-1.7s-1.5-2.7-1.5-4.8c0-2.1,0.4-3.7,1.4-4.8s2.2-1.7,3.8-1.7c0.7,0,1.5,0.1,2.1,0.4
		c0.6,0.3,1.2,0.7,1.6,1.3s0.8,1.2,1,1.9c0.2,0.7,0.3,1.6,0.3,2.5v0.4h-9.3v0.6c0,0.7,0.1,1.5,0.3,2.1c0.2,0.6,0.5,1.2,0.8,1.6
		c0.3,0.4,0.8,0.7,1.4,1c0.5,0.2,1.2,0.3,1.9,0.3c2,0,3.4-0.9,4.1-2.8l0.6,0.3c-0.3,0.9-0.9,1.8-1.8,2.3
		C630,219.9,628.9,220.2,627.8,220.2z M627.7,208.1c-0.6,0-1.3,0.1-1.8,0.3c-0.5,0.2-0.9,0.5-1.4,1c-0.3,0.4-0.6,0.9-0.8,1.6
		c-0.2,0.6-0.3,1.3-0.3,2v0.1h8.5V213c0-0.7-0.1-1.5-0.3-2c-0.2-0.6-0.5-1.2-0.8-1.6c-0.3-0.4-0.8-0.7-1.4-0.9
		C628.8,208.2,628.3,208.1,627.7,208.1z"/>
	<path d="M640,220.2c-1,0-1.9-0.2-2.6-0.5c-0.7-0.3-1.4-0.9-2-1.8l0.6-0.5c0.5,0.7,1.2,1.3,1.8,1.6c0.6,0.3,1.4,0.5,2.2,0.5
		c1,0,1.9-0.2,2.5-0.6c0.5-0.4,0.8-1.2,0.8-2c0-0.8-0.2-1.5-0.7-1.9c-0.5-0.4-1.3-0.7-2.2-0.8l-1-0.2c-0.5-0.1-1-0.2-1.5-0.3
		c-0.4-0.2-0.8-0.4-1.2-0.6c-0.3-0.2-0.5-0.6-0.7-0.9c-0.2-0.4-0.2-0.8-0.2-1.4c0-0.5,0.1-1,0.3-1.4c0.2-0.4,0.5-0.7,0.8-1
		c0.3-0.3,0.8-0.5,1.3-0.6c0.5-0.1,1-0.2,1.6-0.2c1,0,1.9,0.2,2.5,0.5c0.6,0.3,1.2,0.8,1.6,1.3l-0.6,0.5c-0.2-0.2-0.4-0.4-0.6-0.6
		c-0.2-0.2-0.4-0.3-0.7-0.5c-0.3-0.2-0.6-0.3-0.9-0.3c-0.3-0.1-0.8-0.1-1.3-0.1c-0.9,0-1.8,0.2-2.3,0.6c-0.5,0.4-0.8,1-0.8,1.9
		s0.2,1.5,0.7,1.8c0.5,0.4,1.3,0.6,2.2,0.8l1,0.2c1.2,0.2,2,0.5,2.6,1c0.6,0.5,0.9,1.4,0.9,2.4c0,1-0.3,2-1.2,2.5
		C642.3,219.9,641.2,220.2,640,220.2z"/>
</g>
</svg>
