<svg width="1947" height="1847" xmlns="http://www.w3.org/2000/svg" xmlns:xlink="http://www.w3.org/1999/xlink" xml:space="preserve" overflow="hidden"><defs><clipPath id="clip0"><rect x="0" y="82" width="1947" height="1847"/></clipPath><clipPath id="clip1"><rect x="0" y="85" width="1843" height="1845"/></clipPath><clipPath id="clip2"><rect x="0" y="85" width="1843" height="1845"/></clipPath><clipPath id="clip3"><rect x="0" y="85" width="1843" height="1845"/></clipPath></defs><g clip-path="url(#clip0)" transform="matrix(1 0 0 1 0 -82)"><g clip-path="url(#clip1)"><g clip-path="url(#clip2)"><g clip-path="url(#clip3)"><path d="M0.9215 86.9214 1842.08 86.9214 1842.08 1928.08 0.9215 1928.08Z" fill="#021224" fill-rule="nonzero" fill-opacity="1"/><path d="M1841.16 87.8429 1841.16 1927.16 1.843 1927.16 1.843 87.8429 1841.16 87.8429M1843 85.9999 0 85.9999 0 1929 1843 1929 1843 85.9999Z" fill="#021224" fill-rule="nonzero" fill-opacity="1"/><path d="M151.863 1116.42C118.136 1116.42 91.9657 1104.44 73.5357 1080.3 55.1057 1056.16 45.8907 1020.03 45.8907 971.93 45.8907 923.828 55.1057 887.521 73.5357 863.193 91.9657 838.865 118.136 826.702 151.863 826.702 173.242 826.702 191.488 832.046 206.6 842.552 221.713 853.057 233.139 867.248 240.88 884.94L228.348 891.76C221.344 875.726 211.392 863.009 198.491 853.794 185.59 844.579 169.925 839.971 151.679 839.971 123.665 839.971 101.549 850.108 85.6995 870.565 69.8497 890.838 61.7405 921.063 61.7405 960.872L61.7405 983.357C61.7405 1023.17 69.6654 1053.21 85.6995 1073.3 101.549 1093.38 123.665 1103.34 151.679 1103.34 171.215 1103.34 187.617 1098.54 200.887 1088.59 214.157 1078.82 224.109 1065.37 230.744 1048.23L242.723 1054.68C234.982 1073.48 223.372 1088.41 208.075 1099.65 192.962 1110.89 174.163 1116.42 151.863 1116.42Z" fill="#FFFFFF" fill-rule="nonzero" fill-opacity="1"/><path d="M374.682 1116.42C347.958 1116.42 326.764 1107.39 311.467 1089.14 295.986 1070.9 288.429 1044.36 288.429 1009.71 288.429 974.695 296.17 948.155 311.467 930.094 326.764 912.033 347.958 903.002 374.682 903.002 401.405 903.002 422.6 912.033 437.897 930.094 453.194 948.155 460.934 974.695 460.934 1009.71 460.934 1044.54 453.194 1071.08 437.897 1089.14 422.6 1107.39 401.59 1116.42 374.682 1116.42ZM374.682 1104.07C397.351 1104.07 415.044 1096.7 427.207 1081.77 439.555 1066.84 445.637 1046.57 445.637 1020.59L445.637 998.838C445.637 972.667 439.555 952.21 427.207 937.466 414.859 922.722 397.351 915.35 374.682 915.35 352.013 915.35 334.32 922.722 322.156 937.466 309.808 952.21 303.726 972.667 303.726 998.838L303.726 1020.59C303.726 1046.57 309.808 1067.03 322.156 1081.77 334.504 1096.7 352.013 1104.07 374.682 1104.07Z" fill="#FFFFFF" fill-rule="nonzero" fill-opacity="1"/><path d="M657.398 1080.3 656.108 1080.3C651.5 1089.88 643.944 1098.18 633.255 1105.55 622.565 1112.92 608.559 1116.42 591.419 1116.42 564.695 1116.42 543.869 1107.39 528.941 1089.33 514.013 1071.27 506.641 1044.73 506.641 1009.71 506.641 974.695 514.013 948.155 528.941 930.094 543.869 912.033 564.511 903.002 591.419 903.002 608.559 903.002 622.381 906.688 633.255 913.876 643.944 921.063 651.5 929.725 656.108 939.493L657.398 939.493 657.398 814.722 671.405 814.722 671.405 1111.81 657.398 1111.81 657.398 1080.3ZM593.63 1104.07C602.108 1104.07 610.402 1102.78 618.142 1100.39 625.883 1097.99 632.702 1094.49 638.415 1089.88 644.128 1085.27 648.736 1079.93 652.238 1073.66 655.739 1067.4 657.398 1060.39 657.398 1052.47L657.398 966.401C657.398 958.845 655.739 952.026 652.238 945.76 648.736 939.493 644.128 934.149 638.415 929.725 632.702 925.302 625.883 921.801 618.142 919.22 610.402 916.64 602.292 915.35 593.63 915.35 570.961 915.35 553.269 922.722 540.92 937.65 528.388 952.579 522.306 972.667 522.306 998.285L522.306 1021.69C522.306 1047.12 528.572 1067.21 540.92 1081.96 553.269 1096.7 570.777 1104.07 593.63 1104.07Z" fill="#FFFFFF" fill-rule="nonzero" fill-opacity="1"/><path d="M821.978 1116.42C794.886 1116.42 773.691 1107.39 758.026 1089.14 742.36 1070.9 734.62 1044.36 734.62 1009.71 734.62 975.247 742.176 948.708 757.473 930.463 772.77 912.217 793.78 903.002 820.504 903.002 833.036 903.002 844.463 905.398 854.783 910.19 865.104 914.981 873.951 921.801 881.323 930.647 888.695 939.493 894.408 950.183 898.462 962.531 902.517 975.063 904.544 988.886 904.544 1004L904.544 1010.45 749.548 1010.45 749.548 1021.32C749.548 1033.85 751.207 1045.28 754.34 1055.42 757.473 1065.55 762.265 1074.22 768.531 1081.59 774.797 1088.78 782.353 1094.31 791.384 1098.18 800.415 1102.05 810.551 1104.07 822.162 1104.07 854.599 1104.07 876.899 1088.59 889.247 1057.45L900.121 1063.53C894.039 1079.56 884.271 1092.46 871.186 1102.05 857.916 1111.63 841.514 1116.42 821.978 1116.42ZM820.319 915.35C809.077 915.35 799.125 917.377 790.463 921.248 781.801 925.118 774.244 930.647 768.162 937.835 762.08 945.022 757.289 953.684 754.156 964.005 751.022 974.142 749.364 985.384 749.364 997.732L749.364 999.391 889.063 999.391 889.063 996.995C889.063 984.647 887.404 973.589 884.087 963.452 880.77 953.5 875.978 944.838 870.08 937.835 863.998 930.831 856.811 925.302 848.333 921.432 839.855 917.377 830.456 915.35 820.319 915.35Z" fill="#FFFFFF" fill-rule="nonzero" fill-opacity="1"/><path d="M955.964 1111.63 955.964 831.494 1124.6 831.494 1124.6 881.623 1013.47 881.623 1013.47 944.654 1107.64 944.654 1107.64 994.783 1013.28 994.783 1013.28 1111.63 955.964 1111.63Z" fill="#106FFF" fill-rule="nonzero" fill-opacity="1"/><path d="M1219.7 1111.63C1200.16 1111.63 1186.15 1107.21 1177.68 1098.54 1169.2 1089.88 1164.96 1076.61 1164.96 1058.55L1164.96 814.538 1221.17 814.538 1221.17 1067.95 1244.95 1067.95 1244.95 1111.63 1219.7 1111.63Z" fill="#106FFF" fill-rule="nonzero" fill-opacity="1"/><path d="M1414.87 1111.63C1392.94 1111.63 1380.96 1099.47 1379.12 1075.14L1373.96 1075.14C1371.74 1088.04 1366.03 1098.18 1356.63 1105.36 1347.23 1112.74 1335.44 1116.42 1320.88 1116.42 1301.9 1116.42 1287.52 1111.08 1277.94 1100.2 1268.35 1089.33 1263.56 1074.22 1263.56 1055.05 1263.56 1032.01 1270.56 1015.24 1284.57 1004.92 1298.58 994.599 1318.3 989.254 1343.36 989.254L1373.96 989.254 1373.96 972.852C1373.96 961.978 1371.74 953.869 1367.14 948.524 1362.53 943.179 1354.97 940.599 1344.28 940.599 1334.88 940.599 1327.14 942.995 1320.88 947.603 1314.61 952.21 1309.08 958.476 1304.29 966.033L1270.93 936.176C1279.41 923.643 1289.92 913.691 1302.26 906.504 1314.61 899.316 1330.28 895.814 1349.63 895.814 1377.27 895.814 1397.55 902.265 1410.63 915.166 1423.72 928.067 1430.35 947.234 1430.35 972.667L1430.35 1067.77 1447.68 1067.77 1447.68 1111.45 1414.87 1111.45ZM1343.36 1077.17C1351.66 1077.17 1358.84 1074.77 1364.93 1070.16 1371.01 1065.55 1373.96 1058.18 1373.96 1048.23L1373.96 1022.24 1348.71 1022.24C1329.36 1022.24 1319.77 1030.35 1319.77 1046.39L1319.77 1053.94C1319.77 1062.05 1321.8 1067.95 1326.04 1071.64 1330.09 1075.32 1335.81 1077.17 1343.36 1077.17Z" fill="#106FFF" fill-rule="nonzero" fill-opacity="1"/><path d="M1483.06 1111.63 1483.06 900.975 1539.27 900.975 1539.27 945.944 1545.72 945.944C1546.46 940.046 1547.94 934.333 1549.78 928.804 1551.62 923.275 1554.2 918.483 1557.52 914.429 1560.84 910.374 1565.08 907.057 1570.24 904.661 1575.4 902.265 1581.29 900.975 1588.3 900.975L1598.25 900.975 1598.25 957.923 1583.87 957.923C1568.58 957.923 1557.33 960.135 1550.15 964.374 1542.96 968.613 1539.27 976.906 1539.27 988.886L1539.27 1111.81 1483.06 1111.81Z" fill="#106FFF" fill-rule="nonzero" fill-opacity="1"/><path d="M1711.41 1116.42C1682.47 1116.42 1659.44 1107.21 1642.11 1088.96 1624.79 1070.71 1616.31 1043.07 1616.31 1006.39 1616.31 968.981 1623.87 941.152 1638.98 923.091 1654.09 905.029 1676.39 895.999 1705.88 895.999 1735.37 895.999 1757.67 905.029 1772.78 923.091 1787.89 941.152 1795.45 968.797 1795.45 1006.21L1795.45 1019.85 1675.1 1019.85 1675.1 1033.12C1675.1 1044.91 1678.79 1054.31 1685.98 1061.5 1693.16 1068.5 1703.12 1072.19 1715.65 1072.19 1726.15 1072.19 1735 1069.79 1742.37 1065.19 1749.74 1060.58 1756.56 1053.94 1762.65 1045.65L1791.21 1079.19C1782.73 1090.8 1771.68 1099.83 1758.41 1106.65 1745.14 1113.47 1729.47 1116.42 1711.41 1116.42ZM1705.88 938.203C1685.24 938.203 1674.92 950.183 1674.92 973.957L1674.92 986.674 1736.66 986.674 1736.66 973.957C1736.84 950.183 1726.52 938.203 1705.88 938.203Z" fill="#106FFF" fill-rule="nonzero" fill-opacity="1"/></g></g></g><text fill="#FFFFFF" fill-opacity="1" font-family="IBM Plex Mono SemiBold,IBM Plex Mono SemiBold_MSFontService,sans-serif" font-style="normal" font-variant="normal" font-weight="600" font-stretch="normal" font-size="303" text-anchor="start" direction="ltr" writing-mode="lr-tb" unicode-bidi="normal" text-decoration="none" transform="matrix(1 0 0 1 891.786 1459)">&gt;_<tspan fill="#FFFFFF" fill-opacity="1" font-family="IBM Plex Sans Condensed,IBM Plex Sans Condensed_MSFontService,sans-serif" font-style="normal" font-variant="normal" font-weight="700" font-stretch="condensed" font-size="303" text-anchor="start" direction="ltr" writing-mode="lr-tb" unicode-bidi="normal" text-decoration="none" x="427.396" y="0">CLI</tspan></text></g></svg>