<?xml version="1.0" encoding="utf-8"?>
<!-- Generator: Adobe Illustrator 25.2.3, SVG Export Plug-In . SVG Version: 6.00 Build 0)  -->
<svg version="1.1" id="Layer_1" xmlns="http://www.w3.org/2000/svg" xmlns:xlink="http://www.w3.org/1999/xlink" x="0px" y="0px"
	 viewBox="0 0 827.4 435.2" style="enable-background:new 0 0 827.4 435.2;" xml:space="preserve">
<style type="text/css">
	.st0{fill:#F2F2F2;}
	.st1{fill:#D9D9D9;}
	.st2{fill:#0F6FFF;}
	.st3{fill:#FFFFFF;}
	.st4{fill:#7F7F7F;}
	.st5{fill:#106FFF;}
	.st6{fill:none;stroke:#0F6FFF;stroke-width:1.5;stroke-linejoin:round;}
	.st7{clip-path:url(#SVGID_2_);}
	.st8{fill:#0000FF;}
	.st9{fill:none;stroke:#0000FF;stroke-width:1.99;stroke-linejoin:round;}
	.st10{fill:none;}
	.st11{font-family:'IBMPlexSans-Light';}
	.st12{font-size:10px;}
	.st13{fill:#A6A6A6;}
	.st14{fill-rule:evenodd;clip-rule:evenodd;fill:#FFFFFF;}
</style>
<rect x="112.6" y="57.5" class="st0" width="699" height="173"/>
<rect x="114.6" y="246.5" class="st0" width="697" height="174"/>
<rect x="267" y="299.5" class="st1" width="482.6" height="69"/>
<path class="st0" d="M514,46.9l-3.2,5.9l-2.8-6.1L514,46.9z M56.6,22.7H511c0.2,0,0.4,0.1,0.5,0.2c0.1,0.1,0.2,0.3,0.2,0.5v24.3
	h-1.5V23.5l0.8,0.8H56.6V22.7z"/>
<rect x="266.6" y="76.5" class="st2" width="483" height="48"/>
<path class="st3" d="M275.7,98.5v-9.8h3.6c1.6,0,2.4,0.9,2.4,2.8s-0.8,2.8-2.4,2.8h-2.5v4.2H275.7z M276.9,93.3h2.5
	c0.8,0,1.2-0.4,1.2-1.3v-1c0-0.9-0.4-1.3-1.2-1.3h-2.5V93.3z"/>
<path class="st3" d="M283.8,89.5c-0.4,0-0.7-0.2-0.7-0.6v-0.2c0-0.4,0.2-0.6,0.7-0.6c0.4,0,0.6,0.2,0.6,0.6v0.2
	C284.5,89.3,284.2,89.5,283.8,89.5z M283.3,91.3h1.1v7.2h-1.1V91.3z"/>
<path class="st3" d="M286.5,91.3h1.1v1.2h0.1c0.1-0.4,0.3-0.8,0.7-1c0.3-0.2,0.7-0.3,1.1-0.3c0.4,0,0.8,0.1,1.1,0.3
	c0.3,0.2,0.6,0.4,0.8,0.8c0.2,0.4,0.4,0.8,0.5,1.2c0.1,0.5,0.2,1,0.2,1.6c0,0.5-0.1,1.1-0.2,1.6c-0.1,0.4-0.3,0.8-0.5,1.2
	c-0.2,0.3-0.5,0.6-0.8,0.8c-0.4,0.2-0.7,0.3-1.1,0.3c-0.4,0-0.8-0.1-1.1-0.3c-0.3-0.2-0.6-0.6-0.7-1h-0.1v4h-1.1V91.3z M289.2,97.7
	c0.5,0,1-0.2,1.4-0.6c0.3-0.4,0.5-1,0.5-1.6v-1.5c0-0.6-0.1-1.1-0.5-1.6c-0.3-0.4-0.8-0.6-1.4-0.6c-0.2,0-0.4,0-0.6,0.1
	c-0.2,0.1-0.4,0.2-0.5,0.3c-0.1,0.1-0.3,0.3-0.4,0.4c-0.1,0.2-0.1,0.4-0.1,0.6v2.9c0,0.2,0,0.4,0.1,0.6c0.1,0.2,0.2,0.3,0.4,0.4
	c0.2,0.1,0.3,0.2,0.5,0.3C288.8,97.7,289,97.7,289.2,97.7L289.2,97.7z"/>
<path class="st3" d="M296.3,98.7c-0.4,0-0.8-0.1-1.2-0.2c-0.4-0.1-0.7-0.4-0.9-0.7c-0.3-0.3-0.5-0.7-0.6-1.2c-0.3-1.1-0.3-2.3,0-3.4
	c0.1-0.4,0.3-0.8,0.6-1.2c0.2-0.3,0.6-0.5,0.9-0.7c0.4-0.1,0.8-0.2,1.2-0.2c0.4,0,0.8,0.1,1.1,0.2c0.4,0.1,0.7,0.4,0.9,0.7
	c0.3,0.3,0.5,0.7,0.6,1.2c0.1,0.6,0.2,1.1,0.2,1.7v0.3h-4.6v0.5c0,0.6,0.1,1.1,0.5,1.6c0.3,0.4,0.8,0.6,1.3,0.5
	c0.9,0.1,1.6-0.5,1.9-1.3L299,97c-0.2,0.5-0.6,0.9-1,1.2C297.5,98.5,296.9,98.7,296.3,98.7z M296.3,92c-0.5,0-1,0.2-1.3,0.6
	c-0.4,0.5-0.5,1-0.5,1.6v0.2h3.5v-0.2C298,92.7,297.4,92,296.3,92L296.3,92z"/>
<path class="st3" d="M301.8,98.5c-0.3,0-0.6-0.1-0.8-0.3c-0.2-0.2-0.3-0.5-0.3-0.8v-9.3h1.1v9.4h0.9v0.9H301.8z"/>
<path class="st3" d="M304.8,89.5c-0.4,0-0.7-0.2-0.7-0.6v-0.2c0-0.4,0.2-0.6,0.7-0.6c0.4,0,0.7,0.2,0.7,0.6v0.2
	C305.4,89.3,305.2,89.5,304.8,89.5z M304.2,91.3h1.1v7.2h-1.1V91.3z"/>
<path class="st3" d="M307.5,98.5v-7.2h1.1v1.2h0.1c0.1-0.4,0.3-0.7,0.6-1c0.4-0.2,0.8-0.4,1.2-0.3c0.6,0,1.1,0.2,1.5,0.7
	c0.4,0.6,0.6,1.3,0.6,2v4.7h-1.1v-4.6c0-0.5-0.1-0.9-0.4-1.3c-0.3-0.3-0.7-0.5-1.1-0.5c-0.4,0-0.8,0.1-1.1,0.4
	c-0.3,0.3-0.5,0.7-0.5,1.1v4.9L307.5,98.5z"/>
<path class="st3" d="M317.1,98.7c-0.4,0-0.8-0.1-1.2-0.2c-0.4-0.1-0.7-0.4-0.9-0.7c-0.3-0.3-0.5-0.7-0.6-1.2c-0.3-1.1-0.3-2.3,0-3.4
	c0.1-0.4,0.4-0.8,0.7-1.2c0.2-0.3,0.6-0.5,0.9-0.7c0.4-0.1,0.8-0.2,1.2-0.2c0.4,0,0.8,0.1,1.2,0.2c0.4,0.1,0.7,0.4,0.9,0.7
	c0.3,0.3,0.5,0.7,0.6,1.2c0.2,0.6,0.2,1.1,0.2,1.7v0.3h-4.6v0.5c0,0.6,0.1,1.1,0.5,1.6c0.3,0.4,0.8,0.6,1.3,0.5
	c0.4,0,0.8-0.1,1.2-0.3c0.3-0.2,0.6-0.6,0.7-0.9l0.7,0.5c-0.2,0.5-0.6,0.9-1,1.2C318.3,98.5,317.7,98.7,317.1,98.7z M317.1,92
	c-0.5,0-1,0.2-1.3,0.6c-0.4,0.5-0.5,1-0.5,1.6v0.2h3.5v-0.2C318.8,92.7,318.2,92,317.1,92L317.1,92z"/>
<path class="st3" d="M323.5,98.7c-0.5,0-1.1-0.1-1.5-0.4c-0.4-0.2-0.8-0.6-1.1-1l0.7-0.6c0.2,0.3,0.5,0.6,0.8,0.8
	c0.3,0.2,0.7,0.3,1,0.3c0.4,0,0.7-0.1,1-0.3c0.3-0.2,0.4-0.6,0.4-0.9c0-0.3-0.1-0.5-0.2-0.8c-0.2-0.2-0.5-0.4-0.9-0.4l-0.5-0.1
	c-0.6-0.1-1.1-0.3-1.6-0.7c-0.4-0.4-0.5-0.9-0.5-1.4c0-0.3,0-0.6,0.2-0.9c0.1-0.3,0.3-0.5,0.5-0.7c0.2-0.2,0.5-0.3,0.7-0.4
	c0.3-0.1,0.6-0.1,0.9-0.1c0.5,0,0.9,0.1,1.4,0.3c0.4,0.2,0.7,0.5,1,0.8l-0.7,0.6c-0.2-0.2-0.4-0.4-0.6-0.6c-0.3-0.2-0.6-0.3-1-0.3
	c-0.9,0-1.3,0.4-1.3,1.2c0,0.3,0.1,0.6,0.3,0.8c0.3,0.2,0.6,0.3,0.9,0.4l0.5,0.1c0.6,0.1,1.1,0.3,1.6,0.7c0.3,0.4,0.5,0.8,0.5,1.3
	c0,0.6-0.2,1.2-0.6,1.7C324.8,98.5,324.1,98.7,323.5,98.7z"/>
<path class="st4" d="M726.6,33.7c-1.5,0.1-3-0.6-3.9-1.8c-1-1.6-1.5-3.5-1.4-5.4c-0.1-1.9,0.3-3.8,1.4-5.4c1.6-1.9,4.5-2.4,6.6-1
	c0.7,0.5,1.3,1.2,1.7,2.1l-0.6,0.3c-0.3-0.8-0.8-1.4-1.5-1.9c-1.8-1.2-4.2-0.8-5.6,0.8c-0.9,1.3-1.3,2.9-1.2,4.5v1.1
	c-0.1,1.6,0.3,3.2,1.2,4.5c0.8,1,2,1.6,3.3,1.5c0.9,0,1.7-0.2,2.5-0.7c0.7-0.5,1.2-1.2,1.5-2l0.6,0.3c-0.4,0.9-1,1.7-1.7,2.2
	C728.6,33.5,727.6,33.8,726.6,33.7z"/>
<path class="st4" d="M737.7,33.7c-1.2,0.1-2.4-0.4-3.2-1.4c-0.8-1.2-1.3-2.6-1.2-4c-0.1-1.4,0.3-2.8,1.2-4c1.7-1.7,4.4-1.8,6.2-0.1
	c0.1,0,0.1,0.1,0.1,0.1c0.8,1.2,1.3,2.6,1.2,4c0.1,1.4-0.3,2.8-1.2,4C740,33.3,738.9,33.8,737.7,33.7z M737.7,33.1
	c1,0.1,2-0.4,2.6-1.1c0.6-0.9,1-1.9,0.9-3v-1.1c0.1-1.1-0.3-2.2-0.9-3.1c-1.4-1.4-3.7-1.5-5.2-0.1c0,0,0,0-0.1,0.1
	c-0.7,0.9-1,2-0.9,3.1V29c0,1.1,0.3,2.1,0.9,3C735.7,32.8,736.7,33.2,737.7,33.1z"/>
<path class="st4" d="M751.7,31.9L751.7,31.9c-0.3,0.5-0.7,0.9-1.2,1.3c-0.6,0.4-1.3,0.6-2.1,0.5c-1.2,0.1-2.3-0.4-3.1-1.3
	c-0.8-1.2-1.2-2.6-1.1-4c-0.1-1.4,0.3-2.8,1.1-4c0.8-0.9,1.9-1.4,3.1-1.3c0.7,0,1.5,0.2,2.1,0.5c0.5,0.3,0.9,0.8,1.1,1.3h0.1v-6.2
	h0.7v14.8h-0.7V31.9z M748.5,33.1c0.4,0,0.8-0.1,1.2-0.2c0.4-0.1,0.7-0.3,1-0.5c0.3-0.2,0.5-0.5,0.7-0.8c0.2-0.3,0.3-0.7,0.3-1v-4.3
	c0-0.3-0.1-0.7-0.3-1c-0.2-0.3-0.4-0.6-0.7-0.8c-0.3-0.2-0.6-0.4-1-0.5c-0.4-0.1-0.8-0.2-1.2-0.2c-1-0.1-2,0.4-2.6,1.1
	c-0.7,0.9-1,1.9-0.9,3V29c-0.1,1.1,0.3,2.1,0.9,3C746.6,32.8,747.5,33.2,748.5,33.1z"/>
<path class="st4" d="M760,33.7c-1.2,0.1-2.4-0.4-3.2-1.4c-0.9-1.1-1.3-2.6-1.2-4c-0.1-1.4,0.3-2.8,1.1-4c0.8-0.9,1.9-1.4,3.1-1.4
	c0.6,0,1.2,0.1,1.7,0.4c0.5,0.2,1,0.6,1.3,1c0.4,0.5,0.7,1,0.8,1.6c0.2,0.7,0.3,1.4,0.3,2.1v0.3h-7.7V29c0,0.6,0.1,1.1,0.2,1.7
	c0.1,0.5,0.4,0.9,0.7,1.3c0.3,0.4,0.7,0.6,1.1,0.8c0.5,0.2,1,0.3,1.5,0.3c1.5,0.1,2.9-0.9,3.3-2.3l0.5,0.3c-0.3,0.8-0.8,1.4-1.5,1.9
	C761.7,33.5,760.9,33.7,760,33.7z M759.9,23.7c-0.5,0-1,0.1-1.5,0.3c-0.4,0.2-0.8,0.5-1.1,0.8c-0.3,0.4-0.6,0.8-0.7,1.3
	c-0.2,0.5-0.2,1.1-0.2,1.7v0.1h7v-0.1c0-0.6-0.2-1.2-0.4-1.7c-0.1-0.5-0.4-0.9-0.7-1.3c-0.3-0.4-0.7-0.6-1.1-0.8
	C760.8,23.8,760.3,23.7,759.9,23.7L759.9,23.7z"/>
<path class="st5" d="M766.6,33.5v-14h8.4V22h-5.5v3.1h4.7v2.5h-4.7v5.8L766.6,33.5z"/>
<path class="st5" d="M779.6,33.5c-0.8,0.1-1.5-0.2-2.1-0.7c-0.5-0.6-0.7-1.3-0.6-2V18.7h2.8v12.6h1.2v2.2H779.6z"/>
<path class="st5" d="M789.4,33.5c-1.1,0-1.7-0.6-1.8-1.8h-0.3c-0.1,0.6-0.4,1.1-0.9,1.5c-0.5,0.4-1.1,0.6-1.8,0.5
	c-0.8,0.1-1.6-0.2-2.1-0.8c-0.5-0.6-0.8-1.4-0.7-2.2c-0.1-0.9,0.3-1.9,1-2.5c0.9-0.6,1.9-0.8,2.9-0.8h1.5v-0.8
	c0-0.4-0.1-0.9-0.3-1.2c-0.3-0.3-0.7-0.4-1.1-0.4c-0.4,0-0.8,0.1-1.2,0.3c-0.3,0.3-0.6,0.6-0.8,0.9l-1.7-1.5
	c0.4-0.6,0.9-1.1,1.6-1.5c0.7-0.4,1.5-0.6,2.4-0.5c1.1-0.1,2.2,0.3,3,1c0.7,0.8,1.1,1.8,1,2.9v4.7h1v2.2L789.4,33.5z M785.8,31.8
	c0.4,0,0.8-0.1,1.1-0.3c0.3-0.3,0.5-0.7,0.5-1.1V29h-1.3c-1,0-1.4,0.4-1.4,1.2v0.4c0,0.3,0.1,0.6,0.3,0.9
	C785.2,31.7,785.5,31.8,785.8,31.8z"/>
<path class="st5" d="M792.8,33.5V23h2.8v2.2h0.3c0-0.3,0.1-0.6,0.2-0.8c0.1-0.3,0.2-0.5,0.4-0.7c0.2-0.2,0.4-0.4,0.6-0.5
	c0.3-0.1,0.6-0.2,0.9-0.2h0.5v2.8h-0.7c-0.6,0-1.2,0.1-1.7,0.3c-0.4,0.3-0.6,0.7-0.5,1.2v6.1L792.8,33.5z"/>
<path class="st5" d="M804.3,33.7c-1.3,0.1-2.5-0.4-3.5-1.4c-0.9-1.2-1.4-2.6-1.3-4.1c-0.1-1.5,0.3-2.9,1.1-4.2
	c1.9-1.8,4.8-1.8,6.7,0c0.8,1.2,1.2,2.7,1.1,4.1v0.7h-6v0.7c0,0.5,0.2,1,0.5,1.4c0.4,0.4,0.9,0.6,1.5,0.5c0.5,0,0.9-0.1,1.3-0.3
	c0.4-0.3,0.7-0.6,1-1l1.4,1.7c-0.4,0.6-1,1-1.6,1.4C805.9,33.6,805.1,33.7,804.3,33.7z M804.1,24.8c-1,0-1.5,0.6-1.5,1.8v0.6h3.1
	v-0.6C805.6,25.4,805.1,24.8,804.1,24.8z"/>
<path class="st1" d="M356,136.2l-3.4-6.8l-3.4,6.8H356z M353.8,291.4V135.1h-2.2v156.3H353.8z"/>
<path class="st1" d="M518,136.2l-3.4-6.8l-3.4,6.8H518z M515.8,291.4V135.1h-2.2v156.3H515.8z"/>
<path class="st1" d="M681,285l-3.4,6.8l-3.4-6.8H681z M678.8,129.5v156.6h-2.2V129.5L678.8,129.5z"/>
<rect x="267.6" y="260.5" class="st0" width="169" height="18"/>
<rect x="456.6" y="260.5" class="st0" width="116" height="18"/>
<rect x="620.6" y="260.5" class="st0" width="116" height="18"/>
<rect x="98.6" y="1.5" class="st6" width="728" height="433"/>
<g>
	<defs>
		<rect id="SVGID_1_" x="683.6" y="85.5" width="54" height="31"/>
	</defs>
	<clipPath id="SVGID_2_">
		<use xlink:href="#SVGID_1_"  style="overflow:visible;"/>
	</clipPath>
	<g class="st7">
		<path class="st8" d="M698.5,94.3l0.9-1.6l-1.8,0.2L698.5,94.3z M691.2,98.3l7.2-4.7l-0.2-0.3L691,98L691.2,98.3z"/>
		<path class="st8" d="M697.4,101.8l1.6-0.8l-1.7-0.8L697.4,101.8z M692.2,101.2h5.5v-0.4h-5.5V101.2z"/>
		<path class="st8" d="M698.5,108l0.9,1.6l-1.8-0.3L698.5,108z M691.2,103.6l7.1,5l-0.2,0.3l-7.1-5L691.2,103.6z"/>
		<path class="st8" d="M727.2,101.6l1.6-0.8l-1.7-0.8L727.2,101.6z M721.9,101h5.5v-0.4h-5.5V101z"/>
		<path class="st8" d="M713.7,96.5l0.9,1.6l-1.8-0.3L713.7,96.5z M706.9,92.5l6.7,4.7l-0.2,0.3l-6.7-4.7L706.9,92.5z"/>
		<path class="st8" d="M714.3,105.1l0.9-1.6l-1.8,0.3L714.3,105.1z M706.9,109.7l7.2-5.2l-0.2-0.3l-7.2,5.2L706.9,109.7z"/>
		<path class="st9" d="M699.2,90.5c0-2.2,1.8-4,4-4s4,1.8,4,4s-1.8,4-4,4S699.2,92.7,699.2,90.5z"/>
		<path class="st9" d="M699.2,111.6c-0.1-2.2,1.7-4.1,3.9-4.1c2.2-0.1,4.1,1.7,4.1,3.9c0.1,2.2-1.7,4.1-3.9,4.1c0,0-0.1,0-0.1,0
			C701,115.5,699.2,113.8,699.2,111.6C699.2,111.6,699.2,111.6,699.2,111.6z"/>
		<path class="st9" d="M684.6,101.1c0-2.1,1.7-3.9,3.9-3.8c2.1,0,3.9,1.7,3.8,3.9c0,2.1-1.7,3.9-3.9,3.8S684.6,103.3,684.6,101.1
			C684.6,101.1,684.6,101.1,684.6,101.1z"/>
		<path class="st8" d="M712.6,101.6l1.7-0.8l-1.7-0.8L712.6,101.6z M707.3,101h5.5v-0.4h-5.5V101z"/>
		<path class="st9" d="M714.1,100.8c-0.1-2.2,1.6-4.1,3.9-4.1c2.2-0.1,4.1,1.6,4.1,3.9c0.1,2.2-1.6,4.1-3.9,4.1c0,0-0.1,0-0.1,0
			C715.9,104.7,714.1,103,714.1,100.8C714.1,100.9,714.1,100.9,714.1,100.8z"/>
		<path class="st9" d="M699.2,101c0-2.2,1.8-4,4-4s4,1.8,4,4s-1.8,4-4,4S699.2,103.2,699.2,101z"/>
		<path class="st9" d="M728.7,100.8c-0.1-2.2,1.6-4.1,3.9-4.1c2.2-0.1,4.1,1.6,4.1,3.9c0.1,2.2-1.6,4.1-3.9,4.1c0,0-0.1,0-0.1,0
			C730.5,104.7,728.7,103,728.7,100.8C728.7,100.9,728.7,100.9,728.7,100.8z"/>
	</g>
</g>
<path d="M136,81h-6c-1.1,0-2,0.9-2,2v6c0,1.1,0.9,2,2,2h6c1.1,0,2-0.9,2-2v-6C138,81.9,137.1,81,136,81z M130,89v-6h6v6H130z"/>
<path d="M142,85v2h6c1.1,0,2-0.9,2-2V71c0-1.1-0.9-2-2-2h-14c-1.1,0-2,0.9-2,2v6h2v-6h14v14"/>
<rect id="_Transparent_Rectangle_" x="123" y="64" class="st10" width="32" height="32"/>
<polygon points="142,272 142,270 149.2,270 146.9,267.7 148.3,266.3 153,271 148.3,275.7 146.9,274.3 149.2,272 "/>
<polygon points="140,268 138,268 138,261.8 135.7,264.1 134.3,262.7 139,258 143.7,262.7 142.3,264.1 140,261.8 "/>
<path d="M140,276.1V274c0-2.2-1.8-4-4-4h-7.2l2.3-2.3l-1.4-1.4L125,271l4.7,4.7l1.4-1.4l-2.3-2.3h7.2c1.1,0,2,0.9,2,2v2.1
	c-2.7,0.6-4.5,3.2-3.9,5.9c0.6,2.7,3.2,4.5,5.9,3.9c2.7-0.6,4.5-3.2,3.9-5.9C143.5,278,142,276.5,140,276.1z M139,284
	c-1.7,0-3-1.3-3-3s1.3-3,3-3s3,1.3,3,3S140.7,284,139,284z"/>
<rect id="_Transparent_Rectangle_2" x="123" y="256" class="st10" width="32" height="32"/>
<path d="M23,5.8c4,0,7.2,3.2,7.2,7.2S27,20.1,23,20.1s-7.2-3.2-7.2-7.2l0,0C15.8,9,19,5.8,23,5.8 M23,2.9c-5.6,0-10.1,4.5-10.1,10.1
	S17.4,23,23,23s10.1-4.5,10.1-10.1v0C33.1,7.4,28.6,2.9,23,2.9C23,2.9,23,2.9,23,2.9z"/>
<path d="M37.4,43.1h-2.9v-7.2c0-4-3.2-7.2-7.2-7.2h-8.6c-4,0-7.2,3.2-7.2,7.2v7.2H8.6v-7.2c0-5.6,4.5-10.1,10.1-10.1c0,0,0,0,0,0
	h8.6c5.6,0,10.1,4.5,10.1,10c0,0,0,0,0,0V43.1z"/>
<rect id="_Transparent_Rectangle_3" class="st10" width="46" height="46"/>
<g id="path">
	<g id="path16_fill">
		<path id="path7_fill" d="M30.4,94.8c0,0.7-0.5,1.4-1.2,1.4s-1.4-0.5-1.4-1.2s0.5-1.4,1.2-1.4c0,0,0,0,0,0l0,0
			C29.7,93.5,30.3,94.1,30.4,94.8L30.4,94.8z"/>
	</g>
</g>
<g id="path-2">
	<g id="path17_fill">
		<path id="path8_fill" d="M22.7,110.1c-3.5,0-6.6-1.3-8.2-3.1c1.7,4.5,6.7,6.8,11.2,5.2c2.4-0.9,4.3-2.8,5.2-5.2
			C29.3,108.8,26.2,110.1,22.7,110.1z"/>
	</g>
</g>
<g id="path-3">
	<g id="path18_fill">
		<path id="path9_fill" d="M22.7,98c3.5,0,6.6,1.2,8.2,3.1c-1.7-4.5-6.7-6.8-11.2-5.1c-2.4,0.9-4.2,2.8-5.1,5.1
			C16.1,99.2,19.2,98,22.7,98z"/>
	</g>
</g>
<g id="path-4">
	<g id="path19_fill">
		<path id="path10_fill" d="M17.8,113.7c0,0.9-0.7,1.7-1.6,1.7c-0.9,0-1.7-0.7-1.7-1.6c0-0.9,0.6-1.7,1.6-1.7c0.7,0,1.3,0.3,1.6,0.9
			C17.8,113.2,17.8,113.5,17.8,113.7z"/>
	</g>
</g>
<g id="path-5">
	<g id="path20_fill">
		<path id="path11_fill" d="M14.9,97.6c-0.6,0-1-0.4-1.1-0.9c0-0.6,0.4-1,0.9-1.1s1,0.4,1.1,0.9c0,0,0,0,0,0.1
			C15.8,97.1,15.4,97.5,14.9,97.6z"/>
	</g>
</g>
<rect id="_Transparent_Rectangle_4" x="10" y="92" class="st10" width="25" height="25"/>
<path id="compound_path" d="M28,65.6v2.1c0,1.6-1.3,3-2.9,3h-4.7c-1.3,0-2.3,1.1-2.3,2.4v4.4c0,1.3,1.1,2,2.3,2.4
	c1.5,0.5,3.2,0.5,4.7,0c1.2-0.3,2.3-1,2.3-2.4v-1.8h-4.7v-0.6h7c1.4,0,1.9-0.9,2.3-2.4c0.5-1.5,0.5-3.2,0-4.7
	c-0.3-1.4-1-2.4-2.3-2.4H28z M25.4,76.9c0.5,0,0.9,0.4,0.9,0.9s-0.4,0.9-0.9,0.9c-0.5,0-0.9-0.4-0.9-0.9c0,0,0,0,0,0l0,0
	C24.5,77.3,24.9,76.9,25.4,76.9L25.4,76.9z"/>
<path id="inner_path" class="st10" d="M25.4,76.9c0.5,0,0.9,0.4,0.9,0.9s-0.4,0.9-0.9,0.9c-0.5,0-0.9-0.4-0.9-0.9c0,0,0,0,0,0l0,0
	C24.5,77.3,24.9,76.9,25.4,76.9L25.4,76.9z"/>
<path id="compound_path-2" d="M22.7,60.6c-0.7,0-1.5,0.1-2.2,0.2c-2,0.3-2.3,1.1-2.3,2.4V65h4.7v0.6h-6.4c-1.4,0-2.7,1-2.9,2.4
	c-0.4,1.6-0.4,3.2,0,4.8c0.3,1.4,1.1,2.4,2.5,2.4h1.6V73c0.1-1.6,1.3-2.9,2.9-2.9h4.7c1.3,0,2.3-1.1,2.3-2.4l0,0v-4.5
	c-0.1-1.3-1.1-2.3-2.3-2.4C24.3,60.7,23.5,60.6,22.7,60.6z M20.2,62.1c0.5,0,0.9,0.4,0.9,0.9c0,0,0,0,0,0c0,0.5-0.4,0.9-0.9,0.9
	c-0.5,0-0.9-0.4-0.9-0.9c0,0,0,0,0,0l0,0C19.3,62.5,19.7,62.1,20.2,62.1z"/>
<path id="inner_path-2" class="st10" d="M20.2,62.1c0.5,0,0.9,0.4,0.9,0.9c0,0,0,0,0,0c0,0.5-0.4,0.9-0.9,0.9
	c-0.5,0-0.9-0.4-0.9-0.9c0,0,0,0,0,0l0,0C19.3,62.5,19.7,62.1,20.2,62.1z"/>
<rect id="_Transparent_Rectangle_5" x="11.6" y="59.2" class="st10" width="22.4" height="22.4"/>
<rect id="_Transparent_Rectangle_6" x="333.6" y="316.6" class="st10" width="38.4" height="38.4"/>
<rect id="_Transparent_Rectangle_7" x="617.6" y="314.6" class="st10" width="38.4" height="38.4"/>
<path d="M526.9,334.3c-0.1-1.8-0.6-3.6-1.4-5.2l4.5-1.6c-0.4-0.7-0.8-1.4-1.2-2.1l-2.1,0.8c-4.6-6.5-13.7-8-20.2-3.4
	c-4.1,2.9-6.4,7.8-6,12.9l2.1-0.8c0.1,0.8,0.2,1.6,0.4,2.4l-4.5,1.6c0.4,1.8,1.2,3.4,2.3,4.9l2.4-0.9l0,0c4.6,6.5,13.7,8,20.1,3.3
	c4.1-2.9,6.4-7.8,6-12.9L526.9,334.3z M523.4,338.5c-2.2,4.7-7.7,6.7-12.4,4.5c-1-0.5-2-1.1-2.7-1.9l-2.4,0.9
	c-1.3-1.3-2.2-3-2.5-4.8l0,0l4.5-1.6c-0.2-0.8-0.2-1.7-0.2-2.5l-2.1,0.8c0.4-5.1,4.9-9,10-8.6c1.1,0.1,2.3,0.4,3.3,0.9l0,0
	c1,0.5,1.9,1.1,2.7,2l2.1-0.8c0.6,0.6,1.1,1.3,1.5,2l-4.5,1.6c0.9,1.6,1.3,3.4,1.2,5.3l2.4-0.9C524.2,336.3,523.9,337.4,523.4,338.5
	L523.4,338.5z"/>
<path d="M634.9,330.8c-2.5-4.7-8.3-6.5-13-4c-2.9,1.6-4.8,4.5-5.1,7.8c-3.7,0.3-6.4,3.6-6,7.3c0.3,3.5,3.3,6.1,6.7,6h15.8
	c4.8,0,8.6-3.9,8.6-8.7C642,335.1,639,331.5,634.9,330.8z M633.4,346.5h-15.8c-2.9,0-5.2-2.3-5.2-5.2c0-2.6,1.9-4.7,4.5-5.1
	c0.1,1.3,0.5,2.6,1.1,3.7c0.2,0.4,0.6,0.5,1,0.3c0.4-0.2,0.5-0.6,0.3-1c0,0,0,0,0,0l0,0c-2.1-4-0.7-8.9,3.3-11
	c3.6-2,8.2-0.9,10.6,2.5c-2.4,0.1-4.7,1.1-6.2,2.9c-0.3,0.3-0.3,0.8,0,1c0.3,0.3,0.8,0.3,1,0c0,0,0,0,0,0l0,0
	c2.6-3,7.1-3.3,10.1-0.6c3,2.6,3.3,7.1,0.6,10.1C637.4,345.6,635.4,346.5,633.4,346.5L633.4,346.5z"/>
<path d="M642.2,327.4c-0.2-0.3-0.6-0.5-1-0.3l0,0l-3,1.7c-0.3,0.2-0.5,0.6-0.3,1c0.2,0.4,0.6,0.5,1,0.3l0,0l3-1.7
	C642.2,328.3,642.4,327.8,642.2,327.4C642.2,327.4,642.2,327.4,642.2,327.4z"/>
<path d="M633,325.1c0.4,0.2,0.8,0.1,1-0.3l0,0l1.7-3c0.2-0.4,0.1-0.8-0.3-1c-0.4-0.2-0.8-0.1-1,0.3l-1.7,3
	C632.6,324.4,632.7,324.9,633,325.1z"/>
<path d="M626.5,323.3c0.4,0,0.7-0.3,0.8-0.8v-3.4c0-0.4-0.3-0.8-0.8-0.8c-0.4,0-0.7,0.3-0.7,0.7c0,0,0,0,0,0l0,0v3.5
	C625.7,323,626,323.3,626.5,323.3C626.5,323.3,626.5,323.3,626.5,323.3z"/>
<path d="M618.8,324.8c0.2,0.4,0.7,0.5,1,0.3c0.4-0.2,0.5-0.7,0.3-1l-1.7-3c-0.2-0.4-0.6-0.5-1-0.3c-0.3,0.2-0.5,0.6-0.3,1l0,0
	L618.8,324.8z"/>
<path d="M614.8,328.9l-3-1.7c-0.4-0.2-0.8-0.1-1,0.3c-0.2,0.4-0.1,0.8,0.3,1l0,0l3,1.7c0.3,0.2,0.8,0.1,1-0.2c0.2-0.3,0.1-0.8-0.2-1
	C614.8,328.9,614.8,328.9,614.8,328.9L614.8,328.9z"/>
<rect id="_Transparent_Rectangle_8" x="610.6" y="317.3" class="st10" width="31.6" height="31.6"/>
<path d="M130.2,111v-7.7h3c0.6,0,1.1,0.2,1.5,0.6c0.4,0.4,0.6,1,0.5,1.6c0,0.6-0.2,1.1-0.5,1.6c-0.4,0.4-1,0.6-1.5,0.6h-2.4v3.4
	H130.2z M130.9,107h2.4c0.4,0,0.7-0.1,1-0.4c0.2-0.3,0.4-0.6,0.4-0.9v-0.5c0-0.7-0.5-1.3-1.2-1.3c-0.1,0-0.1,0-0.2,0h-2.4V107z"/>
<path d="M137.1,103.8c-0.1,0-0.2,0-0.3-0.1c-0.1-0.1-0.1-0.2-0.1-0.3v-0.1c0-0.1,0-0.2,0.1-0.3c0.1-0.1,0.2-0.1,0.3-0.1
	c0.1,0,0.2,0,0.3,0.1c0.1,0.1,0.1,0.2,0.1,0.3v0.1c0,0.1,0,0.2-0.1,0.3C137.3,103.8,137.2,103.8,137.1,103.8z M136.8,105.4h0.6v5.6
	h-0.6V105.4z"/>
<path d="M139.4,105.4h0.6v0.9l0,0c0.1-0.3,0.4-0.6,0.6-0.8c0.3-0.2,0.7-0.3,1.1-0.3c0.7,0,1.3,0.2,1.7,0.8c0.8,1.3,0.8,3,0,4.3
	c-0.4,0.5-1,0.8-1.7,0.8c-0.4,0-0.7-0.1-1.1-0.3c-0.3-0.2-0.5-0.4-0.6-0.8l0,0v3.1h-0.6L139.4,105.4z M141.6,110.6
	c0.5,0,1-0.2,1.4-0.6c0.3-0.4,0.5-0.9,0.5-1.4v-0.8c0-0.5-0.1-1-0.5-1.4c-0.3-0.4-0.8-0.6-1.3-0.5c-0.2,0-0.4,0-0.6,0.1
	c-0.2,0.1-0.4,0.1-0.5,0.3c-0.1,0.1-0.3,0.2-0.4,0.4c-0.1,0.2-0.1,0.3-0.1,0.5v2.2c0,0.2,0,0.4,0.1,0.5c0.1,0.2,0.2,0.3,0.4,0.4
	c0.1,0.1,0.3,0.2,0.5,0.3C141.2,110.5,141.4,110.6,141.6,110.6L141.6,110.6z"/>
<path d="M147.8,111.1c-0.3,0-0.7-0.1-1-0.2c-0.3-0.1-0.6-0.3-0.8-0.6c-0.2-0.3-0.4-0.6-0.5-0.9c-0.1-0.4-0.2-0.8-0.2-1.2
	c0-0.4,0-0.8,0.2-1.2c0.1-0.3,0.3-0.7,0.5-1c0.4-0.5,1.1-0.8,1.8-0.8c0.3,0,0.7,0.1,1,0.2c0.3,0.1,0.5,0.3,0.8,0.6
	c0.2,0.3,0.4,0.6,0.5,0.9c0.1,0.4,0.2,0.7,0.2,1.1v0.3H146v0.3c0,0.3,0,0.5,0.1,0.8c0.1,0.2,0.2,0.4,0.4,0.6
	c0.2,0.2,0.3,0.3,0.6,0.4c0.2,0.1,0.5,0.2,0.8,0.1c0.8,0,1.5-0.4,1.7-1.1l0.5,0.3c-0.2,0.4-0.5,0.8-0.8,1
	C148.8,111,148.3,111.1,147.8,111.1z M147.8,105.8c-0.3,0-0.5,0-0.7,0.2c-0.2,0.1-0.4,0.2-0.6,0.4c-0.2,0.2-0.3,0.4-0.4,0.6
	c-0.1,0.3-0.1,0.5-0.1,0.8v0.1h3.5v-0.1c0-0.3,0-0.5-0.1-0.8c-0.1-0.4-0.5-0.8-0.9-1C148.3,105.8,148,105.8,147.8,105.8L147.8,105.8
	z"/>
<path d="M152.4,111c-0.2,0-0.4-0.1-0.5-0.2c-0.1-0.1-0.2-0.3-0.2-0.5v-7.5h0.6v7.6h0.9v0.5H152.4z"/>
<path d="M155,103.8c-0.1,0-0.2,0-0.3-0.1c-0.1-0.1-0.1-0.2-0.1-0.3v-0.1c0-0.2,0.2-0.4,0.4-0.4c0,0,0,0,0.1,0c0.1,0,0.2,0,0.3,0.1
	c0.1,0.1,0.1,0.2,0.1,0.3v0.1c0,0.1,0,0.2-0.1,0.3C155.2,103.8,155.1,103.8,155,103.8z M154.7,105.4h0.6v5.6h-0.6V105.4z"/>
<path d="M157.3,111v-5.6h0.6v0.9l0,0c0.1-0.3,0.3-0.5,0.6-0.7c0.3-0.2,0.7-0.3,1.1-0.3c0.5,0,1,0.2,1.4,0.6c0.4,0.4,0.5,1,0.5,1.6
	v3.6h-0.6v-3.5c0-0.5-0.1-0.9-0.4-1.3c-0.3-0.3-0.7-0.4-1.1-0.4c-0.2,0-0.4,0-0.6,0.1c-0.2,0.1-0.3,0.1-0.5,0.2
	c-0.1,0.1-0.3,0.2-0.3,0.4c-0.1,0.2-0.1,0.4-0.1,0.5v4L157.3,111z"/>
<path d="M165.5,111.1c-0.3,0-0.7-0.1-1-0.2c-0.3-0.1-0.6-0.3-0.8-0.6c-0.2-0.3-0.4-0.6-0.5-0.9c-0.1-0.4-0.2-0.8-0.2-1.2
	c0-0.4,0.1-0.8,0.2-1.2c0.1-0.3,0.3-0.7,0.5-0.9c0.2-0.2,0.5-0.4,0.8-0.6c0.3-0.1,0.7-0.2,1-0.2c0.3,0,0.7,0.1,1,0.2
	c0.3,0.1,0.5,0.3,0.8,0.6c0.2,0.3,0.4,0.6,0.5,0.9c0.1,0.4,0.2,0.7,0.2,1.1v0.3h-4.2v0.3c0,0.3,0,0.5,0.1,0.8
	c0.1,0.2,0.2,0.4,0.4,0.6c0.2,0.2,0.4,0.3,0.6,0.4c0.2,0.1,0.5,0.2,0.8,0.1c0.8,0,1.5-0.4,1.7-1.1l0.5,0.3c-0.2,0.4-0.5,0.8-0.8,1
	C166.5,111,166,111.2,165.5,111.1z M165.5,105.8c-0.3,0-0.5,0-0.7,0.2c-0.2,0.1-0.4,0.2-0.6,0.4c-0.2,0.2-0.3,0.4-0.4,0.6
	c-0.1,0.3-0.1,0.5-0.1,0.8v0.1h3.5v-0.1c0-0.3,0-0.5-0.1-0.8c-0.1-0.2-0.2-0.4-0.4-0.6c-0.2-0.2-0.3-0.3-0.5-0.4
	C166,105.8,165.8,105.8,165.5,105.8L165.5,105.8z"/>
<path d="M174.2,111.1c-0.3,0-0.7-0.1-1-0.2c-0.3-0.1-0.6-0.3-0.8-0.6c-0.2-0.3-0.4-0.6-0.5-0.9c-0.1-0.4-0.2-0.8-0.2-1.2
	c0-0.4,0-0.8,0.2-1.2c0.1-0.3,0.3-0.7,0.5-0.9c0.4-0.5,1.1-0.8,1.8-0.8c0.3,0,0.7,0.1,1,0.2c0.3,0.1,0.5,0.3,0.8,0.6
	c0.2,0.3,0.4,0.6,0.5,0.9c0.1,0.4,0.2,0.7,0.2,1.1v0.3h-4.2v0.3c0,0.3,0,0.5,0.1,0.8c0.1,0.2,0.2,0.4,0.4,0.6
	c0.2,0.2,0.3,0.3,0.6,0.4c0.2,0.1,0.5,0.2,0.8,0.1c0.8,0,1.5-0.4,1.7-1.1l0.5,0.3c-0.2,0.4-0.5,0.8-0.8,1
	C175.1,111,174.7,111.2,174.2,111.1z M174.2,105.8c-0.3,0-0.5,0-0.7,0.2c-0.2,0.1-0.4,0.2-0.6,0.4c-0.2,0.2-0.3,0.4-0.4,0.6
	c-0.1,0.3-0.1,0.5-0.1,0.8v0.1h3.5v-0.1c0-0.3,0-0.5-0.1-0.8c-0.1-0.2-0.2-0.4-0.3-0.6c-0.2-0.2-0.3-0.3-0.5-0.4
	C174.6,105.8,174.4,105.8,174.2,105.8L174.2,105.8z"/>
<path d="M177.4,111l2.1-2.8l-2-2.8h0.7l1.6,2.3l0,0l1.6-2.3h0.7l-2,2.8l2.1,2.9h-0.7l-1.7-2.4l0,0l-1.7,2.4H177.4z"/>
<path d="M185.5,111.1c-0.3,0-0.7-0.1-1-0.2c-0.3-0.1-0.6-0.3-0.8-0.6c-0.2-0.3-0.4-0.6-0.5-0.9c-0.1-0.4-0.2-0.8-0.2-1.2
	c0-0.4,0.1-0.8,0.2-1.2c0.1-0.3,0.3-0.7,0.5-0.9c0.2-0.2,0.5-0.4,0.8-0.6c0.3-0.1,0.7-0.2,1-0.2c0.7,0,1.3,0.3,1.7,0.8
	c0.2,0.3,0.4,0.6,0.5,0.9c0.1,0.4,0.2,0.7,0.2,1.1v0.3h-4.2v0.3c0,0.3,0,0.5,0.1,0.8c0.1,0.2,0.2,0.4,0.4,0.6
	c0.2,0.2,0.4,0.3,0.6,0.4c0.2,0.1,0.5,0.2,0.8,0.1c0.8,0,1.5-0.4,1.7-1.1l0.5,0.3c-0.2,0.4-0.5,0.8-0.8,1
	C186.5,111,186,111.2,185.5,111.1z M185.5,105.8c-0.3,0-0.5,0-0.7,0.2c-0.2,0.1-0.4,0.2-0.6,0.4c-0.2,0.2-0.3,0.4-0.4,0.6
	c-0.1,0.3-0.1,0.5-0.1,0.8v0.1h3.5v-0.1c0-0.3,0-0.5-0.1-0.8c-0.1-0.2-0.2-0.4-0.4-0.6c-0.2-0.2-0.3-0.3-0.5-0.4
	C186,105.8,185.8,105.8,185.5,105.8L185.5,105.8z"/>
<path d="M191.5,111.1c-0.7,0-1.4-0.2-1.8-0.8c-0.9-1.3-0.9-3,0-4.3c0.4-0.5,1.1-0.8,1.8-0.8c0.9-0.1,1.7,0.4,2,1.2l-0.5,0.3
	c-0.4-0.8-1.5-1.2-2.3-0.8c-0.2,0.1-0.3,0.2-0.5,0.4c-0.3,0.4-0.5,0.9-0.4,1.4v0.8c0,0.5,0.1,1,0.4,1.4c0.3,0.4,0.8,0.6,1.3,0.6
	c0.7,0,1.3-0.4,1.6-1l0.5,0.3c-0.2,0.4-0.5,0.7-0.8,0.9C192.4,111,192,111.1,191.5,111.1z"/>
<path d="M198.5,110.1L198.5,110.1c-0.1,0.1-0.1,0.3-0.2,0.4c-0.1,0.1-0.2,0.2-0.3,0.3c-0.1,0.1-0.3,0.2-0.5,0.2
	c-0.2,0.1-0.4,0.1-0.6,0.1c-0.5,0-1-0.2-1.4-0.6c-0.4-0.4-0.5-1-0.5-1.6v-3.6h0.6v3.5c0,0.5,0.1,0.9,0.4,1.3
	c0.3,0.3,0.7,0.4,1.1,0.4c0.2,0,0.4,0,0.6-0.1c0.2,0,0.3-0.1,0.5-0.2c0.1-0.1,0.3-0.2,0.3-0.4c0.1-0.2,0.1-0.4,0.1-0.6v-3.9h0.6v5.6
	h-0.6L198.5,110.1z"/>
<path d="M202.2,111c-0.2,0-0.4-0.1-0.5-0.2c-0.1-0.1-0.2-0.3-0.2-0.5v-4.4h-1v-0.5h0.6c0.1,0,0.2,0,0.3-0.1c0.1-0.1,0.1-0.2,0.1-0.3
	v-1.2h0.6v1.6h1.3v0.5h-1.3v4.5h1.2v0.5H202.2z"/>
<path d="M205.2,103.8c-0.1,0-0.2,0-0.3-0.1c-0.1-0.1-0.1-0.2-0.1-0.3v-0.1c0-0.2,0.2-0.4,0.4-0.4c0,0,0,0,0.1,0c0.1,0,0.2,0,0.3,0.1
	c0.1,0.1,0.1,0.2,0.1,0.3v0.1c0,0.1,0,0.2-0.1,0.3C205.4,103.8,205.3,103.8,205.2,103.8z M204.9,105.4h0.6v5.6h-0.6V105.4z"/>
<path d="M209.5,111.1c-0.3,0-0.7-0.1-1-0.2c-0.3-0.1-0.6-0.3-0.8-0.6c-0.2-0.3-0.4-0.6-0.5-0.9c-0.1-0.4-0.2-0.8-0.2-1.2
	c0-0.4,0.1-0.8,0.2-1.2c0.1-0.3,0.3-0.7,0.5-0.9c0.2-0.2,0.5-0.4,0.8-0.6c0.6-0.3,1.4-0.3,2,0c0.3,0.1,0.6,0.3,0.8,0.6
	c0.2,0.3,0.4,0.6,0.5,0.9c0.1,0.4,0.2,0.8,0.2,1.2c0,0.4-0.1,0.8-0.2,1.2c-0.1,0.3-0.3,0.7-0.5,0.9c-0.2,0.2-0.5,0.4-0.8,0.6
	C210.2,111.1,209.9,111.1,209.5,111.1z M209.5,110.6c0.5,0,1-0.2,1.3-0.5c0.3-0.4,0.5-1,0.5-1.5v-0.7c0-0.5-0.1-1.1-0.5-1.5
	c-0.7-0.7-1.9-0.7-2.6,0c-0.3,0.4-0.5,1-0.5,1.5v0.7c0,0.5,0.1,1.1,0.5,1.5C208.6,110.4,209,110.6,209.5,110.6z"/>
<path d="M213.5,111v-5.6h0.6v0.9l0,0c0.1-0.3,0.3-0.5,0.6-0.7c0.3-0.2,0.7-0.3,1.1-0.3c0.5,0,1,0.2,1.4,0.6c0.4,0.4,0.5,1,0.5,1.6
	v3.6h-0.6v-3.5c0-0.5-0.1-0.9-0.4-1.3c-0.3-0.3-0.7-0.4-1.1-0.4c-0.2,0-0.4,0-0.6,0.1c-0.2,0.1-0.3,0.1-0.5,0.2
	c-0.1,0.1-0.3,0.2-0.3,0.4c-0.1,0.2-0.1,0.4-0.1,0.5v4L213.5,111z"/>
<path d="M134,123c-0.2,0-0.4-0.1-0.5-0.2c-0.1-0.1-0.2-0.3-0.2-0.5v-0.2h-0.1c-0.1,0.3-0.3,0.6-0.6,0.8c-0.3,0.2-0.7,0.3-1.1,0.3
	c-0.5,0-1-0.1-1.4-0.4c-0.3-0.3-0.5-0.8-0.5-1.2c0-0.5,0.2-0.9,0.5-1.2c0.5-0.3,1.1-0.5,1.8-0.4h1.3v-0.7c0.1-0.7-0.4-1.3-1.1-1.4
	c-0.1,0-0.2,0-0.3,0c-0.3,0-0.7,0.1-0.9,0.2c-0.3,0.2-0.5,0.4-0.6,0.7l-0.4-0.3c0.2-0.3,0.4-0.6,0.7-0.8c0.4-0.2,0.8-0.3,1.2-0.3
	c0.6,0,1.1,0.1,1.5,0.5c0.4,0.4,0.6,0.9,0.5,1.4v3.3h0.8v0.5H134z M131.6,122.6c0.2,0,0.4,0,0.6-0.1c0.2,0,0.4-0.1,0.5-0.2
	c0.1-0.1,0.3-0.2,0.4-0.4c0.1-0.2,0.1-0.3,0.1-0.5v-1H132c-0.4,0-0.9,0.1-1.2,0.3c-0.2,0.2-0.4,0.4-0.4,0.7v0.3
	c0,0.3,0.1,0.6,0.4,0.8C131,122.5,131.3,122.6,131.6,122.6L131.6,122.6z"/>
<path d="M135.9,123v-5.6h0.6v0.9l0,0c0.1-0.3,0.3-0.5,0.6-0.7c0.8-0.5,1.8-0.4,2.5,0.3c0.4,0.4,0.5,1,0.5,1.6v3.6h-0.6v-3.5
	c0-0.5-0.1-0.9-0.4-1.3c-0.3-0.3-0.7-0.4-1.1-0.4c-0.2,0-0.4,0-0.6,0.1c-0.2,0.1-0.3,0.1-0.5,0.2c-0.1,0.1-0.3,0.2-0.3,0.4
	c-0.1,0.2-0.1,0.4-0.1,0.5v4L135.9,123z"/>
<path d="M145.8,122.1L145.8,122.1c-0.3,0.7-1,1.1-1.7,1c-0.7,0-1.3-0.3-1.7-0.8c-0.8-1.3-0.8-3,0-4.4c0.4-0.5,1-0.8,1.7-0.8
	c0.4,0,0.8,0.1,1.1,0.3c0.3,0.2,0.5,0.4,0.6,0.8l0,0v-3.4h0.6v8.2h-0.6V122.1z M144.2,122.6c0.2,0,0.4,0,0.6-0.1
	c0.2-0.1,0.4-0.1,0.5-0.3c0.1-0.1,0.3-0.2,0.3-0.4c0.1-0.2,0.1-0.4,0.1-0.5v-2.2c0-0.2,0-0.4-0.1-0.5c-0.1-0.2-0.2-0.3-0.3-0.4
	c-0.2-0.1-0.3-0.2-0.5-0.3c-0.2-0.1-0.4-0.1-0.6-0.1c-0.5,0-1,0.2-1.3,0.5c-0.3,0.4-0.5,0.9-0.5,1.4v0.8c0,0.5,0.1,1,0.5,1.4
	C143.2,122.4,143.7,122.6,144.2,122.6z"/>
<path d="M152.7,123.1c-0.4,0-0.9-0.1-1.3-0.3c-0.4-0.2-0.7-0.5-0.9-0.8l0.5-0.4c0.2,0.3,0.5,0.5,0.8,0.7c0.3,0.2,0.7,0.2,1,0.2
	c0.4,0,0.7-0.1,1-0.3c0.2-0.2,0.4-0.5,0.4-0.8c0-0.3-0.1-0.5-0.3-0.7c-0.3-0.2-0.6-0.3-0.9-0.4l-0.5-0.1c-0.2,0-0.5-0.1-0.7-0.2
	c-0.2-0.1-0.4-0.2-0.6-0.3c-0.2-0.1-0.3-0.3-0.4-0.5c-0.1-0.2-0.1-0.4-0.1-0.6c0-0.2,0-0.5,0.1-0.7c0.1-0.2,0.2-0.4,0.4-0.5
	c0.2-0.1,0.4-0.2,0.6-0.3c0.2-0.1,0.5-0.1,0.8-0.1c0.4,0,0.8,0.1,1.1,0.2c0.3,0.2,0.6,0.4,0.8,0.6l-0.4,0.4
	c-0.2-0.2-0.4-0.4-0.6-0.5c-0.3-0.2-0.7-0.2-1-0.2c-0.3,0-0.7,0.1-0.9,0.3c-0.2,0.2-0.3,0.5-0.3,0.8c0,0.3,0.1,0.5,0.3,0.7
	c0.3,0.2,0.6,0.3,0.9,0.3l0.4,0.1c0.5,0,0.9,0.2,1.3,0.5c0.3,0.3,0.4,0.7,0.4,1.1c0,0.5-0.2,0.9-0.5,1.2
	C153.8,123,153.2,123.2,152.7,123.1z"/>
<path d="M158.4,123.1c-0.7,0-1.4-0.2-1.8-0.8c-0.8-1.3-0.8-3,0-4.4c0.8-0.8,2.1-1,3.1-0.4c0.3,0.2,0.6,0.5,0.7,0.9l-0.5,0.3
	c-0.1-0.3-0.3-0.5-0.6-0.7c-0.3-0.2-0.6-0.3-0.9-0.2c-0.5,0-1,0.2-1.3,0.6c-0.3,0.4-0.5,0.9-0.4,1.4v0.8c0,0.5,0.1,1,0.4,1.4
	c0.3,0.4,0.8,0.6,1.3,0.6c0.4,0,0.7-0.1,1-0.2c0.3-0.2,0.5-0.4,0.6-0.7l0.5,0.3c-0.2,0.4-0.4,0.7-0.8,0.9
	C159.3,123,158.8,123.2,158.4,123.1z"/>
<path d="M165.7,123c-0.2,0-0.4-0.1-0.5-0.2c-0.1-0.1-0.2-0.3-0.2-0.5v-0.2h0c-0.1,0.3-0.3,0.6-0.6,0.8c-0.3,0.2-0.7,0.3-1.1,0.3
	c-0.5,0-1-0.1-1.4-0.4c-0.3-0.3-0.5-0.8-0.5-1.2c0-0.5,0.2-0.9,0.5-1.2c0.5-0.3,1.1-0.5,1.8-0.4h1.3v-0.7c0.1-0.7-0.4-1.3-1.1-1.4
	c-0.1,0-0.2,0-0.3,0c-0.3,0-0.6,0.1-0.9,0.2c-0.3,0.2-0.5,0.4-0.6,0.7l-0.4-0.3c0.2-0.3,0.4-0.6,0.7-0.8c0.4-0.2,0.8-0.3,1.2-0.3
	c0.5,0,1.1,0.1,1.5,0.5c0.4,0.4,0.6,0.9,0.5,1.4v3.3h0.8v0.5H165.7z M163.4,122.6c0.2,0,0.4,0,0.6-0.1c0.2,0,0.4-0.1,0.5-0.2
	c0.1-0.1,0.3-0.2,0.4-0.4c0.1-0.2,0.1-0.3,0.1-0.5v-1h-1.3c-0.4,0-0.8,0.1-1.2,0.3c-0.2,0.2-0.4,0.4-0.4,0.7v0.3
	c0,0.3,0.1,0.6,0.4,0.8C162.7,122.5,163,122.6,163.4,122.6z"/>
<path d="M168.3,123c-0.2,0-0.4-0.1-0.5-0.2c-0.1-0.1-0.2-0.3-0.2-0.5v-7.5h0.6v7.6h0.9v0.5H168.3z"/>
<path d="M170.8,115.8c-0.1,0-0.2,0-0.3-0.1c-0.1-0.1-0.1-0.2-0.1-0.3v-0.1c0-0.1,0-0.2,0.1-0.3c0.1-0.1,0.2-0.1,0.3-0.1
	c0.1,0,0.2,0,0.3,0.1c0.1,0.1,0.1,0.2,0.1,0.3v0.1c0,0.1,0,0.2-0.1,0.3C171,115.8,170.9,115.8,170.8,115.8z M170.5,117.4h0.6v5.6
	h-0.6V117.4z"/>
<path d="M173.1,123v-5.6h0.6v0.9l0,0c0.3-0.7,1-1.1,1.7-1c0.5,0,1,0.2,1.4,0.6c0.4,0.4,0.5,1,0.5,1.6v3.6h-0.6v-3.5
	c0-0.5-0.1-0.9-0.4-1.3c-0.3-0.3-0.7-0.4-1.1-0.4c-0.2,0-0.4,0-0.6,0.1c-0.2,0.1-0.3,0.1-0.5,0.2c-0.1,0.1-0.3,0.2-0.3,0.4
	c-0.1,0.2-0.1,0.4-0.1,0.5v4L173.1,123z"/>
<path d="M184,123.7c0,0.5-0.2,1-0.7,1.3c-0.6,0.3-1.3,0.5-2,0.4c-0.6,0-1.3-0.1-1.9-0.4c-0.4-0.2-0.6-0.6-0.6-1
	c0-0.3,0.1-0.6,0.3-0.8c0.2-0.2,0.4-0.3,0.7-0.4v-0.1c-0.3-0.1-0.5-0.4-0.5-0.8c0-0.2,0.1-0.5,0.3-0.6c0.2-0.2,0.4-0.3,0.7-0.3l0,0
	c-0.3-0.1-0.6-0.4-0.8-0.7c-0.2-0.3-0.3-0.7-0.3-1.1c0-0.3,0-0.5,0.1-0.8c0.1-0.2,0.2-0.4,0.4-0.6c0.2-0.2,0.4-0.3,0.6-0.4
	c0.3-0.1,0.6-0.1,0.8-0.1c0.4,0,0.8,0.1,1.1,0.3v-0.3c0-0.1,0-0.3,0.1-0.4c0.1-0.1,0.2-0.2,0.4-0.2h1v0.5h-1.1v0.5
	c0.2,0.2,0.3,0.4,0.4,0.6c0.1,0.3,0.2,0.5,0.1,0.8c0,0.3,0,0.5-0.1,0.8c-0.1,0.2-0.2,0.4-0.4,0.6c-0.2,0.2-0.4,0.3-0.6,0.4
	c-0.3,0.1-0.6,0.1-0.9,0.1c-0.1,0-0.2,0-0.3,0h-0.3c-0.2,0.1-0.4,0.1-0.6,0.3c-0.2,0.1-0.2,0.3-0.2,0.4c0,0.3,0.3,0.5,0.9,0.5h1.3
	c0.5,0,1,0.1,1.5,0.4C183.8,123,184,123.3,184,123.7z M183.4,123.7c0-0.2-0.1-0.5-0.3-0.6c-0.3-0.2-0.6-0.3-1-0.2h-1.8
	c-0.2,0.1-0.4,0.2-0.6,0.4c-0.3,0.4-0.3,1,0.1,1.3c0,0,0,0,0,0c0.3,0.2,0.7,0.3,1.1,0.3h0.7c0.4,0,0.9-0.1,1.3-0.3
	C183.2,124.3,183.4,124,183.4,123.7L183.4,123.7z M181.3,120.5c0.4,0,0.7-0.1,1-0.3c0.3-0.2,0.4-0.6,0.4-0.9V119
	c0-0.3-0.1-0.7-0.4-0.9c-0.6-0.4-1.4-0.4-2,0c-0.2,0.2-0.4,0.6-0.4,0.9v0.4c0,0.3,0.1,0.7,0.4,0.9
	C180.6,120.5,180.9,120.6,181.3,120.5L181.3,120.5z"/>
<path d="M472.1,388.1c-0.8,0-1.6-0.3-2.1-0.9c-1-1.7-1-3.7,0-5.4c1.1-1.2,2.9-1.2,4-0.1c0.1,0,0.1,0.1,0.1,0.1c1,1.7,1,3.7,0,5.4
	C473.7,387.8,472.9,388.2,472.1,388.1z M472.1,387.6c0.3,0,0.6-0.1,0.9-0.2c0.3-0.1,0.5-0.3,0.7-0.5c0.2-0.2,0.4-0.5,0.5-0.8
	c0.1-0.4,0.2-0.7,0.2-1.1v-0.9c0-0.4-0.1-0.8-0.2-1.1c-0.1-0.3-0.2-0.6-0.5-0.8c-0.2-0.2-0.4-0.4-0.7-0.5c-0.6-0.2-1.2-0.2-1.8,0
	c-0.3,0.1-0.5,0.3-0.7,0.5c-0.2,0.2-0.4,0.5-0.5,0.8c-0.1,0.4-0.2,0.7-0.2,1.1v0.9c0,0.4,0,0.8,0.2,1.1c0.1,0.3,0.2,0.6,0.5,0.8
	c0.2,0.2,0.4,0.4,0.7,0.5C471.5,387.6,471.8,387.6,472.1,387.6z"/>
<path d="M476.6,382.9h0.6v0.8l0,0c0.1-0.3,0.3-0.5,0.6-0.7c0.3-0.2,0.6-0.3,1-0.3c0.6,0,1.2,0.2,1.5,0.7c0.8,1.2,0.8,2.8,0,4
	c-0.4,0.5-1,0.7-1.5,0.7c-0.4,0-0.7-0.1-1-0.2c-0.3-0.2-0.5-0.4-0.6-0.7l0,0v2.8h-0.6L476.6,382.9z M478.6,387.6
	c0.5,0,0.9-0.2,1.2-0.5c0.3-0.4,0.4-0.8,0.4-1.3v-0.7c0-0.5-0.1-0.9-0.4-1.3c-0.3-0.3-0.7-0.5-1.2-0.5c-0.2,0-0.4,0-0.6,0.1
	c-0.2,0-0.3,0.1-0.5,0.2c-0.1,0.1-0.2,0.2-0.3,0.4c-0.1,0.1-0.1,0.3-0.1,0.5v2c0,0.2,0,0.3,0.1,0.5c0.1,0.1,0.2,0.3,0.3,0.4
	c0.1,0.1,0.3,0.2,0.5,0.2C478.2,387.6,478.4,387.6,478.6,387.6L478.6,387.6z"/>
<path d="M484.2,388.1c-0.3,0-0.6-0.1-0.9-0.2c-0.3-0.1-0.5-0.3-0.7-0.5c-0.2-0.2-0.4-0.5-0.5-0.9c-0.2-0.7-0.2-1.5,0-2.3
	c0.1-0.3,0.2-0.6,0.5-0.8c0.2-0.2,0.4-0.4,0.7-0.5c0.3-0.1,0.6-0.2,0.9-0.2c0.3,0,0.6,0.1,0.9,0.2c0.3,0.1,0.5,0.3,0.7,0.5
	c0.2,0.2,0.3,0.5,0.4,0.8c0.1,0.3,0.2,0.7,0.2,1v0.3h-3.8v0.2c0,0.2,0,0.5,0.1,0.7c0.1,0.2,0.2,0.4,0.3,0.6c0.1,0.2,0.3,0.3,0.5,0.4
	c0.2,0.1,0.5,0.1,0.7,0.1c0.7,0,1.3-0.4,1.6-1l0.4,0.3c-0.2,0.4-0.4,0.7-0.8,0.9C485,388,484.6,388.1,484.2,388.1z M484.2,383.2
	c-0.2,0-0.5,0-0.7,0.1c-0.2,0.1-0.4,0.2-0.5,0.4c-0.1,0.2-0.3,0.4-0.3,0.6c-0.1,0.2-0.1,0.5-0.1,0.7v0h3.2V385c0-0.3,0-0.5-0.1-0.7
	c-0.1-0.4-0.4-0.7-0.8-0.9C484.6,383.3,484.4,383.2,484.2,383.2L484.2,383.2z"/>
<path d="M487.7,388v-5.1h0.6v0.8l0,0c0.1-0.3,0.3-0.5,0.5-0.7c0.3-0.2,0.6-0.3,1-0.3c0.5,0,0.9,0.2,1.3,0.5c0.3,0.4,0.5,0.9,0.5,1.4
	v3.3H491v-3.2c0-0.4-0.1-0.8-0.3-1.2c-0.3-0.3-0.6-0.4-1-0.4c-0.2,0-0.4,0-0.5,0.1c-0.2,0-0.3,0.1-0.5,0.2c-0.1,0.1-0.2,0.2-0.3,0.4
	c-0.1,0.2-0.1,0.3-0.1,0.5v3.6H487.7z"/>
<path d="M495.2,388.1c-0.5,0-1-0.1-1.4-0.3c-0.4-0.2-0.7-0.5-1-0.9l0.5-0.4c0.2,0.3,0.5,0.6,0.8,0.8c0.4,0.2,0.8,0.3,1.2,0.3
	c0.4,0,0.9-0.1,1.2-0.4c0.3-0.3,0.5-0.7,0.4-1.1c0-0.4-0.1-0.7-0.4-0.9c-0.3-0.2-0.6-0.4-1-0.4l-0.6-0.1c-0.5-0.1-1-0.3-1.5-0.7
	c-0.3-0.3-0.5-0.8-0.5-1.2c0-0.3,0-0.5,0.2-0.8c0.1-0.2,0.2-0.4,0.5-0.6c0.2-0.2,0.5-0.3,0.7-0.4c0.3-0.1,0.6-0.1,0.9-0.1
	c0.5,0,0.9,0.1,1.3,0.3c0.4,0.2,0.7,0.5,0.9,0.8l-0.5,0.3c-0.2-0.3-0.4-0.5-0.7-0.6c-0.3-0.2-0.7-0.2-1.1-0.2
	c-0.4,0-0.8,0.1-1.2,0.3c-0.3,0.2-0.5,0.6-0.4,1c0,0.3,0.1,0.7,0.4,0.9c0.3,0.2,0.6,0.4,1,0.4l0.6,0.1c0.5,0.1,1.1,0.3,1.5,0.7
	c0.3,0.3,0.4,0.8,0.4,1.2c0,0.6-0.2,1.1-0.6,1.5C496.4,388,495.8,388.2,495.2,388.1z"/>
<path d="M499,380.6h0.6v3.1l0,0c0.1-0.3,0.3-0.5,0.5-0.7c0.3-0.2,0.6-0.3,1-0.3c0.5,0,0.9,0.2,1.3,0.5c0.3,0.4,0.5,0.9,0.5,1.4v3.3
	h-0.6v-3.2c0-0.4-0.1-0.8-0.3-1.2c-0.3-0.3-0.6-0.4-1-0.4c-0.2,0-0.4,0-0.5,0.1c-0.2,0-0.3,0.1-0.5,0.2c-0.1,0.1-0.2,0.2-0.3,0.4
	c-0.1,0.2-0.1,0.3-0.1,0.5v3.6H499V380.6z"/>
<path d="M504.9,381.5c-0.2,0-0.4-0.1-0.4-0.3c0,0,0-0.1,0-0.1V381c0-0.2,0.1-0.3,0.3-0.4c0,0,0.1,0,0.1,0c0.1,0,0.2,0,0.3,0.1
	c0.1,0.1,0.1,0.2,0.1,0.3v0.1c0,0.1,0,0.2-0.1,0.3C505.1,381.4,505,381.5,504.9,381.5z M504.6,382.9h0.6v5.1h-0.6V382.9z"/>
<path d="M507.2,383.4h-0.9v-0.5h0.9v-1.4c0-0.2,0.1-0.4,0.2-0.6c0.2-0.2,0.4-0.2,0.6-0.2h0.9v0.5h-1.1v1.8h1.1v0.5h-1.1v4.6h-0.6
	V383.4z"/>
<path d="M511,388c-0.2,0-0.3,0-0.5-0.2c-0.1-0.1-0.2-0.3-0.2-0.5v-4h-0.9v-0.5h0.5c0.1,0,0.2,0,0.3-0.1c0.1-0.1,0.1-0.2,0.1-0.3v-1
	h0.5v1.4h1.2v0.5h-1.2v4.1h1.1v0.4H511z"/>
<path d="M516.1,381.5c-0.2,0-0.4-0.1-0.4-0.3c0,0,0-0.1,0-0.1V381c0-0.2,0.1-0.3,0.3-0.4c0,0,0.1,0,0.1,0c0.1,0,0.2,0,0.3,0.1
	c0.1,0.1,0.1,0.2,0.1,0.3v0.1c0,0.1,0,0.2-0.1,0.3C516.3,381.4,516.2,381.5,516.1,381.5z M515.8,382.9h0.6v5.1h-0.6V382.9z"/>
<path d="M518.2,388v-5.1h0.6v0.8l0,0c0.1-0.3,0.3-0.5,0.5-0.7c0.3-0.2,0.6-0.3,1-0.3c0.5,0,0.9,0.2,1.3,0.5c0.3,0.4,0.5,0.9,0.5,1.4
	v3.3h-0.6v-3.2c0-0.4-0.1-0.8-0.3-1.2c-0.3-0.3-0.6-0.4-1-0.4c-0.2,0-0.4,0-0.5,0.1c-0.2,0-0.3,0.1-0.5,0.2
	c-0.1,0.1-0.2,0.2-0.3,0.4c-0.1,0.2-0.1,0.3-0.1,0.5v3.6H518.2z"/>
<path d="M524.7,388c-0.2,0-0.3-0.1-0.5-0.2c-0.1-0.1-0.2-0.3-0.2-0.5v-4h-0.9v-0.5h0.6c0.1,0,0.2,0,0.3-0.1c0.1-0.1,0.1-0.2,0.1-0.3
	v-1h0.5v1.4h1.2v0.5h-1.2v4.1h1.1v0.4H524.7z"/>
<path d="M529,388.1c-0.3,0-0.6-0.1-0.9-0.2c-0.3-0.1-0.5-0.3-0.7-0.5c-0.2-0.2-0.4-0.5-0.5-0.9c-0.2-0.7-0.2-1.5,0-2.3
	c0.1-0.3,0.2-0.6,0.5-0.8c0.2-0.2,0.4-0.4,0.7-0.5c0.3-0.1,0.6-0.2,0.9-0.2c0.3,0,0.6,0.1,0.9,0.2c0.3,0.1,0.5,0.3,0.7,0.5
	c0.2,0.2,0.3,0.5,0.4,0.8c0.1,0.3,0.2,0.7,0.2,1v0.3h-3.8v0.2c0,0.2,0,0.5,0.1,0.7c0.1,0.2,0.2,0.4,0.3,0.6c0.1,0.2,0.3,0.3,0.5,0.4
	c0.2,0.1,0.5,0.1,0.7,0.1c0.7,0,1.3-0.4,1.5-1l0.4,0.3c-0.1,0.4-0.4,0.7-0.8,0.9C529.9,388,529.4,388.1,529,388.1z M529,383.2
	c-0.2,0-0.5,0-0.7,0.1c-0.2,0.1-0.4,0.2-0.5,0.4c-0.1,0.2-0.3,0.4-0.3,0.6c-0.1,0.2-0.1,0.5-0.1,0.7v0h3.2V385c0-0.3,0-0.5-0.1-0.7
	c-0.1-0.4-0.4-0.7-0.8-0.9C529.4,383.3,529.2,383.2,529,383.2z"/>
<path d="M536.8,388.6c0,0.5-0.2,0.9-0.6,1.1c-0.6,0.3-1.2,0.4-1.8,0.4c-0.6,0-1.2-0.1-1.7-0.3c-0.3-0.2-0.5-0.6-0.5-0.9
	c0-0.3,0.1-0.5,0.2-0.7c0.2-0.2,0.4-0.3,0.6-0.4v-0.1c-0.3-0.1-0.5-0.4-0.5-0.7c0-0.2,0.1-0.4,0.2-0.6c0.2-0.1,0.4-0.2,0.6-0.3l0,0
	c-0.3-0.1-0.5-0.3-0.7-0.6c-0.2-0.3-0.3-0.6-0.2-1c0-0.2,0-0.5,0.1-0.7c0.1-0.2,0.2-0.4,0.4-0.5c0.2-0.2,0.4-0.3,0.6-0.4
	c0.2-0.1,0.5-0.1,0.8-0.1c0.3,0,0.7,0.1,1,0.2v-0.2c0-0.1,0-0.3,0.1-0.4c0.1-0.1,0.2-0.2,0.4-0.1h0.9v0.5h-1v0.5
	c0.2,0.2,0.3,0.3,0.4,0.6c0.1,0.2,0.2,0.5,0.2,0.7c0,0.5-0.2,0.9-0.5,1.3c-0.2,0.2-0.4,0.3-0.6,0.4c-0.2,0.1-0.5,0.1-0.8,0.1h-0.3
	h-0.2c-0.2,0-0.4,0.1-0.5,0.2c-0.1,0.1-0.2,0.2-0.2,0.4c0,0.3,0.3,0.5,0.8,0.5h1.1c0.5,0,0.9,0.1,1.3,0.3
	C536.6,387.9,536.8,388.3,536.8,388.6z M536.2,388.6c0-0.2-0.1-0.4-0.3-0.6c-0.3-0.2-0.6-0.2-0.9-0.2h-1.7c-0.2,0.1-0.4,0.2-0.5,0.3
	c-0.3,0.4-0.2,0.9,0.1,1.2c0,0,0,0,0,0c0.3,0.2,0.6,0.3,1,0.3h0.6c0.4,0,0.8-0.1,1.2-0.2C536.1,389.2,536.2,388.9,536.2,388.6
	L536.2,388.6z M534.3,385.8c0.3,0,0.7-0.1,0.9-0.3c0.2-0.2,0.4-0.5,0.3-0.8v-0.3c0-0.3-0.1-0.6-0.3-0.8c-0.6-0.4-1.3-0.4-1.8,0
	c-0.2,0.2-0.4,0.5-0.3,0.8v0.3c0,0.3,0.1,0.6,0.3,0.8C533.6,385.7,534,385.8,534.3,385.8L534.3,385.8z"/>
<path d="M537.9,388v-5.1h0.6v0.9l0,0c0.1-0.2,0.3-0.5,0.5-0.6c0.3-0.2,0.6-0.3,1-0.3h0.3v0.6h-0.5c-0.4,0-0.7,0.1-1,0.3
	c-0.3,0.2-0.4,0.5-0.4,0.8v3.5H537.9z"/>
<path d="M545,388c-0.2,0-0.4,0-0.5-0.2c-0.1-0.1-0.2-0.3-0.2-0.5v-0.2h0c-0.1,0.3-0.3,0.5-0.5,0.7c-0.7,0.4-1.6,0.3-2.2-0.1
	c-0.3-0.3-0.5-0.7-0.5-1.1c0-0.4,0.2-0.8,0.5-1.1c0.5-0.3,1-0.4,1.6-0.4h1.2v-0.6c0-0.9-0.4-1.3-1.3-1.3c-0.3,0-0.6,0.1-0.8,0.2
	c-0.2,0.2-0.4,0.4-0.5,0.6l-0.4-0.3c0.1-0.3,0.4-0.6,0.6-0.7c0.3-0.2,0.7-0.3,1.1-0.3c0.5,0,1,0.1,1.4,0.5c0.3,0.3,0.5,0.8,0.5,1.3
	v3h0.7v0.5H545z M542.8,387.6c0.2,0,0.4,0,0.6-0.1c0.2-0.1,0.3-0.1,0.5-0.2c0.1-0.1,0.2-0.2,0.3-0.4c0.1-0.1,0.1-0.3,0.1-0.5v-1
	h-1.2c-0.4,0-0.8,0.1-1.1,0.2c-0.2,0.1-0.4,0.4-0.3,0.7v0.2c0,0.3,0.1,0.5,0.3,0.7C542.2,387.6,542.5,387.6,542.8,387.6z"/>
<path d="M547.6,388c-0.2,0-0.3-0.1-0.5-0.2c-0.1-0.1-0.2-0.3-0.2-0.5v-4h-0.9v-0.5h0.6c0.1,0,0.2,0,0.3-0.1c0.1-0.1,0.1-0.2,0.1-0.3
	v-1h0.5v1.4h1.2v0.5h-1.2v4.1h1.1v0.4H547.6z"/>
<path d="M550.4,381.5c-0.1,0-0.2,0-0.3-0.1c-0.1-0.1-0.1-0.2-0.1-0.3V381c0-0.1,0-0.2,0.1-0.3c0.1-0.1,0.2-0.1,0.3-0.1
	c0.1,0,0.2,0,0.3,0.1c0.1,0.1,0.1,0.2,0.1,0.3v0.1c0,0.1,0,0.2-0.1,0.3C550.6,381.4,550.5,381.5,550.4,381.5z M550.1,382.9h0.6v5.1
	h-0.6V382.9z"/>
<path d="M554.3,388.1c-0.3,0-0.6-0.1-0.9-0.2c-0.3-0.1-0.5-0.3-0.7-0.5c-0.2-0.3-0.4-0.5-0.4-0.9c-0.2-0.7-0.2-1.5,0-2.3
	c0.1-0.3,0.2-0.6,0.4-0.8c0.2-0.2,0.4-0.4,0.7-0.5c0.3-0.1,0.6-0.2,0.9-0.2c0.3,0,0.6,0.1,0.9,0.2c0.3,0.1,0.5,0.3,0.7,0.5
	c0.2,0.2,0.4,0.5,0.5,0.8c0.2,0.7,0.2,1.5,0,2.3c-0.1,0.3-0.3,0.6-0.5,0.9c-0.2,0.2-0.4,0.4-0.7,0.5
	C554.9,388.1,554.6,388.1,554.3,388.1z M554.3,387.6c0.4,0,0.9-0.2,1.2-0.5c0.3-0.4,0.5-0.9,0.4-1.4v-0.6c0-0.5-0.1-1-0.4-1.4
	c-0.7-0.6-1.7-0.6-2.4,0c-0.3,0.4-0.5,0.9-0.4,1.4v0.6c0,0.5,0.1,1,0.4,1.4C553.4,387.5,553.9,387.6,554.3,387.6z"/>
<path d="M558,388v-5.1h0.6v0.8l0,0c0.1-0.3,0.3-0.5,0.5-0.7c0.3-0.2,0.6-0.3,1-0.3c0.5,0,1,0.2,1.3,0.5c0.3,0.4,0.5,0.9,0.5,1.4v3.3
	h-0.6v-3.2c0-0.4-0.1-0.8-0.3-1.2c-0.3-0.3-0.6-0.4-1-0.4c-0.2,0-0.4,0-0.5,0.1c-0.2,0-0.3,0.1-0.4,0.2c-0.1,0.1-0.2,0.2-0.3,0.4
	c-0.1,0.2-0.1,0.3-0.1,0.5v3.6H558z"/>
<path d="M483.2,399c-0.2,0-0.4,0-0.5-0.2c-0.1-0.1-0.2-0.3-0.2-0.5v-0.2h0c-0.1,0.3-0.3,0.5-0.6,0.7c-0.7,0.4-1.6,0.3-2.2-0.1
	c-0.3-0.3-0.5-0.7-0.4-1.1c0-0.4,0.2-0.8,0.5-1.1c0.5-0.3,1-0.5,1.6-0.4h1.2v-0.6c0.1-0.6-0.4-1.2-1-1.3c-0.1,0-0.2,0-0.3,0
	c-0.6,0-1.1,0.3-1.4,0.8l-0.4-0.3c0.1-0.3,0.4-0.6,0.6-0.7c0.3-0.2,0.7-0.3,1.1-0.3c0.5,0,1,0.1,1.4,0.5c0.3,0.3,0.5,0.8,0.5,1.3v3
	h0.7v0.5H483.2z M481,398.6c0.2,0,0.4,0,0.6-0.1c0.2,0,0.3-0.1,0.5-0.2c0.1-0.1,0.2-0.2,0.3-0.4c0.1-0.1,0.1-0.3,0.1-0.5v-1h-1.2
	c-0.4,0-0.8,0.1-1.1,0.2c-0.2,0.1-0.4,0.4-0.4,0.7v0.2c0,0.3,0.1,0.5,0.3,0.7C480.5,398.6,480.7,398.6,481,398.6z"/>
<path d="M485,399v-5.1h0.6v0.8l0,0c0.1-0.3,0.3-0.5,0.5-0.7c0.3-0.2,0.6-0.3,1-0.3c0.5,0,0.9,0.2,1.3,0.5c0.3,0.4,0.5,0.9,0.5,1.4
	v3.3h-0.6v-3.2c0-0.4-0.1-0.8-0.3-1.2c-0.3-0.3-0.6-0.4-1-0.4c-0.2,0-0.4,0-0.5,0.1c-0.2,0-0.3,0.1-0.4,0.2
	c-0.1,0.1-0.2,0.2-0.3,0.4c-0.1,0.2-0.1,0.3-0.1,0.5v3.6H485z"/>
<path d="M493.9,398.2L493.9,398.2c-0.1,0.3-0.3,0.5-0.6,0.7c-0.3,0.2-0.6,0.3-1,0.2c-0.6,0-1.2-0.2-1.5-0.7c-0.8-1.2-0.8-2.8,0-4
	c0.4-0.5,1-0.7,1.5-0.7c0.4,0,0.7,0.1,1,0.3c0.3,0.2,0.5,0.4,0.6,0.7l0,0v-3.1h0.6v7.4h-0.6V398.2z M492.4,398.6
	c0.2,0,0.4,0,0.6-0.1c0.2,0,0.3-0.1,0.5-0.2c0.1-0.1,0.2-0.2,0.3-0.4c0.1-0.1,0.1-0.3,0.1-0.5v-2c0-0.2,0-0.3-0.1-0.5
	c-0.1-0.1-0.2-0.3-0.3-0.4c-0.1-0.1-0.3-0.2-0.5-0.2c-0.2-0.1-0.4-0.1-0.6-0.1c-0.5,0-0.9,0.2-1.2,0.5c-0.3,0.4-0.5,0.8-0.4,1.3v0.7
	c0,0.5,0.1,0.9,0.4,1.3C491.6,398.5,492,398.6,492.4,398.6z"/>
<path d="M500.5,399.1c-0.3,0-0.6-0.1-0.9-0.2c-0.3-0.1-0.5-0.3-0.7-0.5c-0.2-0.3-0.4-0.5-0.5-0.9c-0.2-0.7-0.2-1.5,0-2.3
	c0.1-0.3,0.3-0.6,0.5-0.8c0.2-0.2,0.4-0.4,0.7-0.5c0.6-0.3,1.3-0.3,1.8,0c0.3,0.1,0.5,0.3,0.7,0.5c0.2,0.3,0.4,0.5,0.5,0.8
	c0.2,0.7,0.2,1.5,0,2.3c-0.1,0.3-0.2,0.6-0.5,0.9c-0.2,0.2-0.4,0.4-0.7,0.5C501.2,399.1,500.8,399.1,500.5,399.1z M500.5,398.6
	c0.4,0,0.9-0.2,1.2-0.5c0.3-0.4,0.5-0.9,0.4-1.4v-0.6c0-0.5-0.1-1-0.4-1.4c-0.7-0.6-1.7-0.6-2.4,0c-0.3,0.4-0.5,0.9-0.4,1.4v0.6
	c0,0.5,0.1,1,0.4,1.4C499.7,398.5,500.1,398.6,500.5,398.6z"/>
<path d="M504.2,393.9h0.6v0.8l0,0c0.1-0.3,0.3-0.5,0.6-0.7c0.3-0.2,0.6-0.3,1-0.3c0.6,0,1.2,0.2,1.5,0.7c0.8,1.2,0.8,2.8,0,4
	c-0.4,0.5-1,0.7-1.5,0.7c-0.4,0-0.7-0.1-1-0.2c-0.3-0.2-0.5-0.4-0.6-0.7l0,0v2.8h-0.6L504.2,393.9z M506.2,398.6
	c0.5,0,0.9-0.2,1.2-0.5c0.3-0.4,0.5-0.8,0.4-1.3v-0.7c0-0.5-0.1-0.9-0.4-1.3c-0.3-0.3-0.7-0.5-1.2-0.5c-0.2,0-0.4,0-0.6,0.1
	c-0.2,0-0.3,0.1-0.5,0.2c-0.1,0.1-0.2,0.2-0.3,0.4c-0.1,0.1-0.1,0.3-0.1,0.5v2c0,0.2,0,0.3,0.1,0.5c0.1,0.1,0.2,0.3,0.3,0.4
	c0.1,0.1,0.3,0.2,0.5,0.2C505.8,398.6,506,398.6,506.2,398.6L506.2,398.6z"/>
<path d="M510.8,399c-0.3,0-0.6-0.2-0.6-0.5c0,0,0-0.1,0-0.1v-4h-0.9v-0.5h0.6c0.1,0,0.2,0,0.3-0.1c0.1-0.1,0.1-0.2,0.1-0.3v-1h0.5
	v1.4h1.2v0.5h-1.2v4.1h1.1v0.4H510.8z"/>
<path d="M513.6,392.5c-0.1,0-0.2,0-0.3-0.1c-0.1-0.1-0.1-0.2-0.1-0.3V392c0-0.1,0-0.2,0.1-0.3c0.1-0.1,0.2-0.1,0.3-0.1
	c0.1,0,0.2,0,0.3,0.1c0.1,0.1,0.1,0.2,0.1,0.3v0.1c0,0.1,0,0.2-0.1,0.3C513.8,392.4,513.7,392.5,513.6,392.5z M513.3,393.9h0.6v5.1
	h-0.6V393.9z"/>
<path d="M515.7,399v-5.1h0.6v0.8l0,0c0.1-0.1,0.1-0.2,0.2-0.4c0.1-0.1,0.2-0.2,0.3-0.3c0.1-0.1,0.3-0.2,0.4-0.2
	c0.2,0,0.4-0.1,0.5-0.1c0.4,0,0.7,0.1,1,0.3c0.3,0.2,0.5,0.5,0.6,0.8l0,0c0.1-0.3,0.3-0.6,0.5-0.8c0.3-0.2,0.7-0.3,1.1-0.3
	c0.5,0,0.9,0.2,1.3,0.5c0.3,0.4,0.5,0.9,0.4,1.4v3.3h-0.6v-3.2c0-1-0.4-1.5-1.3-1.5c-0.2,0-0.3,0-0.5,0.1c-0.2,0-0.3,0.1-0.4,0.2
	c-0.1,0.1-0.2,0.2-0.3,0.4c-0.1,0.2-0.1,0.3-0.1,0.5v3.6h-0.6v-3.2c0-1-0.4-1.5-1.3-1.5c-0.2,0-0.3,0-0.5,0.1
	c-0.2,0-0.3,0.1-0.4,0.2c-0.1,0.1-0.2,0.2-0.3,0.4c-0.1,0.2-0.1,0.3-0.1,0.5v3.6H515.7z"/>
<path d="M524.8,392.5c-0.1,0-0.2,0-0.3-0.1c-0.1-0.1-0.1-0.2-0.1-0.3V392c0-0.1,0-0.2,0.1-0.3c0.2-0.1,0.4-0.1,0.6,0
	c0.1,0.1,0.1,0.2,0.1,0.3v0.1c0,0.1,0,0.2-0.1,0.3C525,392.4,524.9,392.5,524.8,392.5z M524.5,393.9h0.5v5.1h-0.6L524.5,393.9z"/>
<path d="M526.2,399v-0.5l3.1-4.1h-3v-0.5h3.7v0.4l-3.1,4.2h3.2v0.5H526.2z"/>
<path d="M534.9,399c-0.2,0-0.4,0-0.5-0.2c-0.1-0.1-0.2-0.3-0.2-0.5v-0.2h0c-0.1,0.3-0.3,0.5-0.6,0.7c-0.7,0.4-1.6,0.3-2.2-0.1
	c-0.3-0.3-0.5-0.7-0.4-1.1c0-0.4,0.2-0.8,0.5-1.1c0.5-0.3,1-0.5,1.6-0.4h1.2v-0.6c0.1-0.6-0.4-1.2-1-1.3c-0.1,0-0.2,0-0.3,0
	c-0.6,0-1.1,0.3-1.4,0.8l-0.4-0.3c0.1-0.3,0.4-0.6,0.7-0.7c0.3-0.2,0.7-0.3,1.1-0.3c0.5,0,1,0.1,1.4,0.5c0.3,0.3,0.5,0.8,0.5,1.3v3
	h0.7v0.5H534.9z M532.7,398.6c0.2,0,0.4,0,0.6-0.1c0.2,0,0.3-0.1,0.5-0.2c0.1-0.1,0.3-0.2,0.3-0.4c0.1-0.1,0.1-0.3,0.1-0.5v-1H533
	c-0.4,0-0.8,0.1-1.1,0.2c-0.2,0.1-0.4,0.4-0.3,0.7v0.2c0,0.3,0.1,0.5,0.3,0.7C532.1,398.6,532.4,398.6,532.7,398.6z"/>
<path d="M537.5,399c-0.3,0-0.6-0.2-0.6-0.5c0,0,0-0.1,0-0.1v-4H536v-0.5h0.6c0.1,0,0.2,0,0.3-0.1c0.1-0.1,0.1-0.2,0.1-0.3v-1h0.5
	v1.4h1.2v0.5h-1.2v4.1h1.1v0.4H537.5z"/>
<path d="M540.2,392.5c-0.1,0-0.2,0-0.3-0.1c-0.1-0.1-0.1-0.2-0.1-0.3V392c0-0.1,0-0.2,0.1-0.3c0.2-0.1,0.4-0.1,0.6,0
	c0.1,0.1,0.1,0.2,0.1,0.3v0.1c0,0.1,0,0.2-0.1,0.3C540.5,392.4,540.4,392.5,540.2,392.5z M540,393.9h0.6v5.1H540L540,393.9z"/>
<path d="M544.2,399.1c-0.3,0-0.6-0.1-0.9-0.2c-0.3-0.1-0.5-0.3-0.7-0.5c-0.2-0.3-0.4-0.5-0.5-0.9c-0.2-0.7-0.2-1.5,0-2.3
	c0.1-0.3,0.3-0.6,0.5-0.8c0.2-0.2,0.4-0.4,0.7-0.5c0.6-0.3,1.3-0.3,1.8,0c0.3,0.1,0.5,0.3,0.7,0.5c0.2,0.3,0.4,0.5,0.5,0.8
	c0.2,0.7,0.2,1.5,0,2.3c-0.1,0.3-0.2,0.6-0.5,0.9c-0.2,0.2-0.4,0.4-0.7,0.5C544.8,399.1,544.5,399.1,544.2,399.1z M544.2,398.6
	c0.4,0,0.9-0.2,1.2-0.5c0.3-0.4,0.5-0.9,0.4-1.4v-0.6c0-0.5-0.1-1-0.4-1.4c-0.7-0.6-1.7-0.6-2.4,0c-0.3,0.4-0.5,0.9-0.4,1.4v0.6
	c0,0.5,0.1,1,0.4,1.4C543.3,398.5,543.7,398.6,544.2,398.6z"/>
<path d="M547.8,399v-5.1h0.6v0.8l0,0c0.1-0.3,0.3-0.5,0.6-0.7c0.3-0.2,0.6-0.3,1-0.3c0.5,0,0.9,0.2,1.3,0.5c0.3,0.4,0.5,0.9,0.5,1.4
	v3.3h-0.6v-3.2c0-0.4-0.1-0.8-0.3-1.2c-0.3-0.3-0.6-0.4-1-0.4c-0.2,0-0.4,0-0.5,0.1c-0.2,0-0.3,0.1-0.5,0.2
	c-0.1,0.1-0.2,0.2-0.3,0.4c-0.1,0.2-0.1,0.3-0.1,0.5v3.6H547.8z"/>
<path d="M587.4,387.1c-0.5,0-1-0.1-1.4-0.3c-0.4-0.2-0.7-0.5-1-0.9l0.5-0.4c0.2,0.3,0.5,0.6,0.8,0.8c0.4,0.2,0.7,0.3,1.2,0.3
	c0.4,0,0.9-0.1,1.2-0.4c0.3-0.3,0.5-0.7,0.4-1.1c0-0.4-0.1-0.7-0.4-0.9c-0.3-0.2-0.6-0.4-1-0.4l-0.6-0.1c-0.5-0.1-1-0.3-1.5-0.7
	c-0.3-0.3-0.5-0.8-0.5-1.2c0-0.3,0.1-0.5,0.2-0.8c0.1-0.2,0.3-0.4,0.5-0.6c0.2-0.2,0.5-0.3,0.7-0.4c0.3-0.1,0.6-0.1,0.9-0.1
	c0.5,0,0.9,0.1,1.3,0.3c0.4,0.2,0.7,0.5,0.9,0.8l-0.5,0.3c-0.2-0.3-0.4-0.5-0.7-0.6c-0.3-0.2-0.7-0.2-1.1-0.2
	c-0.4,0-0.8,0.1-1.2,0.3c-0.3,0.2-0.5,0.6-0.4,1c0,0.3,0.1,0.7,0.4,0.9c0.3,0.2,0.6,0.3,1,0.4l0.6,0.1c0.5,0.1,1.1,0.3,1.5,0.7
	c0.3,0.3,0.4,0.8,0.4,1.2c0,0.6-0.2,1.1-0.6,1.5C588.6,387,588,387.2,587.4,387.1z"/>
<path d="M592.9,387.1c-0.3,0-0.6-0.1-0.9-0.2c-0.3-0.1-0.5-0.3-0.7-0.5c-0.2-0.2-0.4-0.5-0.5-0.9c-0.2-0.7-0.2-1.5,0-2.3
	c0.1-0.3,0.2-0.6,0.5-0.8c0.2-0.2,0.4-0.4,0.7-0.5c0.3-0.1,0.6-0.2,0.9-0.2c0.3,0,0.6,0.1,0.9,0.2c0.3,0.1,0.5,0.3,0.7,0.5
	c0.2,0.2,0.3,0.5,0.4,0.8c0.1,0.3,0.2,0.7,0.2,1v0.3h-3.8v0.2c0,0.2,0,0.5,0.1,0.7c0.1,0.2,0.2,0.4,0.3,0.6c0.1,0.2,0.3,0.3,0.5,0.4
	c0.2,0.1,0.5,0.1,0.7,0.1c0.7,0,1.3-0.4,1.5-1l0.4,0.3c-0.2,0.4-0.4,0.7-0.8,0.9C593.8,387,593.4,387.1,592.9,387.1z M592.9,382.2
	c-0.2,0-0.5,0-0.7,0.1c-0.4,0.2-0.7,0.5-0.8,1c-0.1,0.2-0.1,0.5-0.1,0.7v0h3.2V384c0-0.3,0-0.5-0.1-0.7c-0.1-0.4-0.4-0.7-0.8-0.9
	C593.4,382.3,593.1,382.2,592.9,382.2L592.9,382.2z"/>
<path d="M596.5,387v-5.1h0.6v0.9l0,0c0.3-0.6,0.9-1,1.5-0.9h0.4v0.6h-0.5c-0.4,0-0.7,0.1-1,0.3c-0.3,0.2-0.4,0.5-0.4,0.8v3.5H596.5z
	"/>
<path d="M599.4,381.9h0.6l1.6,4.5l0,0l1.6-4.5h0.6l-1.8,5.1h-0.7L599.4,381.9z"/>
<path d="M606.7,387.1c-0.3,0-0.6-0.1-0.9-0.2c-0.3-0.1-0.5-0.3-0.7-0.5c-0.2-0.2-0.4-0.5-0.5-0.9c-0.2-0.7-0.2-1.5,0-2.3
	c0.1-0.3,0.2-0.6,0.5-0.8c0.2-0.2,0.4-0.4,0.7-0.5c0.3-0.1,0.6-0.2,0.9-0.2c0.3,0,0.6,0.1,0.9,0.2c0.3,0.1,0.5,0.3,0.7,0.5
	c0.2,0.2,0.3,0.5,0.4,0.8c0.1,0.3,0.2,0.7,0.2,1v0.3h-3.8v0.2c0,0.2,0,0.5,0.1,0.7c0.1,0.2,0.2,0.4,0.3,0.6c0.1,0.2,0.3,0.3,0.5,0.4
	c0.2,0.1,0.5,0.1,0.7,0.1c0.7,0,1.3-0.4,1.5-1l0.4,0.3c-0.2,0.4-0.4,0.7-0.8,0.9C607.6,387,607.1,387.1,606.7,387.1z M606.7,382.2
	c-0.2,0-0.5,0-0.7,0.1c-0.4,0.2-0.7,0.5-0.8,1c-0.1,0.2-0.1,0.5-0.1,0.7v0h3.2V384c0-0.3,0-0.5-0.1-0.7c-0.1-0.4-0.4-0.7-0.8-0.9
	C607.1,382.3,606.9,382.2,606.7,382.2L606.7,382.2z"/>
<path d="M610.2,387v-5.1h0.6v0.9l0,0c0.3-0.6,0.9-1,1.5-0.9h0.3v0.6h-0.5c-0.4,0-0.7,0.1-1,0.3c-0.3,0.2-0.4,0.5-0.4,0.8v3.5H610.2z
	"/>
<path d="M614.5,387c-0.3,0-0.6-0.2-0.6-0.5c0,0,0-0.1,0-0.1v-6.8h0.6v6.9h0.8v0.5H614.5z"/>
<path d="M618.3,387.1c-0.3,0-0.6-0.1-0.9-0.2c-0.3-0.1-0.5-0.3-0.7-0.5c-0.2-0.2-0.4-0.5-0.5-0.9c-0.2-0.7-0.2-1.5,0-2.3
	c0.1-0.3,0.2-0.6,0.5-0.8c0.2-0.2,0.4-0.4,0.7-0.5c0.3-0.1,0.6-0.2,0.9-0.2c0.3,0,0.6,0.1,0.9,0.2c0.3,0.1,0.5,0.3,0.7,0.5
	c0.2,0.2,0.3,0.5,0.4,0.8c0.1,0.3,0.2,0.7,0.2,1v0.3h-3.8v0.2c0,0.2,0,0.5,0.1,0.7c0.1,0.2,0.2,0.4,0.3,0.6c0.1,0.2,0.3,0.3,0.5,0.4
	c0.2,0.1,0.5,0.1,0.7,0.1c0.7,0,1.3-0.4,1.5-1l0.4,0.3c-0.2,0.4-0.4,0.7-0.8,0.9C619.2,387,618.8,387.1,618.3,387.1z M618.3,382.2
	c-0.2,0-0.5,0-0.7,0.1c-0.4,0.2-0.7,0.5-0.8,1c-0.1,0.2-0.1,0.5-0.1,0.7v0h3.2V384c0-0.3,0-0.5-0.1-0.7c-0.1-0.4-0.4-0.7-0.8-0.9
	C618.8,382.3,618.5,382.2,618.3,382.2L618.3,382.2z"/>
<path d="M623.3,387.1c-0.4,0-0.8-0.1-1.1-0.2c-0.3-0.2-0.6-0.4-0.8-0.7l0.4-0.3c0.2,0.3,0.4,0.5,0.7,0.6c0.3,0.1,0.6,0.2,0.9,0.2
	c0.3,0,0.6-0.1,0.9-0.2c0.4-0.4,0.4-1,0.1-1.4c-0.2-0.2-0.5-0.3-0.8-0.3l-0.4-0.1c-0.2,0-0.4-0.1-0.6-0.1c-0.2-0.1-0.3-0.2-0.5-0.3
	c-0.1-0.1-0.3-0.3-0.3-0.4c-0.1-0.2-0.1-0.4-0.1-0.6c0-0.2,0-0.4,0.1-0.6c0.1-0.2,0.2-0.3,0.4-0.5c0.2-0.1,0.4-0.2,0.5-0.3
	c0.2-0.1,0.5-0.1,0.7-0.1c0.4,0,0.7,0.1,1,0.2c0.3,0.1,0.5,0.3,0.7,0.6l-0.4,0.4c-0.1-0.2-0.3-0.3-0.5-0.4c-0.3-0.2-0.6-0.2-0.9-0.2
	c-0.3,0-0.6,0.1-0.8,0.2c-0.2,0.2-0.3,0.4-0.3,0.7c0,0.3,0.1,0.5,0.3,0.6c0.2,0.2,0.5,0.3,0.8,0.3l0.4,0.1c0.4,0,0.8,0.2,1.2,0.5
	c0.3,0.3,0.4,0.6,0.4,1c0,0.4-0.2,0.8-0.5,1.1C624.3,387,623.8,387.2,623.3,387.1z"/>
<path d="M628.1,387.1c-0.4,0-0.8-0.1-1.1-0.2c-0.3-0.2-0.6-0.4-0.8-0.7l0.4-0.3c0.2,0.3,0.4,0.5,0.7,0.6c0.3,0.1,0.6,0.2,0.9,0.2
	c0.3,0,0.6-0.1,0.9-0.2c0.4-0.4,0.4-1,0.1-1.4c-0.2-0.2-0.5-0.3-0.8-0.3l-0.4-0.1c-0.2,0-0.4-0.1-0.6-0.1c-0.2-0.1-0.3-0.2-0.5-0.3
	c-0.1-0.1-0.3-0.3-0.3-0.4c-0.1-0.2-0.1-0.4-0.1-0.6c0-0.2,0-0.4,0.1-0.6c0.1-0.2,0.2-0.3,0.4-0.5c0.2-0.1,0.4-0.2,0.5-0.3
	c0.2-0.1,0.5-0.1,0.7-0.1c0.4,0,0.7,0.1,1,0.2c0.3,0.1,0.5,0.3,0.7,0.6l-0.4,0.4c-0.1-0.2-0.3-0.3-0.5-0.4c-0.3-0.2-0.6-0.2-0.9-0.2
	c-0.3,0-0.6,0.1-0.8,0.2c-0.2,0.2-0.3,0.4-0.3,0.7c0,0.3,0.1,0.5,0.3,0.6c0.2,0.2,0.5,0.3,0.8,0.3l0.4,0.1c0.4,0,0.8,0.2,1.2,0.5
	c0.3,0.3,0.4,0.6,0.4,1c0,0.4-0.2,0.8-0.5,1.1C629,387,628.6,387.2,628.1,387.1z"/>
<path d="M633.2,381.9h0.6l1.2,4.6l0,0l1.4-4.6h0.5l1.4,4.6l0,0l1.2-4.6h0.6l-1.4,5.1h-0.7l-1.3-4.3l0,0l-1.3,4.3h-0.7L633.2,381.9z"
	/>
<path d="M641.6,380.5c-0.1,0-0.2,0-0.3-0.1c-0.1-0.1-0.1-0.2-0.1-0.3V380c0-0.1,0-0.2,0.1-0.3c0.1-0.1,0.2-0.1,0.3-0.1
	c0.1,0,0.2,0,0.3,0.1c0.1,0.1,0.1,0.2,0.1,0.3v0.1c0,0.1,0,0.2-0.1,0.3C641.8,380.4,641.7,380.5,641.6,380.5z M641.3,381.9h0.6v5.1
	h-0.6V381.9z"/>
<path d="M644.5,387c-0.3,0-0.6-0.2-0.6-0.5c0,0,0-0.1,0-0.1v-4H643v-0.5h0.6c0.1,0,0.2,0,0.3-0.1c0.1-0.1,0.1-0.2,0.1-0.3v-1h0.5
	v1.4h1.2v0.5h-1.2v4.1h1.1v0.4H644.5z"/>
<path d="M647,379.6h0.6v3.1l0,0c0.1-0.3,0.3-0.5,0.5-0.7c0.3-0.2,0.6-0.3,1-0.3c0.5,0,0.9,0.2,1.3,0.5c0.3,0.4,0.5,0.9,0.5,1.4v3.3
	h-0.6v-3.2c0-0.4-0.1-0.8-0.3-1.2c-0.3-0.3-0.6-0.4-1-0.4c-0.2,0-0.4,0-0.5,0.1c-0.2,0-0.3,0.1-0.4,0.2c-0.1,0.1-0.2,0.2-0.3,0.4
	c-0.1,0.2-0.1,0.3-0.1,0.5v3.6H647V379.6z"/>
<path d="M654.7,387v-0.5h1v-6h-1V380h2.6v0.5h-1v6h1v0.5H654.7z"/>
<path d="M659,380h2.7c0.9-0.1,1.7,0.6,1.8,1.4c0,0.1,0,0.2,0,0.3c0,0.2,0,0.4-0.1,0.6c-0.1,0.2-0.1,0.3-0.2,0.4
	c-0.1,0.1-0.2,0.2-0.3,0.3c-0.1,0.1-0.3,0.1-0.4,0.1l0,0c0.2,0,0.3,0.1,0.5,0.1c0.2,0.1,0.3,0.2,0.4,0.3c0.1,0.1,0.2,0.3,0.3,0.5
	c0.1,0.2,0.1,0.5,0.1,0.7c0,0.3,0,0.5-0.1,0.8c-0.1,0.2-0.2,0.4-0.4,0.6c-0.2,0.2-0.3,0.3-0.6,0.4c-0.2,0.1-0.5,0.1-0.7,0.1h-3
	L659,380z M659.6,383.1h2.1c0.3,0,0.6-0.1,0.9-0.3c0.2-0.2,0.3-0.5,0.3-0.8v-0.4c0-0.3-0.1-0.6-0.3-0.8c-0.2-0.2-0.6-0.3-0.9-0.3
	h-2.1V383.1z M659.6,386.4h2.2c0.6,0.1,1.2-0.4,1.3-1c0-0.1,0-0.1,0-0.2v-0.4c0-0.3-0.1-0.6-0.3-0.9c-0.3-0.2-0.6-0.4-1-0.3h-2.2
	L659.6,386.4z"/>
<path d="M670.8,380.8L670.8,380.8l-2.4,4.3l-2.4-4.3l0,0v6.2h-0.6v-7h0.8l2.2,3.9l0,0l2.2-3.9h0.8v7h-0.6L670.8,380.8z"/>
<path d="M590.2,398.1c-0.8,0-1.5-0.3-2-0.9c-0.5-0.8-0.8-1.7-0.7-2.7c-0.1-1,0.2-1.9,0.7-2.7c0.5-0.6,1.2-1,2-0.9
	c0.5,0,1,0.1,1.4,0.4c0.4,0.3,0.7,0.7,0.9,1.1l-0.5,0.3c-0.1-0.4-0.4-0.7-0.7-0.9c-0.8-0.6-2-0.4-2.7,0.4c-0.4,0.6-0.6,1.3-0.5,2
	v0.8c0,0.7,0.1,1.4,0.5,2c0.4,0.5,0.9,0.7,1.5,0.7c0.4,0,0.8-0.1,1.2-0.4c0.3-0.3,0.6-0.6,0.7-1l0.5,0.3c-0.2,0.5-0.5,0.9-0.9,1.1
	C591.2,398,590.7,398.1,590.2,398.1z"/>
<path d="M594.5,398c-0.3,0-0.6-0.2-0.6-0.5c0,0,0-0.1,0-0.1v-6.8h0.6v6.9h0.8v0.5H594.5z"/>
<path d="M598.4,398.1c-0.3,0-0.6-0.1-0.9-0.2c-0.3-0.1-0.5-0.3-0.7-0.5c-0.2-0.3-0.4-0.5-0.5-0.9c-0.2-0.7-0.2-1.5,0-2.3
	c0.1-0.3,0.3-0.6,0.5-0.8c0.2-0.2,0.4-0.4,0.7-0.5c0.3-0.1,0.6-0.2,0.9-0.2c0.3,0,0.6,0.1,0.9,0.2c0.3,0.1,0.5,0.3,0.7,0.5
	c0.2,0.2,0.4,0.5,0.5,0.8c0.2,0.7,0.2,1.5,0,2.3c-0.1,0.3-0.2,0.6-0.5,0.9c-0.2,0.2-0.4,0.4-0.7,0.5
	C599,398.1,598.7,398.1,598.4,398.1z M598.4,397.6c0.4,0,0.9-0.2,1.2-0.5c0.3-0.4,0.5-0.9,0.4-1.4v-0.6c0-0.5-0.1-1-0.4-1.4
	c-0.7-0.6-1.7-0.6-2.4,0c-0.3,0.4-0.5,0.9-0.4,1.4v0.6c0,0.5,0.1,1,0.4,1.4C597.5,397.5,597.9,397.6,598.4,397.6z"/>
<path d="M605.2,397.2L605.2,397.2c0,0.1-0.1,0.2-0.2,0.4c-0.1,0.1-0.2,0.2-0.3,0.3c-0.1,0.1-0.3,0.2-0.4,0.2
	c-0.2,0.1-0.4,0.1-0.6,0.1c-0.5,0-0.9-0.2-1.3-0.5c-0.3-0.4-0.5-0.9-0.5-1.5v-3.3h0.6v3.2c0,0.4,0.1,0.8,0.3,1.2
	c0.3,0.3,0.6,0.4,1,0.4c0.2,0,0.4,0,0.5-0.1c0.2,0,0.3-0.1,0.4-0.2c0.1-0.1,0.2-0.2,0.3-0.4c0.1-0.2,0.1-0.3,0.1-0.5v-3.6h0.6v5.1
	h-0.6L605.2,397.2z"/>
<path d="M611,397.2L611,397.2c-0.1,0.3-0.3,0.5-0.6,0.7c-0.3,0.2-0.6,0.3-1,0.2c-0.6,0-1.2-0.2-1.5-0.7c-0.8-1.2-0.8-2.8,0-4
	c0.4-0.5,1-0.7,1.5-0.7c0.4,0,0.7,0.1,1,0.3c0.3,0.2,0.5,0.4,0.6,0.7l0,0v-3.1h0.6v7.4H611V397.2z M609.5,397.6c0.2,0,0.4,0,0.6-0.1
	c0.2,0,0.3-0.1,0.5-0.2c0.1-0.1,0.2-0.2,0.3-0.4c0.1-0.1,0.1-0.3,0.1-0.5v-2c0-0.2,0-0.3-0.1-0.5c-0.1-0.1-0.2-0.3-0.3-0.4
	c-0.1-0.1-0.3-0.2-0.5-0.2c-0.2-0.1-0.4-0.1-0.6-0.1c-0.5,0-0.9,0.2-1.2,0.5c-0.3,0.4-0.4,0.8-0.4,1.3v0.7c0,0.5,0.1,0.9,0.4,1.3
	C608.6,397.5,609.1,397.6,609.5,397.6L609.5,397.6z"/>
<path d="M618.2,398.1c-0.8,0-1.5-0.3-2-0.9c-0.5-0.8-0.8-1.7-0.7-2.7c-0.1-1,0.2-1.9,0.7-2.7c0.5-0.6,1.2-1,2-0.9
	c0.5,0,1,0.1,1.4,0.4c0.4,0.3,0.7,0.7,0.9,1.1l-0.5,0.3c-0.1-0.4-0.4-0.7-0.7-0.9c-0.8-0.6-2-0.4-2.7,0.4c-0.4,0.6-0.6,1.3-0.5,2
	v0.8c0,0.7,0.1,1.4,0.5,2c0.4,0.5,0.9,0.7,1.5,0.7c0.4,0,0.8-0.1,1.2-0.4c0.3-0.3,0.6-0.6,0.7-1l0.5,0.3c-0.2,0.5-0.5,0.9-0.9,1.1
	C619.2,398,618.7,398.1,618.2,398.1z"/>
<path d="M623.8,398.1c-0.3,0-0.6-0.1-0.9-0.2c-0.3-0.1-0.5-0.3-0.7-0.5c-0.2-0.3-0.4-0.5-0.5-0.9c-0.2-0.7-0.2-1.5,0-2.3
	c0.1-0.3,0.3-0.6,0.5-0.8c0.2-0.2,0.4-0.4,0.7-0.5c0.3-0.1,0.6-0.2,0.9-0.2c0.3,0,0.6,0.1,0.9,0.2c0.3,0.1,0.5,0.3,0.7,0.5
	c0.2,0.2,0.4,0.5,0.5,0.8c0.2,0.7,0.2,1.5,0,2.3c-0.1,0.3-0.2,0.6-0.5,0.9c-0.2,0.2-0.4,0.4-0.7,0.5
	C624.4,398.1,624.1,398.1,623.8,398.1z M623.8,397.6c0.4,0,0.9-0.2,1.2-0.5c0.3-0.4,0.5-0.9,0.4-1.4v-0.6c0-0.5-0.1-1-0.4-1.4
	c-0.7-0.6-1.7-0.6-2.4,0c-0.3,0.4-0.5,0.9-0.4,1.4v0.6c0,0.5,0.1,1,0.4,1.4C622.9,397.5,623.3,397.6,623.8,397.6z"/>
<path d="M630.7,397.2L630.7,397.2c-0.1,0.3-0.3,0.5-0.6,0.7c-0.3,0.2-0.6,0.3-1,0.2c-0.6,0-1.2-0.2-1.5-0.7c-0.8-1.2-0.8-2.8,0-4
	c0.4-0.5,1-0.7,1.5-0.7c0.4,0,0.7,0.1,1,0.3c0.3,0.2,0.5,0.4,0.6,0.7l0,0v-3.1h0.6v7.4h-0.6V397.2z M629.3,397.6
	c0.2,0,0.4,0,0.6-0.1c0.2,0,0.3-0.1,0.5-0.2c0.1-0.1,0.2-0.2,0.3-0.4c0.1-0.1,0.1-0.3,0.1-0.5v-2c0-0.2,0-0.3-0.1-0.5
	c-0.1-0.1-0.2-0.3-0.3-0.4c-0.1-0.1-0.3-0.2-0.5-0.2c-0.2-0.1-0.4-0.1-0.6-0.1c-0.5,0-0.9,0.2-1.2,0.5c-0.3,0.4-0.5,0.8-0.4,1.3v0.7
	c0,0.5,0.1,0.9,0.4,1.3C628.4,397.5,628.8,397.6,629.3,397.6L629.3,397.6z"/>
<path d="M635,398.1c-0.3,0-0.6-0.1-0.9-0.2c-0.3-0.1-0.5-0.3-0.7-0.5c-0.2-0.2-0.4-0.5-0.5-0.9c-0.2-0.7-0.2-1.5,0-2.3
	c0.1-0.3,0.2-0.6,0.5-0.8c0.2-0.2,0.4-0.4,0.7-0.5c0.3-0.1,0.6-0.2,0.9-0.2c0.3,0,0.6,0.1,0.9,0.2c0.3,0.1,0.5,0.3,0.7,0.5
	c0.2,0.2,0.3,0.5,0.4,0.8c0.1,0.3,0.2,0.7,0.2,1v0.3h-3.8v0.2c0,0.2,0,0.5,0.1,0.7c0.1,0.2,0.2,0.4,0.3,0.6c0.1,0.2,0.3,0.3,0.5,0.4
	c0.2,0.1,0.5,0.1,0.7,0.1c0.7,0,1.3-0.4,1.5-1l0.4,0.3c-0.2,0.4-0.4,0.7-0.8,0.9C635.9,398,635.4,398.1,635,398.1z M635,393.2
	c-0.2,0-0.5,0-0.7,0.1c-0.4,0.2-0.7,0.5-0.8,1c-0.1,0.2-0.1,0.5-0.1,0.7v0h3.2V395c0-0.3,0-0.5-0.1-0.7c-0.1-0.4-0.4-0.7-0.8-0.9
	C635.4,393.3,635.2,393.2,635,393.2z"/>
<path d="M641,398v-7h4.1v0.5h-3.5v2.6h3.3v0.5h-3.3v2.8h3.5v0.5H641z"/>
<path d="M646.7,398v-5.1h0.6v0.8l0,0c0.1-0.3,0.3-0.5,0.5-0.7c0.3-0.2,0.6-0.3,1-0.3c0.5,0,0.9,0.2,1.3,0.5c0.3,0.4,0.5,0.9,0.5,1.4
	v3.3H650v-3.2c0-0.4-0.1-0.8-0.3-1.2c-0.3-0.3-0.6-0.4-1-0.4c-0.2,0-0.4,0-0.5,0.1c-0.2,0-0.3,0.1-0.4,0.2c-0.1,0.1-0.2,0.2-0.3,0.4
	c-0.1,0.2-0.1,0.3-0.1,0.5v3.6H646.7z"/>
<path d="M656.5,398.6c0,0.5-0.2,0.9-0.6,1.1c-0.6,0.3-1.2,0.4-1.8,0.4c-0.6,0-1.2-0.1-1.7-0.3c-0.3-0.2-0.5-0.6-0.5-0.9
	c0-0.3,0.1-0.5,0.2-0.7c0.2-0.2,0.4-0.3,0.7-0.4v-0.1c-0.3-0.1-0.5-0.4-0.5-0.7c0-0.2,0.1-0.4,0.2-0.6c0.2-0.1,0.4-0.2,0.6-0.3l0,0
	c-0.3-0.1-0.5-0.3-0.7-0.6c-0.2-0.3-0.3-0.6-0.2-1c0-0.2,0-0.5,0.1-0.7c0.1-0.2,0.2-0.4,0.4-0.5c0.2-0.2,0.4-0.3,0.6-0.4
	c0.2-0.1,0.5-0.1,0.8-0.1c0.3,0,0.7,0.1,1,0.2v-0.2c0-0.1,0-0.3,0.1-0.4c0.1-0.1,0.2-0.2,0.4-0.1h0.9v0.5h-1v0.5
	c0.2,0.2,0.3,0.3,0.4,0.6c0.3,0.7,0.2,1.5-0.4,2c-0.2,0.2-0.4,0.3-0.6,0.4c-0.2,0.1-0.5,0.1-0.8,0.1h-0.3h-0.3
	c-0.2,0-0.4,0.1-0.5,0.2c-0.1,0.1-0.2,0.2-0.2,0.4c0,0.3,0.3,0.5,0.8,0.5h1.2c0.5,0,1,0.1,1.3,0.3
	C656.4,398,656.5,398.3,656.5,398.6z M656,398.6c0-0.2-0.1-0.4-0.3-0.6c-0.3-0.2-0.7-0.3-1-0.2H653c-0.2,0.1-0.4,0.2-0.5,0.3
	c-0.3,0.4-0.2,0.9,0.1,1.2c0,0,0,0,0,0c0.3,0.2,0.6,0.3,1,0.3h0.6c0.4,0,0.8-0.1,1.2-0.2C655.8,399.2,656,399,656,398.6L656,398.6z
	 M654,395.8c0.3,0,0.7-0.1,0.9-0.3c0.2-0.2,0.3-0.5,0.3-0.8v-0.3c0-0.3-0.1-0.6-0.3-0.8c-0.3-0.2-0.6-0.3-0.9-0.3
	c-0.3,0-0.7,0.1-0.9,0.3c-0.2,0.2-0.4,0.5-0.3,0.8v0.3c0,0.3,0.1,0.6,0.3,0.8C653.3,395.7,653.7,395.8,654,395.8z"/>
<path d="M657.8,391.5c-0.1,0-0.2,0-0.3-0.1c-0.1-0.1-0.1-0.2-0.1-0.3V391c0-0.1,0-0.2,0.1-0.3c0.1-0.1,0.2-0.1,0.3-0.1
	c0.1,0,0.2,0,0.3,0.1c0.1,0.1,0.1,0.2,0.1,0.3v0.1c0,0.1,0,0.2-0.1,0.3C658.1,391.4,658,391.5,657.8,391.5z M657.6,392.9h0.6v5.1
	h-0.6V392.9z"/>
<path d="M660,398v-5.1h0.6v0.8l0,0c0.1-0.3,0.3-0.5,0.5-0.7c0.3-0.2,0.6-0.3,1-0.3c0.5,0,0.9,0.2,1.3,0.5c0.3,0.4,0.5,0.9,0.5,1.4
	v3.3h-0.6v-3.2c0-0.4-0.1-0.8-0.3-1.2c-0.3-0.3-0.6-0.4-1-0.4c-0.2,0-0.4,0-0.5,0.1c-0.2,0-0.3,0.1-0.4,0.2
	c-0.1,0.1-0.2,0.2-0.3,0.4c-0.1,0.2-0.1,0.3-0.1,0.5v3.6H660z"/>
<path d="M667.4,398.1c-0.3,0-0.6-0.1-0.9-0.2c-0.3-0.1-0.5-0.3-0.7-0.5c-0.2-0.2-0.4-0.5-0.5-0.9c-0.2-0.7-0.2-1.5,0-2.3
	c0.1-0.3,0.2-0.6,0.5-0.8c0.2-0.2,0.4-0.4,0.7-0.5c0.3-0.1,0.6-0.2,0.9-0.2c0.3,0,0.6,0.1,0.9,0.2c0.3,0.1,0.5,0.3,0.7,0.5
	c0.2,0.2,0.3,0.5,0.4,0.8c0.1,0.3,0.2,0.7,0.2,1v0.3h-3.8v0.2c0,0.2,0,0.5,0.1,0.7c0.1,0.2,0.2,0.4,0.3,0.6c0.1,0.2,0.3,0.3,0.5,0.4
	c0.2,0.1,0.5,0.1,0.7,0.1c0.7,0,1.3-0.4,1.5-1l0.4,0.3c-0.2,0.4-0.4,0.7-0.8,0.9C668.3,398,667.9,398.1,667.4,398.1z M667.4,393.2
	c-0.2,0-0.5,0-0.7,0.1c-0.4,0.2-0.7,0.5-0.8,1c-0.1,0.2-0.1,0.5-0.1,0.7v0h3.2V395c0-0.3,0-0.5-0.1-0.7c-0.1-0.4-0.4-0.7-0.8-0.9
	C667.8,393.3,667.6,393.2,667.4,393.2L667.4,393.2z"/>
<path d="M129.2,297.3h2.4c0.9,0,1.7,0.3,2.3,1c1.1,1.8,1.1,4,0,5.8c-0.6,0.7-1.4,1-2.3,1h-2.4V297.3z M131.7,304.4
	c0.7,0,1.3-0.2,1.8-0.7c0.4-0.6,0.7-1.3,0.6-2v-1c0-0.7-0.2-1.4-0.6-2c-0.4-0.5-1.1-0.8-1.8-0.7h-1.8v6.5L131.7,304.4z"/>
<path d="M138.6,305.1c-0.3,0-0.7-0.1-1-0.2c-0.3-0.1-0.6-0.3-0.8-0.6c-0.2-0.3-0.4-0.6-0.5-0.9c-0.1-0.4-0.2-0.8-0.2-1.2
	c0-0.4,0-0.8,0.2-1.2c0.1-0.3,0.3-0.7,0.5-0.9c0.2-0.2,0.5-0.4,0.8-0.6c0.3-0.1,0.7-0.2,1-0.2c0.3,0,0.7,0.1,1,0.2
	c0.3,0.1,0.5,0.3,0.8,0.6c0.2,0.3,0.4,0.6,0.5,0.9c0.1,0.4,0.2,0.7,0.2,1.1v0.3h-4.2v0.3c0,0.3,0,0.5,0.1,0.8
	c0.1,0.2,0.2,0.4,0.4,0.6c0.2,0.2,0.3,0.3,0.6,0.4c0.2,0.1,0.5,0.2,0.8,0.1c0.8,0,1.5-0.4,1.7-1.1l0.5,0.3c-0.2,0.4-0.5,0.8-0.8,1
	C139.5,305,139.1,305.2,138.6,305.1z M138.6,299.8c-0.3,0-0.5,0-0.7,0.1c-0.2,0.1-0.4,0.2-0.6,0.4c-0.2,0.2-0.3,0.4-0.4,0.6
	c-0.1,0.3-0.1,0.5-0.1,0.8v0h3.5v-0.1c0-0.3,0-0.5-0.1-0.8c-0.1-0.2-0.2-0.4-0.3-0.6c-0.2-0.2-0.3-0.3-0.5-0.4
	C139,299.8,138.8,299.8,138.6,299.8L138.6,299.8z"/>
<path d="M142.5,299.4h0.6v0.9l0,0c0.1-0.3,0.4-0.6,0.6-0.8c0.3-0.2,0.7-0.3,1.1-0.3c0.7,0,1.3,0.2,1.7,0.8c0.8,1.3,0.8,3,0,4.4
	c-0.4,0.5-1,0.8-1.7,0.8c-0.4,0-0.7-0.1-1.1-0.3c-0.3-0.2-0.5-0.4-0.6-0.8l0,0v3.1h-0.6V299.4z M144.8,304.6c0.5,0,1-0.2,1.3-0.5
	c0.3-0.4,0.5-0.9,0.5-1.5v-0.8c0-0.5-0.1-1-0.5-1.5c-0.3-0.4-0.8-0.6-1.3-0.5c-0.2,0-0.4,0-0.6,0.1c-0.2,0.1-0.4,0.1-0.5,0.3
	c-0.1,0.1-0.3,0.2-0.3,0.4c-0.1,0.2-0.1,0.3-0.1,0.5v2.2c0,0.2,0,0.4,0.1,0.5c0.1,0.2,0.2,0.3,0.3,0.4c0.2,0.1,0.3,0.2,0.5,0.3
	C144.4,304.5,144.6,304.6,144.8,304.6z"/>
<path d="M149.6,305c-0.2,0-0.4-0.1-0.5-0.2c-0.1-0.1-0.2-0.3-0.2-0.5v-7.5h0.6v7.6h0.9v0.5H149.6z"/>
<path d="M153.8,305.1c-0.3,0-0.7-0.1-1-0.2c-0.3-0.1-0.6-0.3-0.8-0.6c-0.2-0.3-0.4-0.6-0.5-0.9c-0.1-0.4-0.2-0.8-0.2-1.2
	c0-0.4,0.1-0.8,0.2-1.2c0.1-0.3,0.2-0.7,0.5-0.9c0.2-0.2,0.5-0.4,0.8-0.6c0.6-0.3,1.4-0.3,2,0c0.3,0.1,0.6,0.3,0.8,0.6
	c0.2,0.3,0.4,0.6,0.5,0.9c0.1,0.4,0.2,0.8,0.2,1.2c0,0.4-0.1,0.8-0.2,1.2c-0.1,0.3-0.3,0.7-0.5,0.9c-0.2,0.2-0.5,0.4-0.8,0.6
	C154.5,305.1,154.1,305.1,153.8,305.1z M153.8,304.6c0.5,0,1-0.2,1.3-0.5c0.3-0.4,0.5-1,0.5-1.5v-0.7c0-0.5-0.1-1.1-0.5-1.5
	c-0.3-0.4-0.8-0.5-1.3-0.5c-0.5,0-1,0.2-1.3,0.5c-0.3,0.4-0.5,1-0.5,1.5v0.7c0,0.5,0.1,1.1,0.5,1.5
	C152.8,304.4,153.3,304.6,153.8,304.6z"/>
<path d="M161.2,299.4h0.6l-2.6,7.2c-0.1,0.2-0.2,0.4-0.3,0.5c-0.2,0.1-0.4,0.1-0.6,0.1h-0.6v-0.5h0.9l0.5-1.5l-2.1-5.8h0.7l1.7,5
	l0,0L161.2,299.4z"/>
<path d="M169.6,305c-0.2,0-0.4,0-0.5-0.2c-0.1-0.1-0.2-0.3-0.2-0.5v-0.2h-0.1c-0.1,0.3-0.3,0.6-0.6,0.8c-0.3,0.2-0.7,0.3-1.1,0.3
	c-0.5,0-1-0.1-1.4-0.4c-0.3-0.3-0.5-0.8-0.5-1.2c0-0.5,0.2-0.9,0.5-1.2c0.5-0.3,1.1-0.5,1.8-0.4h1.3v-0.7c0-0.9-0.5-1.4-1.4-1.4
	c-0.3,0-0.7,0.1-0.9,0.2c-0.3,0.2-0.5,0.4-0.6,0.7l-0.4-0.3c0.2-0.3,0.4-0.6,0.7-0.8c0.4-0.2,0.8-0.3,1.2-0.3c0.6,0,1.1,0.1,1.5,0.5
	c0.4,0.4,0.6,0.9,0.5,1.4v3.3h0.8v0.5H169.6z M167.2,304.6c0.2,0,0.4,0,0.6-0.1c0.2,0,0.4-0.1,0.5-0.2c0.1-0.1,0.3-0.2,0.4-0.4
	c0.1-0.2,0.1-0.3,0.1-0.5v-1.1h-1.3c-0.4,0-0.9,0.1-1.2,0.3c-0.2,0.2-0.4,0.4-0.4,0.7v0.3c0,0.3,0.1,0.6,0.4,0.8
	C166.5,304.5,166.8,304.6,167.2,304.6z"/>
<path d="M171.4,305v-5.6h0.6v0.9l0,0c0.3-0.7,0.9-1.1,1.7-1c0.5,0,1,0.2,1.4,0.5c0.4,0.4,0.5,1,0.5,1.6v3.6H175v-3.5
	c0-0.5-0.1-0.9-0.4-1.3c-0.3-0.3-0.7-0.4-1.1-0.4c-0.2,0-0.4,0-0.6,0.1c-0.2,0.1-0.3,0.1-0.5,0.2c-0.1,0.1-0.3,0.2-0.3,0.4
	c-0.1,0.2-0.1,0.4-0.1,0.5v4L171.4,305z"/>
<path d="M181.3,304.1L181.3,304.1c-0.1,0.3-0.4,0.6-0.6,0.8c-0.3,0.2-0.7,0.3-1.1,0.3c-0.7,0-1.3-0.2-1.7-0.8c-0.8-1.3-0.8-3,0-4.4
	c0.4-0.5,1-0.8,1.7-0.8c0.4,0,0.8,0.1,1.1,0.3c0.3,0.2,0.5,0.4,0.6,0.8l0,0v-3.4h0.6v8.1h-0.6V304.1z M179.7,304.6
	c0.2,0,0.4,0,0.6-0.1c0.2,0,0.4-0.1,0.5-0.3c0.3-0.2,0.5-0.6,0.5-0.9V301c0-0.2,0-0.4-0.1-0.5c-0.1-0.2-0.2-0.3-0.4-0.4
	c-0.2-0.1-0.3-0.2-0.5-0.3c-0.2-0.1-0.4-0.1-0.6-0.1c-0.5,0-1,0.2-1.3,0.5c-0.3,0.4-0.5,0.9-0.5,1.5v0.8c0,0.5,0.1,1,0.5,1.5
	C178.7,304.4,179.2,304.6,179.7,304.6z"/>
<path d="M129.5,309.8c-0.1,0-0.2,0-0.3-0.1c-0.1-0.1-0.1-0.2-0.1-0.3v-0.1c0-0.1,0-0.2,0.1-0.3c0.1-0.1,0.2-0.1,0.3-0.1
	c0.1,0,0.2,0,0.3,0.1c0.1,0.1,0.1,0.2,0.1,0.3v0.1c0,0.1,0,0.2-0.1,0.3C129.7,309.8,129.6,309.8,129.5,309.8z M129.2,311.4h0.6v5.6
	h-0.6V311.4z"/>
<path d="M131.8,317v-5.6h0.6v0.9l0,0c0.3-0.7,0.9-1.1,1.7-1c0.5,0,1,0.2,1.4,0.5c0.4,0.4,0.5,1,0.5,1.6v3.6h-0.6v-3.5
	c0-0.5-0.1-0.9-0.4-1.3c-0.3-0.3-0.7-0.4-1.1-0.4c-0.2,0-0.4,0-0.6,0.1c-0.2,0.1-0.3,0.1-0.5,0.2c-0.1,0.1-0.3,0.2-0.3,0.4
	c-0.1,0.2-0.1,0.4-0.1,0.5v4L131.8,317z"/>
<path d="M139,317c-0.2,0-0.4-0.1-0.5-0.2c-0.1-0.1-0.2-0.3-0.2-0.5v-4.4h-1v-0.5h0.7c0.1,0,0.2,0,0.3-0.1c0.1-0.1,0.1-0.2,0.1-0.3
	v-1.1h0.6v1.6h1.3v0.5H139v4.5h1.2v0.5H139z"/>
<path d="M143.7,317.1c-0.3,0-0.7-0.1-1-0.2c-0.3-0.1-0.6-0.3-0.8-0.6c-0.2-0.3-0.4-0.6-0.5-0.9c-0.1-0.4-0.2-0.8-0.2-1.2
	c0-0.4,0.1-0.8,0.2-1.2c0.1-0.3,0.3-0.7,0.5-0.9c0.2-0.2,0.5-0.4,0.8-0.6c0.3-0.1,0.7-0.2,1-0.2c0.3,0,0.7,0.1,1,0.2
	c0.3,0.1,0.5,0.3,0.7,0.6c0.2,0.3,0.4,0.6,0.5,0.9c0.1,0.4,0.2,0.7,0.2,1.1v0.3h-4.2v0.3c0,0.3,0,0.5,0.1,0.8
	c0.1,0.2,0.2,0.4,0.4,0.6c0.2,0.2,0.4,0.3,0.6,0.4c0.2,0.1,0.5,0.2,0.8,0.1c0.8,0,1.5-0.4,1.7-1.1l0.5,0.3c-0.2,0.4-0.5,0.8-0.8,1
	C144.7,317,144.2,317.2,143.7,317.1z M143.7,311.8c-0.3,0-0.5,0-0.7,0.1c-0.2,0.1-0.4,0.2-0.6,0.4c-0.2,0.2-0.3,0.4-0.4,0.6
	c-0.1,0.3-0.1,0.5-0.1,0.8v0h3.5v-0.1c0-0.3,0-0.5-0.1-0.8c-0.1-0.2-0.2-0.4-0.4-0.6c-0.2-0.2-0.3-0.3-0.5-0.4
	C144.2,311.8,143.9,311.8,143.7,311.8L143.7,311.8z"/>
<path d="M152.3,317.7c0,0.5-0.2,1-0.7,1.3c-0.6,0.3-1.3,0.5-2,0.4c-0.6,0-1.3-0.1-1.9-0.4c-0.4-0.2-0.6-0.6-0.6-1
	c0-0.3,0.1-0.6,0.3-0.8c0.2-0.2,0.4-0.4,0.7-0.4v-0.1c-0.3-0.1-0.5-0.4-0.5-0.8c0-0.2,0.1-0.5,0.3-0.6c0.2-0.2,0.4-0.3,0.7-0.3l0,0
	c-0.3-0.1-0.6-0.4-0.8-0.7c-0.2-0.3-0.3-0.7-0.3-1.1c0-0.3,0-0.5,0.1-0.8c0.1-0.2,0.2-0.4,0.4-0.6c0.2-0.2,0.4-0.3,0.6-0.4
	c0.3-0.1,0.6-0.1,0.8-0.1c0.4,0,0.8,0.1,1.1,0.3v-0.3c0-0.1,0-0.3,0.1-0.4c0.1-0.1,0.2-0.2,0.4-0.2h1v0.5H151v0.5
	c0.2,0.2,0.3,0.4,0.4,0.6c0.1,0.2,0.2,0.5,0.2,0.8c0,0.3,0,0.5-0.1,0.8c-0.1,0.2-0.2,0.4-0.4,0.6c-0.2,0.2-0.4,0.3-0.6,0.4
	c-0.3,0.1-0.6,0.1-0.8,0.1h-0.3H149c-0.2,0.1-0.4,0.1-0.6,0.3c-0.2,0.1-0.2,0.3-0.2,0.5c0,0.3,0.3,0.5,0.9,0.5h1.3
	c0.5,0,1,0.1,1.5,0.4C152.1,317,152.3,317.3,152.3,317.7z M151.7,317.7c0-0.2-0.1-0.5-0.3-0.6c-0.3-0.2-0.6-0.3-1-0.2h-1.8
	c-0.2,0.1-0.4,0.2-0.6,0.4c-0.3,0.4-0.3,1,0.1,1.3c0,0,0,0,0,0c0.3,0.2,0.7,0.3,1.1,0.3h0.7c0.4,0,0.9-0.1,1.3-0.3
	C151.5,318.3,151.7,318,151.7,317.7L151.7,317.7z M149.6,314.5c0.4,0,0.7-0.1,1-0.3c0.3-0.2,0.4-0.6,0.4-0.9V313
	c0-0.3-0.1-0.7-0.4-0.9c-0.3-0.2-0.6-0.3-1-0.3c-0.4,0-0.7,0.1-1,0.3c-0.2,0.2-0.4,0.6-0.4,0.9v0.4c0,0.3,0.1,0.7,0.4,0.9
	C148.9,314.5,149.2,314.6,149.6,314.5L149.6,314.5z"/>
<path d="M153.6,317v-5.6h0.6v1l0,0c0.1-0.3,0.3-0.5,0.6-0.7c0.3-0.2,0.7-0.3,1.1-0.3h0.4v0.6h-0.5c-0.4,0-0.8,0.1-1.2,0.3
	c-0.3,0.2-0.5,0.5-0.4,0.9v3.8H153.6z"/>
<path d="M161.3,317c-0.2,0-0.4-0.1-0.5-0.2c-0.1-0.1-0.2-0.3-0.2-0.5v-0.2h-0.1c-0.1,0.3-0.3,0.6-0.6,0.8c-0.3,0.2-0.7,0.3-1.1,0.3
	c-0.5,0-1-0.1-1.4-0.4c-0.3-0.3-0.5-0.8-0.5-1.2c0-0.5,0.2-0.9,0.5-1.2c0.5-0.3,1.1-0.5,1.8-0.4h1.3v-0.7c0-0.9-0.5-1.4-1.4-1.4
	c-0.7,0-1.3,0.3-1.5,0.9l-0.4-0.3c0.2-0.3,0.4-0.6,0.7-0.8c0.4-0.2,0.8-0.3,1.2-0.3c0.6,0,1.1,0.1,1.5,0.5c0.4,0.4,0.6,0.9,0.5,1.4
	v3.3h0.8v0.5H161.3z M158.9,316.6c0.2,0,0.4,0,0.6-0.1c0.2,0,0.4-0.1,0.5-0.2c0.1-0.1,0.3-0.2,0.4-0.4c0.1-0.2,0.1-0.3,0.1-0.5v-1.1
	h-1.3c-0.4,0-0.9,0.1-1.2,0.3c-0.2,0.2-0.4,0.4-0.4,0.7v0.3c0,0.3,0.1,0.6,0.4,0.8C158.3,316.5,158.6,316.6,158.9,316.6z"/>
<path d="M164.2,317c-0.2,0-0.4-0.1-0.5-0.2c-0.1-0.1-0.2-0.3-0.2-0.5v-4.4h-1v-0.5h0.6c0.1,0,0.2,0,0.3-0.1c0.1-0.1,0.1-0.2,0.1-0.3
	v-1.1h0.6v1.6h1.3v0.5h-1.3v4.5h1.2v0.5H164.2z"/>
<path d="M167.8,317c-0.2,0-0.4-0.1-0.5-0.2c-0.1-0.1-0.2-0.3-0.2-0.5v-4.4h-1v-0.5h0.6c0.1,0,0.2,0,0.3-0.1c0.1-0.1,0.1-0.2,0.1-0.3
	v-1.1h0.6v1.6h1.3v0.5h-1.3v4.5h1.2v0.5H167.8z"/>
<path d="M172.5,317.1c-0.3,0-0.7-0.1-1-0.2c-0.3-0.1-0.6-0.3-0.8-0.6c-0.2-0.3-0.4-0.6-0.5-0.9c-0.1-0.4-0.2-0.8-0.2-1.2
	c0-0.4,0.1-0.8,0.2-1.2c0.1-0.3,0.3-0.7,0.5-0.9c0.2-0.2,0.5-0.4,0.8-0.6c0.3-0.1,0.7-0.2,1-0.2c0.3,0,0.7,0.1,1,0.2
	c0.3,0.1,0.5,0.3,0.8,0.6c0.2,0.3,0.4,0.6,0.5,0.9c0.1,0.4,0.2,0.7,0.2,1.1v0.3h-4.2v0.3c0,0.3,0,0.5,0.1,0.8
	c0.1,0.2,0.2,0.4,0.4,0.6c0.2,0.2,0.4,0.3,0.6,0.4c0.2,0.1,0.5,0.2,0.8,0.1c0.8,0,1.4-0.4,1.7-1.1l0.5,0.3c-0.2,0.4-0.5,0.8-0.8,1
	C173.4,317,173,317.2,172.5,317.1z M172.5,311.8c-0.3,0-0.5,0-0.7,0.1c-0.2,0.1-0.4,0.2-0.6,0.4c-0.2,0.2-0.3,0.4-0.4,0.6
	c-0.1,0.3-0.1,0.5-0.1,0.8v0h3.5v-0.1c0-0.3,0-0.5-0.1-0.8c-0.1-0.2-0.2-0.4-0.3-0.6c-0.2-0.2-0.3-0.3-0.5-0.4
	C172.9,311.8,172.7,311.8,172.5,311.8L172.5,311.8z"/>
<path d="M182.9,317c-0.2,0-0.4-0.1-0.5-0.2c-0.1-0.1-0.2-0.3-0.2-0.5v-0.2h-0.1c-0.1,0.3-0.3,0.6-0.6,0.8c-0.8,0.4-1.7,0.3-2.5-0.2
	c-0.3-0.3-0.5-0.8-0.5-1.2c0-0.5,0.2-0.9,0.5-1.2c0.5-0.3,1.1-0.5,1.8-0.4h1.3v-0.7c0-0.9-0.5-1.4-1.4-1.4c-0.3,0-0.7,0.1-0.9,0.2
	c-0.3,0.2-0.5,0.4-0.6,0.7l-0.4-0.3c0.2-0.3,0.4-0.6,0.7-0.8c0.4-0.2,0.8-0.3,1.2-0.3c0.6,0,1.1,0.1,1.5,0.5
	c0.4,0.4,0.6,0.9,0.5,1.4v3.3h0.8v0.5H182.9z M180.5,316.6c0.2,0,0.4,0,0.6-0.1c0.2-0.1,0.4-0.1,0.5-0.2c0.1-0.1,0.3-0.2,0.4-0.4
	c0.1-0.2,0.1-0.3,0.1-0.5v-1.1h-1.3c-0.4,0-0.9,0.1-1.2,0.3c-0.2,0.2-0.4,0.4-0.4,0.7v0.3c0,0.3,0.1,0.6,0.4,0.8
	C179.9,316.5,180.2,316.6,180.5,316.6L180.5,316.6z"/>
<path d="M184.8,317v-5.6h0.6v0.9l0,0c0.1-0.3,0.3-0.5,0.6-0.7c0.3-0.2,0.7-0.3,1.1-0.3c0.5,0,1,0.2,1.4,0.5c0.4,0.4,0.5,1,0.5,1.6
	v3.6h-0.6v-3.5c0-0.5-0.1-0.9-0.4-1.3c-0.3-0.3-0.7-0.4-1.1-0.4c-0.2,0-0.4,0-0.6,0.1c-0.2,0.1-0.3,0.1-0.5,0.2
	c-0.1,0.1-0.3,0.2-0.3,0.4c-0.1,0.2-0.1,0.4-0.1,0.5v4L184.8,317z"/>
<path d="M194.4,311.4h0.6l-2.6,7.2c-0.1,0.2-0.2,0.4-0.3,0.5c-0.2,0.1-0.4,0.1-0.6,0.1h-0.6v-0.5h0.9l0.5-1.5l-2.1-5.8h0.7l1.7,5
	l0,0L194.4,311.4z"/>
<path d="M195.7,311.4h0.6l1.4,5.1l0,0l1.5-5.1h0.6l1.5,5.1l0,0l1.3-5.1h0.6l-1.6,5.6h-0.8l-1.4-4.7l0,0L198,317h-0.8L195.7,311.4z"
	/>
<path d="M204.6,308.9h0.6v3.4l0,0c0.1-0.3,0.3-0.5,0.6-0.7c0.8-0.5,1.8-0.4,2.5,0.3c0.4,0.4,0.5,1,0.5,1.6v3.6h-0.6v-3.5
	c0-0.5-0.1-0.9-0.4-1.3c-0.3-0.3-0.7-0.4-1.1-0.4c-0.2,0-0.4,0-0.6,0.1c-0.2,0.1-0.3,0.1-0.5,0.2c-0.1,0.1-0.3,0.2-0.4,0.4
	c-0.1,0.2-0.1,0.4-0.1,0.5v4h-0.6L204.6,308.9z"/>
<path d="M212.8,317.1c-0.3,0-0.7-0.1-1-0.2c-0.3-0.1-0.6-0.3-0.8-0.6c-0.2-0.3-0.4-0.6-0.5-0.9c-0.1-0.4-0.2-0.8-0.2-1.2
	c0-0.4,0-0.8,0.2-1.2c0.1-0.3,0.2-0.7,0.4-0.9c0.2-0.2,0.5-0.4,0.8-0.6c0.3-0.1,0.7-0.2,1-0.2c0.3,0,0.7,0.1,1,0.2
	c0.3,0.1,0.5,0.3,0.8,0.6c0.2,0.3,0.4,0.6,0.5,0.9c0.1,0.4,0.2,0.7,0.2,1.1v0.3H211v0.3c0,0.3,0,0.5,0.1,0.8
	c0.1,0.2,0.2,0.4,0.4,0.6c0.2,0.2,0.3,0.3,0.6,0.4c0.2,0.1,0.5,0.2,0.8,0.1c0.8,0,1.5-0.4,1.7-1.1l0.5,0.3c-0.2,0.4-0.5,0.8-0.8,1
	C213.8,317,213.3,317.1,212.8,317.1z M212.8,311.8c-0.3,0-0.5,0-0.7,0.1c-0.2,0.1-0.4,0.2-0.6,0.4c-0.2,0.2-0.3,0.4-0.4,0.6
	c-0.1,0.3-0.1,0.5-0.1,0.8v0h3.5v-0.1c0-0.3,0-0.5-0.1-0.8c-0.1-0.2-0.2-0.4-0.3-0.6c-0.2-0.2-0.3-0.3-0.5-0.4
	C213.3,311.8,213.1,311.8,212.8,311.8L212.8,311.8z"/>
<path d="M216.8,317v-5.6h0.6v1l0,0c0.1-0.3,0.3-0.5,0.6-0.7c0.3-0.2,0.7-0.3,1.1-0.3h0.4v0.6H219c-0.4,0-0.8,0.1-1.2,0.3
	c-0.3,0.2-0.5,0.5-0.4,0.9v3.8H216.8z"/>
<path d="M222.7,317.1c-0.3,0-0.7-0.1-1-0.2c-0.3-0.1-0.6-0.3-0.8-0.6c-0.2-0.3-0.4-0.6-0.5-0.9c-0.1-0.4-0.2-0.8-0.2-1.2
	c0-0.4,0-0.8,0.2-1.2c0.1-0.3,0.3-0.7,0.5-0.9c0.4-0.5,1.1-0.8,1.8-0.8c0.3,0,0.7,0.1,1,0.2c0.3,0.1,0.5,0.3,0.8,0.6
	c0.2,0.3,0.4,0.6,0.5,0.9c0.1,0.4,0.2,0.7,0.2,1.1v0.3h-4.2v0.3c0,0.3,0,0.5,0.1,0.8c0.1,0.2,0.2,0.4,0.4,0.6
	c0.2,0.2,0.3,0.3,0.6,0.4c0.2,0.1,0.5,0.2,0.8,0.1c0.8,0,1.5-0.4,1.7-1.1l0.5,0.3c-0.2,0.4-0.5,0.8-0.8,1
	C223.7,317,223.2,317.2,222.7,317.1z M222.7,311.8c-0.3,0-0.5,0-0.7,0.1c-0.2,0.1-0.4,0.2-0.6,0.4c-0.2,0.2-0.3,0.4-0.4,0.6
	c-0.1,0.3-0.1,0.5-0.1,0.8v0h3.5v-0.1c0-0.3,0-0.5-0.1-0.8c-0.1-0.2-0.2-0.4-0.4-0.6c-0.1-0.2-0.3-0.3-0.5-0.4
	C223.2,311.8,222.9,311.8,222.7,311.8L222.7,311.8z"/>
<rect x="268" y="259" class="st0" width="169" height="20"/>
<path d="M300.9,272.1c-0.5,0-1-0.1-1.4-0.3c-0.4-0.2-0.7-0.5-1-0.9l0.5-0.4c0.2,0.3,0.5,0.6,0.8,0.8c0.4,0.2,0.7,0.3,1.1,0.3
	c0.4,0,0.9-0.1,1.2-0.4c0.3-0.3,0.5-0.7,0.4-1.1c0-0.4-0.1-0.7-0.4-0.9c-0.3-0.2-0.6-0.4-1-0.4l-0.6-0.1c-0.5-0.1-1-0.3-1.5-0.7
	c-0.3-0.3-0.5-0.8-0.5-1.2c0-0.3,0.1-0.5,0.2-0.8c0.1-0.2,0.3-0.4,0.5-0.6c0.2-0.2,0.4-0.3,0.7-0.4c0.3-0.1,0.6-0.1,0.9-0.1
	c0.5,0,0.9,0.1,1.3,0.3c0.4,0.2,0.7,0.5,0.9,0.8l-0.5,0.3c-0.2-0.3-0.4-0.5-0.7-0.6c-0.3-0.2-0.7-0.2-1.1-0.2
	c-0.4,0-0.8,0.1-1.2,0.3c-0.3,0.2-0.5,0.6-0.4,1c0,0.3,0.1,0.7,0.4,0.9c0.3,0.2,0.6,0.3,1,0.4l0.6,0.1c0.5,0.1,1.1,0.3,1.5,0.7
	c0.3,0.3,0.4,0.8,0.4,1.2c0,0.6-0.2,1.1-0.6,1.5C302.1,272,301.5,272.1,300.9,272.1z"/>
<path d="M304.9,265.5c-0.1,0-0.2,0-0.3-0.1c-0.1-0.1-0.1-0.2-0.1-0.3V265c0-0.1,0-0.2,0.1-0.3c0.1-0.1,0.2-0.1,0.3-0.1
	c0.2,0,0.4,0.1,0.4,0.3c0,0,0,0.1,0,0.1v0.1C305.3,265.3,305.2,265.4,304.9,265.5C305,265.5,305,265.5,304.9,265.5L304.9,265.5z
	 M304.6,266.9h0.6v5.1h-0.6V266.9z"/>
<path d="M307,272v-5.1h0.6v0.8l0,0c0.1-0.1,0.1-0.2,0.2-0.4c0.1-0.1,0.2-0.2,0.3-0.3c0.1-0.1,0.3-0.2,0.4-0.2c0.2,0,0.4-0.1,0.5-0.1
	c0.4,0,0.7,0.1,1,0.3c0.3,0.2,0.5,0.5,0.6,0.8l0,0c0.1-0.3,0.3-0.6,0.5-0.8c0.3-0.2,0.7-0.3,1.1-0.3c0.5,0,0.9,0.2,1.3,0.5
	c0.3,0.4,0.5,0.9,0.4,1.4v3.3h-0.6v-3.2c0-1-0.4-1.5-1.3-1.5c-0.2,0-0.3,0-0.5,0.1c-0.2,0-0.3,0.1-0.4,0.2c-0.1,0.1-0.2,0.2-0.3,0.4
	c-0.1,0.2-0.1,0.3-0.1,0.5v3.6h-0.6v-3.2c0-1-0.4-1.5-1.3-1.5c-0.2,0-0.3,0-0.5,0.1c-0.2,0-0.3,0.1-0.4,0.2
	c-0.3,0.2-0.4,0.5-0.4,0.9v3.6H307z"/>
<path d="M315.8,266.9h0.6v0.8l0,0c0.1-0.3,0.4-0.5,0.6-0.7c0.3-0.2,0.6-0.3,1-0.3c0.6,0,1.2,0.2,1.5,0.7c0.8,1.2,0.8,2.8,0,4
	c-0.4,0.5-1,0.7-1.5,0.7c-0.7,0-1.3-0.3-1.6-0.9l0,0v2.8h-0.6L315.8,266.9z M317.8,271.6c0.5,0,0.9-0.2,1.2-0.5
	c0.3-0.4,0.5-0.8,0.4-1.3v-0.7c0-0.5-0.1-0.9-0.4-1.3c-0.3-0.3-0.7-0.5-1.2-0.5c-0.2,0-0.4,0-0.6,0.1c-0.2,0-0.3,0.1-0.5,0.2
	c-0.1,0.1-0.2,0.2-0.3,0.4c-0.1,0.1-0.1,0.3-0.1,0.5v2c0,0.2,0,0.3,0.1,0.5c0.1,0.1,0.2,0.3,0.3,0.4c0.1,0.1,0.3,0.2,0.5,0.2
	C317.4,271.6,317.6,271.6,317.8,271.6L317.8,271.6z"/>
<path d="M322.2,272c-0.3,0-0.6-0.2-0.6-0.5c0,0,0-0.1,0-0.1v-6.8h0.6v6.9h0.8v0.5H322.2z"/>
<path d="M324.4,265.5c-0.1,0-0.2,0-0.3-0.1c-0.1-0.1-0.1-0.2-0.1-0.3V265c0-0.1,0-0.2,0.1-0.3c0.1-0.1,0.2-0.1,0.3-0.1
	c0.2,0,0.4,0.1,0.4,0.3c0,0,0,0.1,0,0.1v0.1C324.8,265.3,324.7,265.4,324.4,265.5C324.5,265.5,324.5,265.5,324.4,265.5L324.4,265.5z
	 M324.2,266.9h0.6v5.1h-0.6V266.9z"/>
<path d="M326.8,267.4h-0.9v-0.5h0.9v-1.4c0-0.2,0.1-0.4,0.2-0.6c0.2-0.2,0.4-0.2,0.6-0.2h0.9v0.5h-1.1v1.8h2.8v5.1h-0.6v-4.6h-2.2
	v4.6h-0.6V267.4z M329.9,265.5c-0.2,0-0.4-0.1-0.4-0.3c0,0,0-0.1,0-0.1V265c0-0.2,0.2-0.4,0.4-0.4c0.2,0,0.4,0.2,0.4,0.4
	c0,0,0,0,0,0v0.1C330.3,265.3,330.1,265.4,329.9,265.5C329.9,265.5,329.9,265.5,329.9,265.5L329.9,265.5z"/>
<path d="M333.8,272.1c-0.3,0-0.6-0.1-0.9-0.2c-0.3-0.1-0.5-0.3-0.7-0.5c-0.2-0.2-0.4-0.5-0.5-0.9c-0.2-0.7-0.2-1.5,0-2.3
	c0.1-0.3,0.2-0.6,0.5-0.8c0.2-0.2,0.4-0.4,0.7-0.5c0.3-0.1,0.6-0.2,0.9-0.2c0.3,0,0.6,0.1,0.9,0.2c0.3,0.1,0.5,0.3,0.7,0.5
	c0.2,0.2,0.3,0.5,0.4,0.8c0.1,0.3,0.2,0.7,0.1,1v0.3h-3.8v0.2c0,0.2,0,0.5,0.1,0.7c0.1,0.2,0.2,0.4,0.3,0.6c0.1,0.2,0.3,0.3,0.5,0.4
	c0.2,0.1,0.5,0.1,0.7,0.1c0.7,0,1.3-0.4,1.5-1l0.4,0.3c-0.2,0.4-0.4,0.7-0.8,0.9C334.7,272,334.2,272.1,333.8,272.1z M333.8,267.2
	c-0.2,0-0.5,0-0.7,0.1c-0.2,0.1-0.4,0.2-0.5,0.4c-0.1,0.2-0.3,0.4-0.3,0.6c-0.1,0.2-0.1,0.5-0.1,0.7v0h3.2V269c0-0.3,0-0.5-0.1-0.7
	c-0.1-0.2-0.2-0.4-0.3-0.6c-0.1-0.2-0.3-0.3-0.5-0.4C334.2,267.3,334,267.2,333.8,267.2L333.8,267.2z"/>
<path d="M340.6,271.2L340.6,271.2c-0.1,0.3-0.3,0.5-0.6,0.7c-0.3,0.2-0.6,0.3-1,0.2c-0.6,0-1.2-0.2-1.5-0.7c-0.8-1.2-0.8-2.8,0-4
	c0.4-0.5,1-0.7,1.5-0.7c0.4,0,0.7,0.1,1,0.3c0.3,0.2,0.5,0.4,0.6,0.7l0,0v-3.1h0.6v7.4h-0.6V271.2z M339.2,271.6
	c0.2,0,0.4,0,0.6-0.1c0.2,0,0.3-0.1,0.5-0.2c0.1-0.1,0.2-0.2,0.3-0.4c0.1-0.1,0.1-0.3,0.1-0.5v-2c0-0.2,0-0.3-0.1-0.5
	c-0.1-0.1-0.2-0.3-0.3-0.4c-0.1-0.1-0.3-0.2-0.5-0.2c-0.2-0.1-0.4-0.1-0.6-0.1c-0.5,0-0.9,0.2-1.2,0.5c-0.3,0.4-0.4,0.8-0.4,1.3v0.7
	c0,0.5,0.1,0.9,0.4,1.3C338.3,271.5,338.7,271.6,339.2,271.6L339.2,271.6z"/>
<path d="M348.8,271.2L348.8,271.2c-0.1,0.3-0.3,0.5-0.6,0.7c-0.3,0.2-0.6,0.3-1,0.2c-0.6,0-1.2-0.2-1.5-0.7c-0.8-1.2-0.8-2.8,0-4
	c0.4-0.5,1-0.7,1.5-0.7c0.4,0,0.7,0.1,1,0.3c0.3,0.2,0.5,0.4,0.6,0.7l0,0v-3.1h0.6v7.4h-0.6V271.2z M347.4,271.6
	c0.2,0,0.4,0,0.6-0.1c0.2,0,0.3-0.1,0.5-0.2c0.1-0.1,0.2-0.2,0.3-0.4c0.1-0.1,0.1-0.3,0.1-0.5v-2c0-0.2,0-0.3-0.1-0.5
	c-0.1-0.1-0.2-0.3-0.3-0.4c-0.1-0.1-0.3-0.2-0.5-0.2c-0.2-0.1-0.4-0.1-0.6-0.1c-0.5,0-0.9,0.2-1.2,0.5c-0.3,0.4-0.4,0.8-0.4,1.3v0.7
	c0,0.5,0.1,0.9,0.4,1.3C346.5,271.5,346.9,271.6,347.4,271.6L347.4,271.6z"/>
<path d="M354.8,272c-0.2,0-0.4,0-0.5-0.2c-0.1-0.1-0.2-0.3-0.2-0.5v-0.2h0c-0.1,0.3-0.3,0.5-0.6,0.7c-0.7,0.4-1.6,0.3-2.2-0.1
	c-0.3-0.3-0.5-0.7-0.4-1.1c0-0.4,0.2-0.8,0.5-1.1c0.5-0.3,1-0.5,1.6-0.4h1.2v-0.6c0-0.9-0.4-1.3-1.3-1.3c-0.3,0-0.6,0.1-0.9,0.2
	c-0.2,0.2-0.4,0.4-0.5,0.6l-0.4-0.3c0.1-0.3,0.4-0.6,0.6-0.7c0.3-0.2,0.7-0.3,1.1-0.3c0.5,0,1,0.1,1.4,0.5c0.3,0.3,0.5,0.8,0.5,1.3
	v3h0.7v0.5H354.8z M352.6,271.6c0.2,0,0.4,0,0.6-0.1c0.2,0,0.3-0.1,0.5-0.2c0.1-0.1,0.2-0.2,0.3-0.3c0.1-0.1,0.1-0.3,0.1-0.5v-1
	h-1.2c-0.4,0-0.8,0.1-1.1,0.2c-0.2,0.1-0.4,0.4-0.4,0.7v0.2c0,0.3,0.1,0.5,0.3,0.7C352,271.6,352.3,271.6,352.6,271.6z"/>
<path d="M357.4,272c-0.2,0-0.3-0.1-0.5-0.2c-0.1-0.1-0.2-0.3-0.2-0.5v-4h-0.9v-0.5h0.6c0.1,0,0.2,0,0.3-0.1c0.1-0.1,0.1-0.2,0.1-0.3
	v-1h0.5v1.4h1.2v0.5h-1.2v4.1h1.1v0.4H357.4z"/>
<path d="M363.4,272c-0.2,0-0.4,0-0.5-0.2c-0.1-0.1-0.2-0.3-0.2-0.5v-0.2h0c-0.1,0.3-0.3,0.5-0.6,0.7c-0.7,0.4-1.6,0.3-2.2-0.1
	c-0.3-0.3-0.5-0.7-0.4-1.1c0-0.4,0.2-0.8,0.5-1.1c0.5-0.3,1-0.5,1.6-0.4h1.2v-0.6c0-0.9-0.4-1.3-1.3-1.3c-0.3,0-0.6,0.1-0.9,0.2
	c-0.2,0.2-0.4,0.4-0.5,0.6l-0.4-0.3c0.1-0.3,0.4-0.6,0.6-0.7c0.3-0.2,0.7-0.3,1.1-0.3c0.5,0,1,0.1,1.4,0.5c0.3,0.3,0.5,0.8,0.5,1.3
	v3h0.7v0.5H363.4z M361.2,271.6c0.2,0,0.4,0,0.6-0.1c0.2,0,0.3-0.1,0.5-0.2c0.1-0.1,0.2-0.2,0.3-0.4c0.1-0.1,0.1-0.3,0.1-0.5v-1
	h-1.2c-0.4,0-0.8,0.1-1.1,0.2c-0.2,0.1-0.4,0.4-0.4,0.7v0.2c0,0.3,0.1,0.5,0.3,0.7C360.6,271.6,360.9,271.6,361.2,271.6z"/>
<path d="M367.8,265.5c-0.1,0-0.2,0-0.3-0.1c-0.1-0.1-0.1-0.2-0.1-0.3V265c0-0.1,0-0.2,0.1-0.3c0.1-0.1,0.2-0.1,0.3-0.1
	c0.2,0,0.4,0.1,0.4,0.3c0,0,0,0.1,0,0.1v0.1C368.2,265.3,368.1,265.4,367.8,265.5C367.9,265.5,367.8,265.5,367.8,265.5L367.8,265.5z
	 M367.5,266.9h0.6v5.1h-0.6V266.9z"/>
<path d="M369.9,272v-5.1h0.6v0.8l0,0c0.1-0.3,0.3-0.5,0.5-0.7c0.3-0.2,0.6-0.3,1-0.3c0.5,0,1,0.2,1.3,0.5c0.3,0.4,0.5,0.9,0.5,1.4
	v3.3h-0.6v-3.2c0-0.4-0.1-0.8-0.3-1.2c-0.3-0.3-0.6-0.4-1-0.4c-0.2,0-0.4,0-0.5,0.1c-0.2,0-0.3,0.1-0.4,0.2
	c-0.1,0.1-0.2,0.2-0.3,0.4c-0.1,0.2-0.1,0.3-0.1,0.5v3.6H369.9z"/>
<path d="M379.7,272.6c0,0.5-0.2,0.9-0.6,1.1c-0.6,0.3-1.2,0.4-1.8,0.4c-0.6,0-1.2-0.1-1.7-0.3c-0.3-0.2-0.5-0.6-0.5-0.9
	c0-0.3,0.1-0.5,0.2-0.7c0.2-0.2,0.4-0.3,0.6-0.4v-0.1c-0.3-0.1-0.5-0.4-0.5-0.7c0-0.2,0.1-0.4,0.2-0.6c0.2-0.1,0.4-0.2,0.6-0.3l0,0
	c-0.3-0.1-0.5-0.3-0.7-0.6c-0.2-0.3-0.3-0.6-0.2-1c0-0.2,0-0.5,0.1-0.7c0.1-0.2,0.2-0.4,0.4-0.5c0.2-0.2,0.4-0.3,0.6-0.4
	c0.2-0.1,0.5-0.1,0.8-0.1c0.3,0,0.7,0.1,1,0.2v-0.2c0-0.1,0-0.3,0.1-0.4c0.1-0.1,0.2-0.1,0.4-0.1h0.9v0.5h-1v0.5
	c0.2,0.2,0.3,0.3,0.4,0.6c0.1,0.2,0.1,0.5,0.1,0.7c0,0.5-0.2,0.9-0.5,1.3c-0.2,0.2-0.4,0.3-0.6,0.4c-0.2,0.1-0.5,0.1-0.8,0.1H377
	h-0.3c-0.2,0-0.4,0.1-0.5,0.2c-0.1,0.1-0.2,0.2-0.2,0.4c0,0.3,0.3,0.5,0.8,0.5h1.2c0.5,0,1,0.1,1.4,0.3
	C379.6,271.9,379.7,272.3,379.7,272.6z M379.2,272.6c0-0.2-0.1-0.4-0.3-0.6c-0.3-0.2-0.7-0.3-1-0.2h-1.6c-0.2,0.1-0.4,0.2-0.5,0.3
	c-0.1,0.2-0.2,0.4-0.2,0.5c0,0.3,0.1,0.5,0.3,0.7c0.3,0.2,0.6,0.3,1,0.3h0.6c0.4,0,0.8-0.1,1.2-0.2
	C379,273.2,379.2,272.9,379.2,272.6L379.2,272.6z M377.2,269.8c0.3,0,0.7-0.1,0.9-0.3c0.2-0.2,0.3-0.5,0.3-0.8v-0.3
	c0-0.3-0.1-0.6-0.3-0.8c-0.6-0.4-1.3-0.4-1.9,0c-0.2,0.2-0.4,0.5-0.3,0.8v0.3c0,0.3,0.1,0.6,0.3,0.8
	C376.6,269.7,376.9,269.8,377.2,269.8L377.2,269.8z"/>
<path d="M382.6,272.1c-0.3,0-0.6-0.1-0.9-0.2c-0.3-0.1-0.5-0.3-0.7-0.5c-0.2-0.2-0.4-0.5-0.5-0.9c-0.2-0.7-0.2-1.5,0-2.3
	c0.1-0.3,0.2-0.6,0.5-0.8c0.2-0.2,0.4-0.4,0.7-0.5c0.3-0.1,0.6-0.2,0.9-0.2c0.3,0,0.6,0.1,0.9,0.2c0.3,0.1,0.5,0.3,0.7,0.5
	c0.2,0.2,0.3,0.5,0.4,0.8c0.1,0.3,0.2,0.7,0.1,1v0.3H381v0.2c0,0.2,0,0.5,0.1,0.7c0.1,0.2,0.2,0.4,0.3,0.6c0.1,0.2,0.3,0.3,0.5,0.4
	c0.2,0.1,0.5,0.1,0.7,0.1c0.7,0,1.3-0.4,1.5-1l0.4,0.3c-0.2,0.4-0.4,0.7-0.8,0.9C383.5,272,383.1,272.1,382.6,272.1z M382.6,267.2
	c-0.2,0-0.5,0-0.7,0.1c-0.2,0.1-0.4,0.2-0.5,0.4c-0.1,0.2-0.3,0.4-0.3,0.6c-0.1,0.2-0.1,0.5-0.1,0.7v0h3.2V269c0-0.3,0-0.5-0.1-0.7
	c-0.1-0.2-0.2-0.4-0.3-0.6c-0.1-0.2-0.3-0.3-0.5-0.4C383,267.3,382.8,267.2,382.6,267.2L382.6,267.2z"/>
<path d="M387.6,272.1c-0.4,0-0.8-0.1-1.1-0.2c-0.3-0.2-0.6-0.4-0.8-0.7l0.4-0.3c0.2,0.3,0.4,0.5,0.7,0.6c0.3,0.1,0.6,0.2,0.9,0.2
	c0.3,0,0.6-0.1,0.9-0.2c0.4-0.4,0.4-1,0.1-1.4c-0.2-0.2-0.5-0.3-0.8-0.3l-0.4-0.1c-0.2,0-0.4-0.1-0.6-0.1c-0.2-0.1-0.3-0.2-0.5-0.3
	c-0.1-0.1-0.2-0.3-0.3-0.4c-0.1-0.2-0.1-0.4-0.1-0.6c0-0.2,0-0.4,0.1-0.6c0.1-0.2,0.2-0.3,0.4-0.5c0.2-0.1,0.4-0.2,0.5-0.3
	c0.2-0.1,0.5-0.1,0.7-0.1c0.4,0,0.7,0.1,1,0.2c0.3,0.1,0.5,0.3,0.7,0.6l-0.4,0.4c-0.1-0.2-0.3-0.3-0.5-0.4c-0.3-0.2-0.6-0.2-0.9-0.2
	c-0.3,0-0.6,0.1-0.9,0.2c-0.2,0.2-0.3,0.4-0.3,0.7c0,0.2,0.1,0.5,0.3,0.6c0.2,0.2,0.5,0.3,0.8,0.3l0.4,0.1c0.4,0,0.8,0.2,1.2,0.5
	c0.3,0.3,0.4,0.6,0.4,1c0,0.4-0.2,0.8-0.5,1.1C388.6,272,388.1,272.2,387.6,272.1z"/>
<path d="M391.8,272c-0.2,0-0.3-0.1-0.5-0.2c-0.1-0.1-0.2-0.3-0.2-0.5v-4h-0.9v-0.5h0.6c0.1,0,0.2,0,0.3-0.1c0.1-0.1,0.1-0.2,0.1-0.3
	v-1h0.5v1.4h1.2v0.5h-1.2v4.1h1.1v0.4H391.8z"/>
<path d="M394.6,265.5c-0.1,0-0.2,0-0.3-0.1c-0.1-0.1-0.1-0.2-0.1-0.3V265c0-0.1,0-0.2,0.1-0.3c0.1-0.1,0.2-0.1,0.3-0.1
	c0.2,0,0.4,0.1,0.4,0.3c0,0,0,0.1,0,0.1v0.1C395,265.3,394.8,265.4,394.6,265.5C394.6,265.5,394.6,265.5,394.6,265.5L394.6,265.5z
	 M394.3,266.9h0.6v5.1h-0.6V266.9z"/>
<path d="M398.5,272.1c-0.3,0-0.6-0.1-0.9-0.2c-0.3-0.1-0.5-0.3-0.7-0.5c-0.2-0.3-0.4-0.5-0.5-0.9c-0.2-0.7-0.2-1.5,0-2.3
	c0.1-0.3,0.3-0.6,0.5-0.8c0.2-0.2,0.4-0.4,0.7-0.5c0.3-0.1,0.6-0.2,0.9-0.2c0.3,0,0.6,0.1,0.9,0.2c0.3,0.1,0.5,0.3,0.7,0.5
	c0.2,0.2,0.4,0.5,0.5,0.8c0.2,0.7,0.2,1.5,0,2.3c-0.1,0.3-0.2,0.6-0.5,0.9c-0.2,0.2-0.4,0.4-0.7,0.5
	C399.1,272.1,398.8,272.1,398.5,272.1z M398.5,271.6c0.4,0,0.9-0.2,1.2-0.5c0.3-0.4,0.5-0.9,0.4-1.4v-0.6c0-0.5-0.1-1-0.4-1.4
	c-0.7-0.6-1.7-0.6-2.4,0c-0.3,0.4-0.5,0.9-0.4,1.4v0.6c0,0.5,0.1,1,0.4,1.4C397.6,271.5,398,271.6,398.5,271.6z"/>
<path d="M402.2,272v-5.1h0.6v0.8l0,0c0.1-0.3,0.3-0.5,0.5-0.7c0.3-0.2,0.6-0.3,1-0.3c0.5,0,1,0.2,1.3,0.5c0.3,0.4,0.5,0.9,0.5,1.4
	v3.3h-0.6v-3.2c0-0.4-0.1-0.8-0.3-1.2c-0.3-0.3-0.6-0.4-1-0.4c-0.2,0-0.4,0-0.5,0.1c-0.2,0-0.3,0.1-0.4,0.2
	c-0.1,0.1-0.2,0.2-0.3,0.4c-0.1,0.2-0.1,0.3-0.1,0.5v3.6H402.2z"/>
<rect x="457" y="259" class="st0" width="116" height="20"/>
<path d="M473.2,272v-7h4.1v0.5h-3.5v2.6h3.3v0.5h-3.3v2.8h3.5v0.5H473.2z"/>
<path d="M480.6,272.1c-0.6,0-1.2-0.2-1.6-0.7c-0.8-1.2-0.8-2.8,0-4c0.4-0.5,1-0.7,1.6-0.7c0.4,0,0.8,0.1,1.1,0.3
	c0.3,0.2,0.5,0.5,0.7,0.8l-0.5,0.2c-0.1-0.3-0.3-0.5-0.5-0.6c-0.2-0.2-0.5-0.2-0.8-0.2c-0.5,0-0.9,0.2-1.2,0.5
	c-0.3,0.4-0.4,0.8-0.4,1.3v0.7c0,0.5,0.1,0.9,0.4,1.3c0.3,0.3,0.7,0.5,1.2,0.5c0.3,0,0.6-0.1,0.9-0.2c0.2-0.2,0.5-0.4,0.6-0.7
	l0.4,0.3c-0.2,0.3-0.4,0.6-0.7,0.8C481.5,272,481.1,272.1,480.6,272.1z"/>
<path d="M485.7,272.1c-0.3,0-0.6-0.1-0.9-0.2c-0.3-0.1-0.5-0.3-0.7-0.5c-0.2-0.2-0.4-0.5-0.5-0.9c-0.2-0.7-0.2-1.5,0-2.3
	c0.1-0.3,0.2-0.6,0.5-0.8c0.2-0.2,0.4-0.4,0.7-0.5c0.3-0.1,0.6-0.2,0.9-0.2c0.3,0,0.6,0.1,0.9,0.2c0.3,0.1,0.5,0.3,0.7,0.5
	c0.2,0.3,0.4,0.5,0.5,0.8c0.2,0.7,0.2,1.5,0,2.3c-0.1,0.3-0.2,0.6-0.5,0.9c-0.2,0.2-0.4,0.4-0.7,0.5
	C486.3,272.1,486,272.1,485.7,272.1z M485.7,271.6c0.4,0,0.9-0.2,1.2-0.5c0.3-0.4,0.5-0.9,0.4-1.4v-0.6c0-0.5-0.1-1-0.4-1.4
	c-0.3-0.3-0.7-0.5-1.2-0.5c-0.4,0-0.9,0.2-1.2,0.5c-0.3,0.4-0.5,0.9-0.4,1.4v0.6c0,0.5,0.1,1,0.4,1.4
	C484.8,271.5,485.2,271.6,485.7,271.6z"/>
<path d="M490.8,272.1c-0.4,0-0.8-0.1-1.2-0.2c-0.3-0.2-0.6-0.4-0.8-0.7l0.4-0.3c0.2,0.3,0.4,0.5,0.7,0.6c0.3,0.1,0.6,0.2,0.9,0.2
	c0.3,0,0.6-0.1,0.9-0.2c0.2-0.2,0.3-0.4,0.3-0.7c0-0.2-0.1-0.5-0.2-0.6c-0.2-0.2-0.5-0.3-0.8-0.3l-0.4-0.1c-0.2,0-0.4-0.1-0.6-0.1
	c-0.2-0.1-0.3-0.2-0.5-0.3c-0.1-0.1-0.2-0.3-0.3-0.4c-0.1-0.2-0.1-0.4-0.1-0.6c0-0.2,0-0.4,0.1-0.6c0.1-0.2,0.2-0.3,0.4-0.5
	c0.2-0.1,0.3-0.2,0.5-0.3c0.2-0.1,0.5-0.1,0.7-0.1c0.4,0,0.7,0.1,1,0.2c0.3,0.1,0.5,0.3,0.7,0.6l-0.4,0.4c-0.2-0.2-0.3-0.3-0.5-0.4
	c-0.3-0.1-0.6-0.2-0.9-0.2c-0.3,0-0.6,0.1-0.9,0.2c-0.2,0.2-0.3,0.4-0.3,0.7c0,0.2,0.1,0.5,0.3,0.6c0.3,0.2,0.5,0.3,0.8,0.3l0.4,0.1
	c0.4,0,0.8,0.2,1.2,0.5c0.3,0.3,0.4,0.6,0.4,1c0,0.4-0.2,0.8-0.5,1.1C491.7,272,491.3,272.2,490.8,272.1z"/>
<path d="M497.2,266.9h0.6l-2.4,6.6c-0.1,0.2-0.2,0.3-0.3,0.4c-0.2,0.1-0.4,0.1-0.6,0.1H494v-0.5h0.9l0.5-1.4l-1.9-5.3h0.6l1.6,4.5
	l0,0L497.2,266.9z"/>
<path d="M500.3,272.1c-0.4,0-0.8-0.1-1.2-0.2c-0.3-0.2-0.6-0.4-0.8-0.7l0.4-0.3c0.2,0.3,0.4,0.5,0.7,0.6c0.3,0.1,0.6,0.2,0.9,0.2
	c0.3,0,0.6-0.1,0.9-0.2c0.2-0.2,0.3-0.4,0.3-0.7c0-0.2-0.1-0.5-0.2-0.6c-0.2-0.2-0.5-0.3-0.8-0.3l-0.4-0.1c-0.2,0-0.4-0.1-0.6-0.1
	c-0.2-0.1-0.3-0.2-0.5-0.3c-0.1-0.1-0.2-0.3-0.3-0.4c-0.1-0.2-0.1-0.4-0.1-0.6c0-0.2,0-0.4,0.1-0.6c0.1-0.2,0.2-0.3,0.4-0.5
	c0.2-0.1,0.3-0.2,0.5-0.3c0.2-0.1,0.5-0.1,0.7-0.1c0.4,0,0.7,0.1,1,0.2c0.3,0.1,0.5,0.3,0.7,0.6l-0.4,0.4c-0.2-0.2-0.3-0.3-0.5-0.4
	c-0.3-0.1-0.6-0.2-0.9-0.2c-0.3,0-0.6,0.1-0.9,0.2c-0.2,0.2-0.3,0.4-0.3,0.7c0,0.2,0.1,0.5,0.3,0.6c0.3,0.2,0.5,0.3,0.8,0.3l0.4,0.1
	c0.4,0,0.8,0.2,1.2,0.5c0.3,0.3,0.4,0.6,0.4,1c0,0.4-0.2,0.8-0.5,1.1C501.3,272,500.8,272.2,500.3,272.1z"/>
<path d="M504.5,272c-0.2,0-0.3,0-0.5-0.2c-0.1-0.1-0.2-0.3-0.2-0.5v-4H503v-0.5h0.6c0.1,0,0.2,0,0.3-0.1c0.1-0.1,0.1-0.2,0.1-0.3v-1
	h0.5v1.4h1.2v0.5h-1.2v4.1h1.1v0.4H504.5z"/>
<path d="M508.8,272.1c-0.3,0-0.6-0.1-0.9-0.2c-0.3-0.1-0.5-0.3-0.7-0.5c-0.2-0.3-0.4-0.5-0.5-0.9c-0.2-0.7-0.2-1.5,0-2.3
	c0.1-0.3,0.2-0.6,0.5-0.8c0.2-0.2,0.4-0.4,0.7-0.5c0.3-0.1,0.6-0.2,0.9-0.2c0.3,0,0.6,0.1,0.9,0.2c0.3,0.1,0.5,0.3,0.7,0.5
	c0.2,0.2,0.3,0.5,0.4,0.8c0.1,0.3,0.2,0.7,0.2,1v0.3h-3.8v0.2c0,0.2,0,0.5,0.1,0.7c0.1,0.4,0.4,0.8,0.9,1c0.2,0.1,0.5,0.1,0.7,0.1
	c0.7,0,1.3-0.4,1.5-1l0.4,0.3c-0.2,0.4-0.4,0.7-0.8,0.9C509.7,272,509.3,272.1,508.8,272.1z M508.8,267.2c-0.2,0-0.5,0-0.7,0.1
	c-0.2,0.1-0.4,0.2-0.5,0.4c-0.1,0.2-0.3,0.4-0.3,0.6c-0.1,0.2-0.1,0.5-0.1,0.7v0h3.2V269c0-0.3,0-0.5-0.1-0.7
	c-0.1-0.4-0.4-0.7-0.8-0.9C509.2,267.3,509,267.2,508.8,267.2L508.8,267.2z"/>
<path d="M512.4,272v-5.1h0.6v0.8l0,0c0.1-0.1,0.1-0.2,0.2-0.4c0.1-0.1,0.2-0.2,0.3-0.3c0.1-0.1,0.3-0.2,0.4-0.2
	c0.2,0,0.4-0.1,0.6-0.1c0.4,0,0.7,0.1,1,0.3c0.3,0.2,0.5,0.5,0.6,0.8l0,0c0.1-0.3,0.3-0.6,0.5-0.8c0.3-0.2,0.7-0.3,1.1-0.3
	c0.5,0,0.9,0.2,1.3,0.5c0.3,0.4,0.5,0.9,0.4,1.4v3.3h-0.6v-3.2c0-1-0.4-1.5-1.3-1.5c-0.2,0-0.3,0-0.5,0.1c-0.2,0-0.3,0.1-0.4,0.2
	c-0.1,0.1-0.2,0.2-0.3,0.4c-0.1,0.2-0.1,0.3-0.1,0.5v3.6h-0.6v-3.2c0-1-0.4-1.5-1.3-1.5c-0.2,0-0.3,0-0.5,0.1
	c-0.2,0-0.3,0.1-0.4,0.2c-0.1,0.1-0.2,0.2-0.3,0.4c-0.1,0.2-0.1,0.3-0.1,0.5v3.6H512.4z"/>
<path d="M523.5,264.6h0.6v3.1l0,0c0.1-0.3,0.3-0.5,0.6-0.7c0.3-0.2,0.6-0.3,1-0.3c0.6,0,1.2,0.2,1.5,0.7c0.8,1.2,0.8,2.8,0,4
	c-0.4,0.5-1,0.7-1.5,0.7c-0.4,0-0.7-0.1-1-0.2c-0.3-0.2-0.5-0.4-0.6-0.7l0,0v0.8h-0.6L523.5,264.6z M525.5,271.6
	c0.5,0,0.9-0.2,1.2-0.5c0.3-0.4,0.4-0.8,0.4-1.3v-0.7c0-0.5-0.1-0.9-0.4-1.3c-0.3-0.3-0.7-0.5-1.2-0.5c-0.2,0-0.4,0-0.6,0.1
	c-0.2,0-0.3,0.1-0.5,0.2c-0.1,0.1-0.2,0.2-0.3,0.4c-0.1,0.1-0.1,0.3-0.1,0.5v2c0,0.2,0,0.3,0.1,0.5c0.1,0.1,0.2,0.3,0.3,0.4
	c0.1,0.1,0.3,0.2,0.5,0.2C525.1,271.6,525.3,271.6,525.5,271.6L525.5,271.6z"/>
<path d="M529.3,272v-5.1h0.6v0.9l0,0c0.3-0.6,0.9-1,1.5-0.9h0.3v0.6h-0.5c-0.4,0-0.7,0.1-1,0.3c-0.3,0.2-0.4,0.5-0.4,0.8v3.5H529.3z
	"/>
<path d="M533.2,265.5c-0.2,0-0.4-0.1-0.4-0.3c0,0,0-0.1,0-0.1V265c0-0.2,0.1-0.3,0.3-0.4c0,0,0.1,0,0.1,0c0.1,0,0.2,0,0.3,0.1
	c0.1,0.1,0.1,0.2,0.1,0.3v0.1c0,0.1,0,0.2-0.1,0.3C533.4,265.4,533.3,265.5,533.2,265.5z M532.9,266.9h0.6v5.1h-0.6V266.9z"/>
<path d="M538.6,271.2L538.6,271.2c-0.1,0.3-0.3,0.5-0.6,0.7c-0.3,0.2-0.6,0.3-1,0.2c-0.6,0-1.2-0.2-1.5-0.7c-0.8-1.2-0.8-2.8,0-4
	c0.4-0.5,1-0.7,1.5-0.7c0.4,0,0.7,0.1,1,0.3c0.3,0.2,0.5,0.4,0.6,0.7l0,0v-3.1h0.6v7.4h-0.6L538.6,271.2z M537.1,271.6
	c0.2,0,0.4,0,0.6-0.1c0.2,0,0.3-0.1,0.5-0.2c0.1-0.1,0.2-0.2,0.3-0.4c0.1-0.1,0.1-0.3,0.1-0.5v-2c0-0.2,0-0.3-0.1-0.5
	c-0.1-0.1-0.2-0.3-0.3-0.4c-0.1-0.1-0.3-0.2-0.5-0.2c-0.2-0.1-0.4-0.1-0.6-0.1c-0.5,0-0.9,0.2-1.2,0.5c-0.3,0.4-0.5,0.8-0.4,1.3v0.7
	c0,0.5,0.1,0.9,0.4,1.3C536.2,271.5,536.7,271.6,537.1,271.6z"/>
<path d="M545.2,272.6c0,0.5-0.2,0.9-0.6,1.1c-0.6,0.3-1.2,0.4-1.8,0.4c-0.6,0-1.2-0.1-1.7-0.3c-0.3-0.2-0.5-0.6-0.5-0.9
	c0-0.3,0.1-0.5,0.2-0.7c0.2-0.2,0.4-0.3,0.7-0.4v-0.1c-0.3-0.1-0.5-0.4-0.5-0.7c0-0.2,0.1-0.4,0.2-0.6c0.2-0.1,0.4-0.2,0.6-0.3l0,0
	c-0.3-0.1-0.5-0.3-0.7-0.6c-0.2-0.3-0.3-0.6-0.2-1c0-0.2,0-0.5,0.1-0.7c0.1-0.2,0.2-0.4,0.4-0.5c0.2-0.2,0.4-0.3,0.6-0.4
	c0.2-0.1,0.5-0.1,0.8-0.1c0.3,0,0.7,0.1,1,0.2v-0.2c0-0.1,0-0.3,0.1-0.4c0.1-0.1,0.2-0.2,0.4-0.1h0.9v0.5h-1v0.5
	c0.2,0.2,0.3,0.3,0.4,0.6c0.3,0.7,0.1,1.5-0.4,2c-0.2,0.2-0.4,0.3-0.6,0.4c-0.2,0.1-0.5,0.1-0.8,0.1h-0.3h-0.3
	c-0.2,0-0.4,0.1-0.5,0.2c-0.1,0.1-0.2,0.2-0.2,0.4c0,0.3,0.3,0.5,0.8,0.5h1.2c0.5,0,0.9,0.1,1.3,0.3
	C545.1,271.9,545.2,272.3,545.2,272.6z M544.7,272.6c0-0.2-0.1-0.4-0.3-0.6c-0.3-0.2-0.6-0.2-0.9-0.2h-1.7c-0.2,0.1-0.4,0.2-0.5,0.3
	c-0.3,0.4-0.2,0.9,0.1,1.2c0,0,0,0,0,0c0.3,0.2,0.6,0.3,1,0.3h0.6c0.4,0,0.8-0.1,1.2-0.2C544.5,273.2,544.7,272.9,544.7,272.6
	L544.7,272.6z M542.7,269.8c0.3,0,0.7-0.1,0.9-0.3c0.2-0.2,0.4-0.5,0.3-0.8v-0.3c0-0.3-0.1-0.6-0.3-0.8c-0.6-0.4-1.3-0.4-1.8,0
	c-0.2,0.2-0.4,0.5-0.3,0.8v0.3c0,0.3,0.1,0.6,0.3,0.8C542.1,269.7,542.4,269.8,542.7,269.8L542.7,269.8z"/>
<path d="M546.5,265.5c-0.2,0-0.4-0.1-0.4-0.3c0,0,0-0.1,0-0.1V265c0-0.2,0.1-0.3,0.3-0.4c0,0,0.1,0,0.1,0c0.1,0,0.2,0,0.3,0.1
	c0.1,0.1,0.1,0.2,0.1,0.3v0.1c0,0.1,0,0.2-0.1,0.3C546.8,265.4,546.7,265.5,546.5,265.5z M546.3,266.9h0.6v5.1h-0.6V266.9z"/>
<path d="M548.7,272v-5.1h0.6v0.8l0,0c0.1-0.3,0.3-0.5,0.5-0.7c0.3-0.2,0.6-0.3,1-0.3c0.5,0,0.9,0.2,1.3,0.5c0.3,0.4,0.5,0.9,0.5,1.4
	v3.3h-0.6v-3.2c0-0.4-0.1-0.8-0.3-1.2c-0.3-0.3-0.6-0.4-1-0.4c-0.2,0-0.4,0-0.5,0.1c-0.2,0-0.3,0.1-0.5,0.2
	c-0.1,0.1-0.2,0.2-0.3,0.4c-0.1,0.2-0.1,0.3-0.1,0.5v3.6H548.7z"/>
<path d="M558.5,272.6c0,0.5-0.2,0.9-0.6,1.1c-0.6,0.3-1.2,0.4-1.8,0.4c-0.6,0-1.2-0.1-1.7-0.3c-0.3-0.2-0.5-0.6-0.5-0.9
	c0-0.3,0.1-0.5,0.2-0.7c0.2-0.2,0.4-0.3,0.7-0.4v-0.1c-0.3-0.1-0.5-0.4-0.5-0.7c0-0.2,0.1-0.4,0.2-0.6c0.2-0.1,0.4-0.2,0.6-0.3l0,0
	c-0.3-0.1-0.5-0.3-0.7-0.6c-0.2-0.3-0.3-0.6-0.2-1c0-0.2,0-0.5,0.1-0.7c0.1-0.2,0.2-0.4,0.4-0.5c0.2-0.2,0.4-0.3,0.6-0.4
	c0.2-0.1,0.5-0.1,0.8-0.1c0.3,0,0.7,0.1,1,0.2v-0.2c0-0.1,0-0.3,0.1-0.4c0.1-0.1,0.2-0.2,0.4-0.1h0.9v0.5h-1v0.5
	c0.2,0.2,0.3,0.3,0.4,0.6c0.3,0.7,0.1,1.5-0.4,2c-0.2,0.2-0.4,0.3-0.6,0.4c-0.2,0.1-0.5,0.1-0.8,0.1h-0.3h-0.3
	c-0.2,0-0.4,0.1-0.5,0.2c-0.1,0.1-0.2,0.2-0.2,0.4c0,0.3,0.3,0.5,0.8,0.5h1.2c0.5,0,0.9,0.1,1.3,0.3
	C558.3,271.9,558.5,272.3,558.5,272.6z M557.9,272.6c0-0.2-0.1-0.4-0.3-0.6c-0.3-0.2-0.6-0.2-0.9-0.2h-1.7c-0.2,0.1-0.4,0.2-0.5,0.3
	c-0.3,0.4-0.2,0.9,0.1,1.2c0,0,0,0,0,0c0.3,0.2,0.6,0.3,1,0.3h0.6c0.4,0,0.8-0.1,1.2-0.2C557.8,273.2,557.9,272.9,557.9,272.6
	L557.9,272.6z M556,269.8c0.3,0,0.7-0.1,0.9-0.3c0.2-0.2,0.4-0.5,0.3-0.8v-0.3c0-0.3-0.1-0.6-0.3-0.8c-0.6-0.4-1.3-0.4-1.8,0
	c-0.2,0.2-0.4,0.5-0.3,0.8v0.3c0,0.3,0.1,0.6,0.3,0.8C555.3,269.7,555.7,269.8,556,269.8z"/>
<rect x="621" y="259" class="st0" width="116" height="20"/>
<path d="M632.9,272.1c-0.5,0-1-0.1-1.4-0.3c-0.4-0.2-0.7-0.5-1-0.9l0.5-0.4c0.2,0.3,0.5,0.6,0.8,0.8c0.4,0.2,0.7,0.3,1.2,0.3
	c0.4,0,0.9-0.1,1.2-0.4c0.3-0.3,0.5-0.7,0.4-1.1c0-0.4-0.1-0.7-0.4-0.9c-0.3-0.2-0.6-0.4-1-0.4l-0.6-0.1c-0.5-0.1-1-0.3-1.5-0.7
	c-0.3-0.3-0.5-0.8-0.5-1.2c0-0.3,0-0.5,0.2-0.8c0.1-0.2,0.3-0.4,0.5-0.6c0.2-0.2,0.4-0.3,0.7-0.4c0.3-0.1,0.6-0.1,0.9-0.1
	c0.5,0,0.9,0.1,1.3,0.3c0.4,0.2,0.7,0.5,0.9,0.8l-0.5,0.3c-0.2-0.3-0.4-0.5-0.7-0.6c-0.3-0.2-0.7-0.2-1.1-0.2
	c-0.4,0-0.8,0.1-1.2,0.3c-0.3,0.2-0.5,0.6-0.4,1c0,0.3,0.1,0.7,0.4,0.9c0.3,0.2,0.6,0.3,1,0.4l0.6,0.1c0.5,0.1,1.1,0.3,1.5,0.7
	c0.3,0.3,0.4,0.8,0.4,1.2c0,0.6-0.2,1.1-0.6,1.5C634.1,272,633.5,272.1,632.9,272.1z"/>
<path d="M638.5,272.1c-0.3,0-0.6-0.1-0.9-0.2c-0.3-0.1-0.5-0.3-0.7-0.5c-0.2-0.2-0.4-0.5-0.5-0.9c-0.2-0.7-0.2-1.5,0-2.3
	c0.1-0.3,0.2-0.6,0.5-0.8c0.2-0.2,0.4-0.4,0.7-0.5c0.3-0.1,0.6-0.2,0.9-0.2c0.3,0,0.6,0.1,0.9,0.2c0.3,0.1,0.5,0.3,0.7,0.5
	c0.2,0.2,0.3,0.5,0.4,0.8c0.1,0.3,0.2,0.7,0.2,1v0.3h-3.8v0.2c0,0.2,0,0.5,0.1,0.7c0.1,0.2,0.2,0.4,0.3,0.6c0.1,0.2,0.3,0.3,0.5,0.4
	c0.2,0.1,0.5,0.1,0.7,0.1c0.7,0,1.3-0.4,1.5-1l0.4,0.3c-0.2,0.4-0.4,0.7-0.8,0.9C639.3,272,638.9,272.1,638.5,272.1z M638.5,267.2
	c-0.2,0-0.5,0-0.7,0.1c-0.4,0.2-0.7,0.5-0.8,1c-0.1,0.2-0.1,0.5-0.1,0.7v0h3.2V269c0-0.3,0-0.5-0.1-0.7c-0.1-0.4-0.4-0.7-0.8-0.9
	C638.9,267.3,638.7,267.2,638.5,267.2L638.5,267.2z"/>
<path d="M645.5,272c-0.2,0-0.4,0-0.5-0.2c-0.1-0.1-0.2-0.3-0.2-0.5v-0.2l0,0c-0.1,0.3-0.3,0.5-0.6,0.7c-0.7,0.4-1.6,0.3-2.2-0.1
	c-0.3-0.3-0.5-0.7-0.4-1.1c0-0.4,0.2-0.8,0.5-1.1c0.5-0.3,1-0.5,1.6-0.4h1.2v-0.6c0.1-0.6-0.4-1.2-1-1.3c-0.1,0-0.2,0-0.3,0
	c-0.6,0-1.1,0.3-1.4,0.8l-0.4-0.3c0.1-0.3,0.4-0.6,0.7-0.7c0.3-0.2,0.7-0.3,1.1-0.3c0.5,0,1,0.1,1.4,0.5c0.3,0.3,0.5,0.8,0.5,1.3v3
	h0.7v0.5H645.5z M643.4,271.6c0.2,0,0.4,0,0.6-0.1c0.2,0,0.3-0.1,0.5-0.2c0.1-0.1,0.2-0.2,0.3-0.4c0.1-0.1,0.1-0.3,0.1-0.5v-1h-1.2
	c-0.4,0-0.8,0.1-1.1,0.2c-0.2,0.1-0.4,0.4-0.3,0.7v0.2c0,0.3,0.1,0.5,0.3,0.7C642.8,271.6,643,271.6,643.4,271.6L643.4,271.6z"/>
<path d="M647.3,272v-5.1h0.6v0.8l0,0c0.1-0.1,0.1-0.2,0.2-0.4c0.1-0.1,0.2-0.2,0.3-0.3c0.1-0.1,0.3-0.2,0.4-0.2
	c0.2,0,0.4-0.1,0.5-0.1c0.4,0,0.7,0.1,1,0.3c0.3,0.2,0.5,0.5,0.6,0.8l0,0c0.1-0.3,0.3-0.6,0.5-0.8c0.3-0.2,0.7-0.3,1.1-0.3
	c0.5,0,0.9,0.2,1.3,0.5c0.3,0.4,0.5,0.9,0.4,1.4v3.3h-0.6v-3.2c0-1-0.4-1.5-1.3-1.5c-0.2,0-0.3,0-0.5,0.1c-0.2,0-0.3,0.1-0.4,0.2
	c-0.1,0.1-0.2,0.2-0.3,0.4c-0.1,0.2-0.1,0.3-0.1,0.5v3.6h-0.6v-3.2c0-1-0.4-1.5-1.3-1.5c-0.2,0-0.3,0-0.5,0.1
	c-0.2,0-0.3,0.1-0.4,0.2c-0.1,0.1-0.2,0.2-0.3,0.4c-0.1,0.2-0.1,0.3-0.1,0.5v3.6H647.3z"/>
<path d="M656.7,272c-0.2,0-0.3-0.1-0.5-0.2c-0.1-0.1-0.2-0.3-0.2-0.5v-6.8h0.6v6.9h0.8v0.5H656.7z"/>
<path d="M660.5,272.1c-0.3,0-0.6-0.1-0.9-0.2c-0.3-0.1-0.5-0.3-0.7-0.5c-0.2-0.2-0.4-0.5-0.5-0.9c-0.2-0.7-0.2-1.5,0-2.3
	c0.1-0.3,0.2-0.6,0.5-0.8c0.2-0.2,0.4-0.4,0.7-0.5c0.3-0.1,0.6-0.2,0.9-0.2c0.3,0,0.6,0.1,0.9,0.2c0.3,0.1,0.5,0.3,0.7,0.5
	c0.2,0.2,0.3,0.5,0.4,0.8c0.1,0.3,0.2,0.7,0.2,1v0.3h-3.8v0.2c0,0.2,0,0.5,0.1,0.7c0.1,0.2,0.2,0.4,0.3,0.6c0.1,0.2,0.3,0.3,0.5,0.4
	c0.2,0.1,0.5,0.1,0.7,0.1c0.7,0,1.3-0.4,1.5-1l0.4,0.3c-0.2,0.4-0.4,0.7-0.8,0.9C661.4,272,660.9,272.1,660.5,272.1z M660.5,267.2
	c-0.2,0-0.5,0-0.7,0.1c-0.4,0.2-0.7,0.5-0.8,1c-0.1,0.2-0.1,0.5-0.1,0.7v0h3.2V269c0-0.3,0-0.5-0.1-0.7c-0.1-0.4-0.4-0.7-0.8-0.9
	C660.9,267.3,660.7,267.2,660.5,267.2L660.5,267.2z"/>
<path d="M665.5,272.1c-0.4,0-0.8-0.1-1.1-0.2c-0.3-0.2-0.6-0.4-0.8-0.7l0.4-0.3c0.2,0.3,0.4,0.5,0.7,0.6c0.3,0.1,0.6,0.2,0.9,0.2
	c0.3,0,0.6-0.1,0.9-0.2c0.2-0.2,0.3-0.4,0.3-0.7c0-0.2-0.1-0.5-0.2-0.6c-0.2-0.2-0.5-0.3-0.8-0.3l-0.4-0.1c-0.2,0-0.4-0.1-0.6-0.1
	c-0.2-0.1-0.3-0.2-0.5-0.3c-0.1-0.1-0.3-0.3-0.3-0.4c-0.1-0.2-0.1-0.4-0.1-0.6c0-0.2,0-0.4,0.1-0.6c0.1-0.2,0.2-0.3,0.4-0.5
	c0.2-0.1,0.4-0.2,0.5-0.3c0.2-0.1,0.5-0.1,0.7-0.1c0.3,0,0.7,0.1,1,0.2c0.3,0.1,0.5,0.3,0.7,0.6l-0.4,0.4c-0.1-0.2-0.3-0.3-0.5-0.4
	c-0.3-0.1-0.6-0.2-0.9-0.2c-0.3,0-0.6,0.1-0.8,0.2c-0.2,0.2-0.3,0.4-0.3,0.7c0,0.3,0.1,0.5,0.3,0.6c0.2,0.2,0.5,0.3,0.8,0.3l0.4,0.1
	c0.4,0,0.8,0.2,1.2,0.5c0.3,0.3,0.4,0.6,0.4,1c0,0.4-0.2,0.8-0.5,1.1C666.4,272,665.9,272.1,665.5,272.1z"/>
<path d="M670.2,272.1c-0.4,0-0.8-0.1-1.1-0.2c-0.3-0.2-0.6-0.4-0.8-0.7l0.4-0.3c0.2,0.3,0.4,0.5,0.7,0.6c0.3,0.1,0.6,0.2,0.9,0.2
	c0.3,0,0.6-0.1,0.9-0.2c0.2-0.2,0.3-0.4,0.3-0.7c0-0.2-0.1-0.5-0.2-0.6c-0.2-0.2-0.5-0.3-0.8-0.3l-0.4-0.1c-0.2,0-0.4-0.1-0.6-0.1
	c-0.2-0.1-0.3-0.2-0.5-0.3c-0.1-0.1-0.3-0.3-0.3-0.4c-0.1-0.2-0.1-0.4-0.1-0.6c0-0.2,0-0.4,0.1-0.6c0.1-0.2,0.2-0.3,0.4-0.5
	c0.2-0.1,0.4-0.2,0.5-0.3c0.2-0.1,0.5-0.1,0.7-0.1c0.3,0,0.7,0.1,1,0.2c0.3,0.1,0.5,0.3,0.7,0.6l-0.4,0.4c-0.1-0.2-0.3-0.3-0.5-0.4
	c-0.3-0.1-0.6-0.2-0.9-0.2c-0.3,0-0.6,0.1-0.8,0.2c-0.2,0.2-0.3,0.4-0.3,0.7c0,0.3,0.1,0.5,0.3,0.6c0.2,0.2,0.5,0.3,0.8,0.3l0.4,0.1
	c0.4,0,0.8,0.2,1.2,0.5c0.3,0.3,0.4,0.6,0.4,1c0,0.4-0.2,0.8-0.5,1.1C671.2,272,670.7,272.1,670.2,272.1z"/>
<path d="M679.2,271.2L679.2,271.2c-0.1,0.3-0.3,0.5-0.6,0.7c-0.3,0.2-0.6,0.3-1,0.2c-0.6,0-1.2-0.2-1.5-0.7c-0.8-1.2-0.8-2.8,0-4
	c0.4-0.5,1-0.7,1.5-0.7c0.4,0,0.7,0.1,1,0.3c0.3,0.2,0.5,0.4,0.6,0.7l0,0v-3.1h0.6v7.4h-0.6L679.2,271.2z M677.7,271.6
	c0.2,0,0.4,0,0.6-0.1c0.2,0,0.3-0.1,0.5-0.2c0.1-0.1,0.2-0.2,0.3-0.4c0.1-0.1,0.1-0.3,0.1-0.5v-2c0-0.2,0-0.3-0.1-0.5
	c-0.1-0.1-0.2-0.3-0.3-0.4c-0.1-0.1-0.3-0.2-0.5-0.2c-0.2-0.1-0.4-0.1-0.6-0.1c-0.5,0-0.9,0.2-1.2,0.5c-0.3,0.4-0.5,0.8-0.4,1.3v0.7
	c0,0.5,0.1,0.9,0.4,1.3C676.8,271.5,677.3,271.6,677.7,271.6z"/>
<path d="M683.5,272.1c-0.3,0-0.6-0.1-0.9-0.2c-0.3-0.1-0.5-0.3-0.7-0.5c-0.2-0.2-0.4-0.5-0.5-0.9c-0.2-0.7-0.2-1.5,0-2.3
	c0.1-0.3,0.2-0.6,0.5-0.8c0.2-0.2,0.4-0.4,0.7-0.5c0.3-0.1,0.6-0.2,0.9-0.2c0.3,0,0.6,0.1,0.9,0.2c0.3,0.1,0.5,0.3,0.7,0.5
	c0.2,0.2,0.3,0.5,0.4,0.8c0.1,0.3,0.2,0.7,0.2,1v0.3h-3.8v0.2c0,0.2,0,0.5,0.1,0.7c0.1,0.2,0.2,0.4,0.3,0.6c0.1,0.2,0.3,0.3,0.5,0.4
	c0.2,0.1,0.5,0.1,0.7,0.1c0.7,0,1.3-0.4,1.5-1l0.4,0.3c-0.2,0.4-0.4,0.7-0.8,0.9C684.3,272,683.9,272.1,683.5,272.1z M683.5,267.2
	c-0.2,0-0.5,0-0.7,0.1c-0.2,0.1-0.4,0.2-0.5,0.4c-0.1,0.2-0.3,0.4-0.3,0.6c-0.1,0.2-0.1,0.5-0.1,0.7v0h3.2V269c0-0.3,0-0.5-0.1-0.7
	c-0.1-0.4-0.4-0.7-0.8-0.9C683.9,267.3,683.7,267.2,683.5,267.2L683.5,267.2z"/>
<path d="M687,266.9h0.6v0.8l0,0c0.1-0.3,0.3-0.5,0.6-0.7c0.3-0.2,0.6-0.3,1-0.3c0.6,0,1.2,0.2,1.5,0.7c0.8,1.2,0.8,2.8,0,4
	c-0.4,0.5-1,0.7-1.5,0.7c-0.4,0-0.7-0.1-1-0.2c-0.3-0.2-0.5-0.4-0.6-0.7l0,0v2.8H687V266.9z M689,271.6c0.5,0,0.9-0.2,1.2-0.5
	c0.3-0.4,0.4-0.8,0.4-1.3v-0.7c0-0.5-0.1-0.9-0.4-1.3c-0.3-0.3-0.7-0.5-1.2-0.5c-0.2,0-0.4,0-0.6,0.1c-0.2,0-0.3,0.1-0.5,0.2
	c-0.1,0.1-0.2,0.2-0.3,0.4c-0.1,0.1-0.1,0.3-0.1,0.5v2c0,0.2,0,0.3,0.1,0.5c0.1,0.1,0.2,0.3,0.3,0.4c0.1,0.1,0.3,0.2,0.5,0.2
	C688.6,271.6,688.8,271.6,689,271.6L689,271.6z"/>
<path d="M693.4,272c-0.2,0-0.3,0-0.5-0.2c-0.1-0.1-0.2-0.3-0.2-0.5v-6.8h0.6v6.9h0.8v0.5H693.4z"/>
<path d="M697.2,272.1c-0.3,0-0.6-0.1-0.9-0.2c-0.3-0.1-0.5-0.3-0.7-0.5c-0.2-0.2-0.4-0.5-0.5-0.9c-0.2-0.7-0.2-1.5,0-2.3
	c0.1-0.3,0.2-0.6,0.5-0.8c0.2-0.2,0.4-0.4,0.7-0.5c0.3-0.1,0.6-0.2,0.9-0.2c0.3,0,0.6,0.1,0.9,0.2c0.3,0.1,0.5,0.3,0.7,0.5
	c0.2,0.3,0.4,0.5,0.5,0.8c0.2,0.7,0.2,1.5,0,2.3c-0.1,0.3-0.2,0.6-0.5,0.9c-0.2,0.2-0.4,0.4-0.7,0.5
	C697.8,272.1,697.5,272.1,697.2,272.1z M697.2,271.6c0.4,0,0.9-0.2,1.2-0.5c0.3-0.4,0.5-0.9,0.4-1.4v-0.6c0-0.5-0.1-1-0.4-1.4
	c-0.3-0.3-0.7-0.5-1.2-0.5c-0.4,0-0.9,0.2-1.2,0.5c-0.3,0.4-0.5,0.9-0.4,1.4v0.6c0,0.5,0.1,1,0.4,1.4
	C696.3,271.5,696.8,271.6,697.2,271.6z"/>
<path d="M703.9,266.9h0.6l-2.4,6.6c-0.1,0.2-0.2,0.3-0.3,0.4c-0.2,0.1-0.4,0.1-0.6,0.1h-0.6v-0.5h0.9l0.5-1.4l-1.9-5.3h0.6l1.6,4.5
	l0,0L703.9,266.9z"/>
<path d="M705.6,272v-5.1h0.6v0.8l0,0c0.1-0.1,0.1-0.2,0.2-0.4c0.1-0.1,0.2-0.2,0.3-0.3c0.1-0.1,0.3-0.2,0.4-0.2
	c0.2,0,0.4-0.1,0.6-0.1c0.4,0,0.7,0.1,1,0.3c0.3,0.2,0.5,0.5,0.6,0.8l0,0c0.1-0.3,0.3-0.6,0.5-0.8c0.3-0.2,0.7-0.3,1.1-0.3
	c0.5,0,0.9,0.2,1.3,0.5c0.3,0.4,0.5,0.9,0.4,1.4v3.3H712v-3.2c0-1-0.4-1.5-1.3-1.5c-0.2,0-0.3,0-0.5,0.1c-0.2,0-0.3,0.1-0.4,0.2
	c-0.1,0.1-0.2,0.2-0.3,0.4c-0.1,0.2-0.1,0.3-0.1,0.5v3.6h-0.6v-3.2c0-1-0.4-1.5-1.3-1.5c-0.2,0-0.3,0-0.5,0.1
	c-0.2,0-0.3,0.1-0.4,0.2c-0.1,0.1-0.2,0.2-0.3,0.4c-0.1,0.2-0.1,0.3-0.1,0.5v3.6H705.6z"/>
<path d="M716.2,272.1c-0.3,0-0.6-0.1-0.9-0.2c-0.3-0.1-0.5-0.3-0.7-0.5c-0.2-0.2-0.4-0.5-0.5-0.9c-0.2-0.7-0.2-1.5,0-2.3
	c0.1-0.3,0.2-0.6,0.5-0.8c0.2-0.2,0.4-0.4,0.7-0.5c0.3-0.1,0.6-0.2,0.9-0.2c0.3,0,0.6,0.1,0.9,0.2c0.3,0.1,0.5,0.3,0.7,0.5
	c0.2,0.2,0.3,0.5,0.4,0.8c0.1,0.3,0.2,0.7,0.2,1v0.3h-3.8v0.2c0,0.2,0,0.5,0.1,0.7c0.1,0.2,0.2,0.4,0.3,0.6c0.1,0.2,0.3,0.3,0.5,0.4
	c0.2,0.1,0.5,0.1,0.7,0.1c0.7,0,1.3-0.4,1.5-1l0.4,0.3c-0.1,0.4-0.4,0.7-0.8,0.9C717.1,272,716.7,272.1,716.2,272.1z M716.2,267.2
	c-0.2,0-0.5,0-0.7,0.1c-0.2,0.1-0.4,0.2-0.5,0.4c-0.1,0.2-0.3,0.4-0.3,0.6c-0.1,0.2-0.1,0.5-0.1,0.7v0h3.2V269c0-0.3,0-0.5-0.1-0.7
	c-0.1-0.4-0.4-0.7-0.8-0.9C716.6,267.3,716.4,267.2,716.2,267.2L716.2,267.2z"/>
<path d="M719.8,272v-5.1h0.6v0.8l0,0c0.1-0.3,0.3-0.5,0.5-0.7c0.3-0.2,0.6-0.3,1-0.3c0.5,0,1,0.2,1.3,0.5c0.3,0.4,0.5,0.9,0.5,1.4
	v3.3H723v-3.2c0-0.4-0.1-0.8-0.3-1.2c-0.3-0.3-0.6-0.4-1-0.4c-0.2,0-0.4,0-0.5,0.1c-0.2,0-0.3,0.1-0.4,0.2c-0.1,0.1-0.2,0.2-0.3,0.4
	c-0.1,0.2-0.1,0.3-0.1,0.5v3.6H719.8z"/>
<text transform="matrix(1 0 0 1 724.44 272)" class="st11 st12">t</text>
<path d="M417.4,331.1c0-3.1-2.2-5.7-5.2-6.4c-1-4.9-5.8-8-10.7-6.9c-3.5,0.7-6.2,3.4-6.9,6.9c-3,0.6-5.2,3.3-5.2,6.4
	c0,1.6,0.6,3.2,1.7,4.4c-2.3,2.4-2.2,6.2,0.2,8.5c1.1,1.1,2.6,1.7,4.1,1.7h11c3.3,0,6-2.7,6-6c0-0.7-0.1-1.5-0.4-2.1
	C415.1,336.9,417.4,334.2,417.4,331.1z M406.4,343.6h-11c-2.2,0-4-1.9-3.9-4.1c0-1.9,1.4-3.5,3.3-3.9l0.7-0.1l0.1-0.7
	c0.7-3,3.6-4.8,6.6-4.2c2.1,0.5,3.7,2.1,4.2,4.2l0.1,0.7l0.7,0.1c2.2,0.4,3.6,2.5,3.2,4.7C409.9,342.2,408.3,343.5,406.4,343.6z
	 M410.9,335.6L410.9,335.6c-0.8-0.8-1.8-1.4-2.9-1.8c-1.3-3.9-5.5-6.1-9.4-4.9c-2.3,0.7-4.1,2.6-4.9,4.9c-0.3,0.1-0.7,0.2-1,0.4
	c-0.8-0.8-1.3-2-1.3-3.1c0-2.3,1.8-4.3,4.1-4.5l0.8-0.1l0.1-0.8c0.5-3.8,4-6.5,7.9-6c3.1,0.4,5.6,2.9,6,6l0.1,0.8l0.8,0.1
	c2.5,0.1,4.4,2.2,4.3,4.7S413.4,335.7,410.9,335.6L410.9,335.6z"/>
<rect id="_Transparent_Rectangle_9" x="387.4" y="315.6" class="st10" width="32" height="32"/>
<rect x="331.5" y="182" class="st13" width="362" height="20"/>
<g id="ray-logo">
	<path id="Fill-1" class="st14" d="M650.3,194.8h0.7l-1.3-1.9c0.8-0.2,1.3-1,1.3-1.8c0-1.2-0.8-1.9-2.2-1.9h-2.2v5.7h0.7V193h1.5
		h0.4L650.3,194.8z M647.2,192.4v-2.6h1.5c1,0,1.6,0.4,1.6,1.3s-0.6,1.3-1.6,1.3L647.2,192.4z M656.1,193.4l0.6,1.4h0.7l-2.5-5.7
		h-0.7l-2.5,5.7h0.7l0.6-1.4L656.1,193.4z M655.9,192.8h-2.5l1.3-2.9L655.9,192.8z M660.1,192.9l2.2-3.7h-0.7l-1.8,3l-1.8-3h-0.7
		l2.2,3.8v1.9h0.6L660.1,192.9L660.1,192.9z"/>
	<path id="Fill-2" class="st14" d="M636.6,191.6c0.1-0.3,0.2-0.5,0.4-0.8c0.6-0.6,1.6-0.6,2.3,0c0.2,0.2,0.3,0.5,0.4,0.8h1.2
		c0-0.2,0.1-0.3,0.2-0.4l-2.1-2.1c-0.3,0.2-0.5,0.2-0.8,0.2c-0.4,0-0.8-0.2-1.1-0.5c-0.3-0.3-0.5-0.7-0.5-1.1c0-0.9,0.7-1.6,1.6-1.6
		s1.6,0.7,1.6,1.6c0,0,0,0,0,0c0,0.3-0.1,0.6-0.2,0.8l2.1,2.1c0.2-0.2,0.5-0.2,0.8-0.2c0.9,0,1.6,0.7,1.6,1.6c0,0,0,0,0,0
		c0,0.4-0.2,0.8-0.5,1.1c-0.3,0.3-0.7,0.5-1.1,0.5c-0.3,0-0.6-0.1-0.8-0.2l-2.1,2.1c0.4,0.6,0.3,1.5-0.2,2c-0.6,0.6-1.6,0.6-2.3,0
		c-0.3-0.3-0.5-0.7-0.5-1.1c0-0.9,0.7-1.6,1.6-1.6c0,0,0,0,0,0c0.3,0,0.6,0.1,0.8,0.2l2.1-2.1c-0.1-0.1-0.1-0.3-0.2-0.4h-1.2
		c-0.1,0.3-0.2,0.5-0.4,0.8c-0.6,0.6-1.6,0.6-2.3,0c-0.2-0.2-0.4-0.5-0.4-0.8h-1.2c-0.2,0.7-0.8,1.2-1.6,1.2c-0.4,0-0.8-0.2-1.1-0.5
		c-0.3-0.3-0.5-0.7-0.5-1.1c0-0.9,0.7-1.6,1.6-1.6c0,0,0,0,0,0c0.4,0,0.8,0.2,1.1,0.5c0.2,0.2,0.3,0.5,0.4,0.8L636.6,191.6z
		 M637.6,196.9c0.3,0.3,0.8,0.3,1.1,0c0,0,0,0,0,0c0.3-0.3,0.3-0.8,0-1.2s-0.8-0.3-1.2,0C637.3,196,637.3,196.6,637.6,196.9z
		 M643.1,192.6c0.2-0.2,0.2-0.4,0.2-0.6c0-0.5-0.4-0.8-0.8-0.8s-0.8,0.4-0.8,0.8c0,0.2,0.1,0.4,0.2,0.6
		C642.2,192.9,642.7,192.9,643.1,192.6C643.1,192.6,643.1,192.6,643.1,192.6L643.1,192.6z M638.8,187.1c-0.3-0.3-0.8-0.3-1.2,0
		c-0.2,0.2-0.2,0.4-0.2,0.6c0,0.2,0.1,0.4,0.2,0.6c0.3,0.3,0.8,0.3,1.1,0c0,0,0,0,0,0c0.2-0.2,0.2-0.4,0.2-0.6
		C639,187.5,638.9,187.3,638.8,187.1z M633.3,191.4c-0.2,0.2-0.2,0.4-0.2,0.6c0,0.2,0.1,0.4,0.2,0.6c0.3,0.3,0.8,0.3,1.1,0
		c0,0,0,0,0,0c0.2-0.2,0.2-0.4,0.2-0.6c0-0.5-0.4-0.8-0.8-0.8C633.6,191.2,633.4,191.3,633.3,191.4L633.3,191.4z M637.6,191.4
		c-0.2,0.2-0.2,0.4-0.2,0.6c0,0.2,0.1,0.4,0.2,0.6c0.3,0.3,0.8,0.3,1.1,0c0,0,0,0,0,0c0.2-0.2,0.2-0.4,0.2-0.6
		c0-0.5-0.4-0.8-0.8-0.8C638,191.2,637.7,191.3,637.6,191.4L637.6,191.4z"/>
</g>
</svg>
