<?xml version="1.0" encoding="utf-8"?>
<!-- Generator: Adobe Illustrator 25.2.3, SVG Export Plug-In . SVG Version: 6.00 Build 0)  -->
<svg version="1.1" id="Layer_1" xmlns="http://www.w3.org/2000/svg" xmlns:xlink="http://www.w3.org/1999/xlink" x="0px" y="0px"
	 viewBox="0 0 1000 1000" style="enable-background:new 0 0 1000 1000;" xml:space="preserve">
<style type="text/css">
	.st0{fill:#021224;}
	.st1{enable-background:new    ;}
	.st2{fill:#FFFFFF;}
	.st3{fill:#106FFF;}
</style>
<g>
	<rect x="0.5" y="0.5" class="st0" width="999" height="999"/>
	<path class="st0" d="M999,1v998H1V1H999 M1000,0H0v1000h1000V0L1000,0z"/>
</g>
<g class="st1">
	<path class="st2" d="M82.4,559.1c-18.3,0-32.5-6.5-42.5-19.6c-10-13.1-15-32.7-15-58.8c0-26.1,5-45.8,15-59
		c10-13.2,24.2-19.8,42.5-19.8c11.6,0,21.5,2.9,29.7,8.6c8.2,5.7,14.4,13.4,18.6,23l-6.8,3.7c-3.8-8.7-9.2-15.6-16.2-20.6
		c-7-5-15.5-7.5-25.4-7.5c-15.2,0-27.2,5.5-35.8,16.6c-8.6,11-13,27.4-13,49v12.2c0,21.6,4.3,37.9,13,48.8
		c8.6,10.9,20.6,16.3,35.8,16.3c10.6,0,19.5-2.6,26.7-8c7.2-5.3,12.6-12.6,16.2-21.9l6.5,3.5c-4.2,10.2-10.5,18.3-18.8,24.4
		C104.7,556.1,94.5,559.1,82.4,559.1z"/>
</g>
<g class="st1">
	<path class="st2" d="M203.3,559.1c-14.5,0-26-4.9-34.3-14.8c-8.4-9.9-12.5-24.3-12.5-43.1c0-19,4.2-33.4,12.5-43.2
		c8.3-9.8,19.8-14.7,34.3-14.7c14.5,0,26,4.9,34.3,14.7c8.3,9.8,12.5,24.2,12.5,43.2c0,18.9-4.2,33.3-12.5,43.1
		C229.3,554.2,217.9,559.1,203.3,559.1z M203.3,552.4c12.3,0,21.9-4,28.5-12.1c6.7-8.1,10-19.1,10-33.2v-11.8
		c0-14.2-3.3-25.3-10-33.3c-6.7-8-16.2-12-28.5-12c-12.3,0-21.9,4-28.5,12c-6.7,8-10,19.1-10,33.3v11.8c0,14.1,3.3,25.2,10,33.2
		C181.5,548.4,191,552.4,203.3,552.4z"/>
	<path class="st2" d="M356.7,539.5H356c-2.5,5.2-6.6,9.7-12.4,13.7c-5.8,4-13.4,5.9-22.7,5.9c-14.5,0-25.8-4.9-33.9-14.7
		c-8.1-9.8-12.1-24.2-12.1-43.2c0-19,4-33.4,12.1-43.2c8.1-9.8,19.3-14.7,33.9-14.7c9.3,0,16.8,2,22.7,5.9
		c5.8,3.9,9.9,8.6,12.4,13.9h0.7v-67.7h7.6v161.2h-7.6V539.5z M322.1,552.4c4.6,0,9.1-0.7,13.3-2c4.2-1.3,7.9-3.2,11-5.7
		c3.1-2.5,5.6-5.4,7.5-8.8c1.9-3.4,2.8-7.2,2.8-11.5v-46.7c0-4.1-0.9-7.8-2.8-11.2c-1.9-3.4-4.4-6.3-7.5-8.7
		c-3.1-2.4-6.8-4.3-11-5.7c-4.2-1.4-8.6-2.1-13.3-2.1c-12.3,0-21.9,4-28.6,12.1c-6.8,8.1-10.1,19-10.1,32.9v12.7
		c0,13.8,3.4,24.7,10.1,32.7S309.7,552.4,322.1,552.4z"/>
	<path class="st2" d="M446,559.1c-14.7,0-26.2-4.9-34.7-14.8c-8.5-9.9-12.7-24.3-12.7-43.1c0-18.7,4.1-33.1,12.4-43
		c8.3-9.9,19.7-14.9,34.2-14.9c6.8,0,13,1.3,18.6,3.9c5.6,2.6,10.4,6.3,14.4,11.1c4,4.8,7.1,10.6,9.3,17.3
		c2.2,6.8,3.3,14.3,3.3,22.5v3.5h-84.1v5.9c0,6.8,0.9,13,2.6,18.5c1.7,5.5,4.3,10.2,7.7,14.2c3.4,3.9,7.5,6.9,12.4,9
		c4.9,2.1,10.4,3.2,16.7,3.2c17.6,0,29.7-8.4,36.4-25.3l5.9,3.3c-3.3,8.7-8.6,15.7-15.7,20.9C465.5,556.5,456.6,559.1,446,559.1z
		 M445.1,450c-6.1,0-11.5,1.1-16.2,3.2c-4.7,2.1-8.8,5.1-12.1,9c-3.3,3.9-5.9,8.6-7.6,14.2c-1.7,5.5-2.6,11.6-2.6,18.3v0.9h75.8
		v-1.3c0-6.7-0.9-12.7-2.7-18.2c-1.8-5.4-4.4-10.1-7.6-13.9c-3.3-3.8-7.2-6.8-11.8-8.9C455.7,451.1,450.6,450,445.1,450z"/>
</g>
<g class="st1">
	<path class="st3" d="M518.7,556.5v-152h91.5v27.2h-60.3v34.2H601v27.2h-51.2v63.4H518.7z"/>
</g>
<g class="st1">
	<path class="st3" d="M661.8,556.5c-10.6,0-18.2-2.4-22.8-7.1c-4.6-4.7-6.9-11.9-6.9-21.7V395.3h30.5v137.5h12.9v23.7H661.8z"/>
</g>
<g class="st1">
	<path class="st3" d="M767.7,556.5c-11.9,0-18.4-6.6-19.4-19.8h-2.8c-1.2,7-4.3,12.5-9.4,16.4c-5.1,4-11.5,6-19.4,6
		c-10.3,0-18.1-2.9-23.3-8.8c-5.2-5.9-7.8-14.1-7.8-24.5c0-12.5,3.8-21.6,11.4-27.2s18.3-8.5,31.9-8.5h16.6v-8.9
		c0-5.9-1.2-10.3-3.7-13.2c-2.5-2.9-6.6-4.3-12.4-4.3c-5.1,0-9.3,1.3-12.7,3.8c-3.4,2.5-6.4,5.9-9,10l-18.1-16.2
		c4.6-6.8,10.3-12.2,17-16.1c6.7-3.9,15.2-5.8,25.7-5.8c15,0,26,3.5,33.1,10.5c7.1,7,10.7,17.4,10.7,31.2v51.6h9.4v23.7H767.7z
		 M728.9,537.8c4.5,0,8.4-1.3,11.7-3.8c3.3-2.5,4.9-6.5,4.9-11.9V508h-13.7c-10.5,0-15.7,4.4-15.7,13.1v4.1c0,4.4,1.1,7.6,3.4,9.6
		C721.7,536.8,724.8,537.8,728.9,537.8z"/>
	<path class="st3" d="M804.7,556.5V442.2h30.5v24.4h3.5c0.4-3.2,1.2-6.3,2.2-9.3c1-3,2.4-5.6,4.2-7.8c1.8-2.2,4.1-4,6.9-5.3
		c2.8-1.3,6-2,9.8-2h5.4v30.9h-7.8c-8.3,0-14.4,1.2-18.3,3.5c-3.9,2.3-5.9,6.8-5.9,13.3v66.7H804.7z"/>
	<path class="st3" d="M928.6,559.1c-15.7,0-28.2-5-37.6-14.9c-9.4-9.9-14-24.9-14-44.8c0-20.3,4.1-35.4,12.3-45.2
		c8.2-9.8,20.3-14.7,36.3-14.7c16,0,28.1,4.9,36.3,14.7c8.2,9.8,12.3,24.8,12.3,45.1v7.4h-65.3v7.2c0,6.4,2,11.5,5.9,15.4
		c3.9,3.8,9.3,5.8,16.1,5.8c5.7,0,10.5-1.3,14.5-3.8c4-2.5,7.7-6.1,11-10.6l15.5,18.2c-4.6,6.3-10.6,11.2-17.8,14.9
		S938.4,559.1,928.6,559.1z M925.6,462.4c-11.2,0-16.8,6.5-16.8,19.4v6.9h33.5v-6.9C942.4,468.9,936.8,462.4,925.6,462.4z"/>
</g>
</svg>
