<svg id="Layer_1" data-name="Layer 1" xmlns="http://www.w3.org/2000/svg" viewBox="0 0 291.44 163.69"><defs><style>.cls-1{fill:#ccc;}.cls-2{fill:none;stroke:#0f6fff;stroke-linejoin:round;stroke-width:4px;}</style></defs><path class="cls-1" d="M81.26,53l5.16-8.8L76.28,45.37ZM40.92,75.16,80.67,49.32l-1.25-1.91L39.68,73.25Z" transform="translate(-2.56 -8)"/><path class="cls-1" d="M75.4,94.47l9.1-4.62-9.16-4.5Zm-29-3.21L76.9,91l0-2.28L46.37,89Z" transform="translate(-2.56 -8)"/><path class="cls-1" d="M81,128.17l4.84,9-10.09-1.52ZM41,104.12l39.34,27.72L79,133.71,39.64,106Z" transform="translate(-2.56 -8)"/><path class="cls-1" d="M239.66,93l9.09-4.63-9.16-4.49Zm-29-3.21,30.51-.22V87.24l-30.51.22Z" transform="translate(-2.56 -8)"/><path class="cls-1" d="M165.13,65.28l4.87,9-10.09-1.48Zm-37.49-22L164.42,69l-1.31,1.87L126.33,45.15Z" transform="translate(-2.56 -8)"/><circle class="cls-2" cx="107.22" cy="32.05" r="22.05" transform="translate(55.85 124.75) rotate(-80.78)"/><ellipse class="cls-2" cx="104.66" cy="140.4" rx="22.05" ry="21.29"/><circle class="cls-2" cx="23.29" cy="82.61" r="21.29"/><path class="cls-1" d="M168.37,112.57l4.74-9L163,105.16Zm-40.72,25.11,40-28.78-1.34-1.85-40,28.77Z" transform="translate(-2.56 -8)"/><path class="cls-1" d="M159.05,93l9.09-4.63L159,83.83Zm-29-3.21,30.51-.22,0-2.28L130,87.46Z" transform="translate(-2.56 -8)"/><ellipse class="cls-2" cx="186.78" cy="81.08" rx="22.05" ry="21.29"/><circle class="cls-2" cx="104.66" cy="81.85" r="22.05"/><path class="cls-1" d="M195.16,57.42,188,64.63l-1.45-10.1Zm-5.84-.49,2.07-4.4a1.51,1.51,0,0,1,.18-.26l4.32-4.93a1.29,1.29,0,0,1,.17-.16L201.54,43a.91.91,0,0,1,.16-.11l6.46-3.35.17-.07,7.25-2.38.17,0,7.87-1.31.17,0,8.32-.13h.16l7.88,1a.47.47,0,0,1,.17,0l7.26,2.08.17.06,6.5,3,.16.09,5.6,3.82.16.13,4.56,4.52a.86.86,0,0,1,.14.18l3.38,5.09a1.34,1.34,0,0,1,.12.24l2.05,5.56a1.4,1.4,0,0,1,.06.28l.59,5.92-2.27.22-.59-5.91.07.28-2-5.56.12.23L263,51.8l.15.18-4.56-4.52.16.13-5.59-3.81.16.09-6.5-3,.16.06-7.26-2.08.17,0-7.89-1h.17l-8.31.13H224l-7.88,1.31.17,0L209,41.63l.17-.07-6.46,3.35.17-.11L197.44,49l.17-.15-4.33,4.93.18-.27-2.08,4.4Z" transform="translate(-2.56 -8)"/><ellipse class="cls-2" cx="267.39" cy="81.08" rx="22.05" ry="21.29"/><path d="M143.62,161.57a4.44,4.44,0,0,1-1.89-.39A3.5,3.5,0,0,1,140.3,160a5.84,5.84,0,0,1-.89-2,13.63,13.63,0,0,1,0-5.78,6,6,0,0,1,.89-2,3.67,3.67,0,0,1,1.43-1.17,4.59,4.59,0,0,1,1.89-.38,4.18,4.18,0,0,1,2.47.65,4.22,4.22,0,0,1,1.46,2l-1.14.7a3.41,3.41,0,0,0-1-1.55,2.8,2.8,0,0,0-1.82-.52,2.62,2.62,0,0,0-2.21,1,4.49,4.49,0,0,0-.78,2.77v2.79a4.48,4.48,0,0,0,.78,2.76,2.63,2.63,0,0,0,2.21,1,2.8,2.8,0,0,0,1.88-.57,3.47,3.47,0,0,0,1-1.63l1.14.71a4.43,4.43,0,0,1-1.51,2.05A4.17,4.17,0,0,1,143.62,161.57Z" transform="translate(-2.56 -8)"/><path d="M152.72,161.57a4.08,4.08,0,0,1-1.5-.27,3,3,0,0,1-1.2-.86,4.26,4.26,0,0,1-.79-1.5,8.78,8.78,0,0,1,0-4.4A4.26,4.26,0,0,1,150,153a2.9,2.9,0,0,1,1.2-.86,4.3,4.3,0,0,1,3,0,2.84,2.84,0,0,1,1.2.86,4.26,4.26,0,0,1,.79,1.5,8.78,8.78,0,0,1,0,4.4,4.26,4.26,0,0,1-.79,1.5,2.93,2.93,0,0,1-1.2.86A4.08,4.08,0,0,1,152.72,161.57Zm0-1.2a2.17,2.17,0,0,0,1.71-.67,3,3,0,0,0,.6-2V155.8a3,3,0,0,0-.6-2,2.55,2.55,0,0,0-3.42,0,3,3,0,0,0-.6,2v1.87a3,3,0,0,0,.6,2A2.17,2.17,0,0,0,152.72,160.37Z" transform="translate(-2.56 -8)"/><path d="M163.9,159.87h-.18a2.28,2.28,0,0,1-.87,1.3,2.61,2.61,0,0,1-1.46.4,3,3,0,0,1-1.44-.34,3.06,3.06,0,0,1-1.06-1,4.39,4.39,0,0,1-.64-1.52,9.2,9.2,0,0,1,0-4,4.31,4.31,0,0,1,.64-1.52,3.06,3.06,0,0,1,1.06-1,2.89,2.89,0,0,1,1.44-.34,2.53,2.53,0,0,1,1.46.4,2.28,2.28,0,0,1,.87,1.3h.18v-5.49h1.36v13.23H163.9Zm-2.1.5a2.47,2.47,0,0,0,.82-.13,1.92,1.92,0,0,0,.66-.36,2,2,0,0,0,.45-.55,1.59,1.59,0,0,0,.17-.72v-3.74a1.59,1.59,0,0,0-.17-.72,2.22,2.22,0,0,0-.45-.56,2.33,2.33,0,0,0-.66-.36,2.76,2.76,0,0,0-.82-.12,2.1,2.1,0,0,0-1.71.71,3,3,0,0,0-.59,2v1.87a3,3,0,0,0,.59,2A2.1,2.1,0,0,0,161.8,160.37Z" transform="translate(-2.56 -8)"/><path d="M171.16,161.57a4.17,4.17,0,0,1-1.51-.27,3,3,0,0,1-1.19-.86,4.1,4.1,0,0,1-.79-1.5,8.49,8.49,0,0,1,0-4.4,4.1,4.1,0,0,1,.79-1.5,2.87,2.87,0,0,1,1.19-.86,4.17,4.17,0,0,1,1.51-.27,3.92,3.92,0,0,1,1.47.27,2.66,2.66,0,0,1,1.14.86,4.19,4.19,0,0,1,.72,1.5,8.24,8.24,0,0,1,.26,2.2v.34h-5.92v.59a2.93,2.93,0,0,0,.62,2,2.23,2.23,0,0,0,1.71.67,2.69,2.69,0,0,0,1.51-.4,2.63,2.63,0,0,0,.93-1.21l.93.68a3.71,3.71,0,0,1-1.26,1.54A3.58,3.58,0,0,1,171.16,161.57Zm0-8.52a2.17,2.17,0,0,0-1.72.7,3,3,0,0,0-.61,2.06V156h4.47v-.23C173.3,154,172.59,153.05,171.16,153.05Z" transform="translate(-2.56 -8)"/><path d="M176.73,161.35V148.87h7.51v2.24h-5v2.8h4.21v2.24h-4.21v5.2Z" transform="translate(-2.56 -8)"/><path d="M188.46,161.35a2.51,2.51,0,0,1-1.87-.58A2.46,2.46,0,0,1,186,159V148.12h2.51V159.4h1.05v1.95Z" transform="translate(-2.56 -8)"/><path d="M197.15,161.35c-1,0-1.51-.54-1.6-1.63h-.23a2,2,0,0,1-.77,1.35,2.46,2.46,0,0,1-1.59.5,2.41,2.41,0,0,1-1.91-.73,2.91,2.91,0,0,1-.65-2,2.61,2.61,0,0,1,.94-2.23,4.29,4.29,0,0,1,2.62-.7h1.36v-.73a1.66,1.66,0,0,0-.3-1.08,1.28,1.28,0,0,0-1-.36A1.76,1.76,0,0,0,193,154a3,3,0,0,0-.74.83l-1.48-1.33a3.87,3.87,0,0,1,3.5-1.79,3.78,3.78,0,0,1,2.72.86,3.44,3.44,0,0,1,.88,2.56v4.23h.76v1.95ZM194,159.81a1.51,1.51,0,0,0,1-.31,1.15,1.15,0,0,0,.4-1v-1.17H194.2q-1.29,0-1.29,1.08v.34a1,1,0,0,0,.27.78A1.13,1.13,0,0,0,194,159.81Z" transform="translate(-2.56 -8)"/><path d="M200.19,161.35V152h2.5v2H203a4.68,4.68,0,0,1,.18-.76,2.25,2.25,0,0,1,.35-.65,1.68,1.68,0,0,1,.57-.44,1.93,1.93,0,0,1,.8-.16h.45v2.54h-.65a3,3,0,0,0-1.5.29,1.16,1.16,0,0,0-.48,1.09v5.47Z" transform="translate(-2.56 -8)"/><path d="M210.43,161.57a4,4,0,0,1-3.08-1.23,5.16,5.16,0,0,1-1.16-3.67,5.71,5.71,0,0,1,1-3.71,4.29,4.29,0,0,1,6,0,5.7,5.7,0,0,1,1,3.7v.61H208.8v.59a1.67,1.67,0,0,0,.49,1.26,1.82,1.82,0,0,0,1.32.47,2.18,2.18,0,0,0,1.19-.31,3.36,3.36,0,0,0,.9-.87l1.27,1.49a4.06,4.06,0,0,1-1.46,1.23A4.52,4.52,0,0,1,210.43,161.57Zm-.25-7.94q-1.38,0-1.38,1.59v.57h2.76v-.57Q211.56,153.63,210.18,153.63Z" transform="translate(-2.56 -8)"/><path d="M220.39,161.35V148.87h4.85a3,3,0,0,1,2.39.92,4.25,4.25,0,0,1,0,5,3,3,0,0,1-2.39.92h-4.18v5.65Zm.67-6.24h4.18a2.8,2.8,0,0,0,1.09-.19,2.44,2.44,0,0,0,.78-.53,2,2,0,0,0,.46-.78,2.93,2.93,0,0,0,.16-.93v-.79a2.93,2.93,0,0,0-.16-.93,2.08,2.08,0,0,0-.46-.77,2.16,2.16,0,0,0-.78-.53,2.79,2.79,0,0,0-1.09-.2h-4.18Z" transform="translate(-2.56 -8)"/><path d="M231.35,149.46a.55.55,0,0,1-.41-.13.48.48,0,0,1-.12-.33v-.17a.52.52,0,0,1,.11-.33.71.71,0,0,1,.82,0,.48.48,0,0,1,.12.33V149a.52.52,0,0,1-.11.33A.52.52,0,0,1,231.35,149.46Zm-.32,2.81h.63v9.08H231Z" transform="translate(-2.56 -8)"/><path d="M235.23,152.27h.63v1.41h0a2.9,2.9,0,0,1,1-1.14,3.22,3.22,0,0,1,1.86-.49,3.41,3.41,0,0,1,2.78,1.21,6.8,6.8,0,0,1,0,7.1,3.41,3.41,0,0,1-2.78,1.21,3.29,3.29,0,0,1-1.86-.49,3.06,3.06,0,0,1-1-1.12h0v5h-.63ZM238.7,161a2.91,2.91,0,0,0,2.35-1,4,4,0,0,0,.84-2.69v-1a4.06,4.06,0,0,0-.84-2.7,2.88,2.88,0,0,0-2.35-1,3.6,3.6,0,0,0-1.09.17,3.18,3.18,0,0,0-.9.46,2.38,2.38,0,0,0-.62.72,1.93,1.93,0,0,0-.23.92v3.84a2,2,0,0,0,.23.94,2.38,2.38,0,0,0,.62.72,2.76,2.76,0,0,0,.9.47A3.6,3.6,0,0,0,238.7,161Z" transform="translate(-2.56 -8)"/><path d="M248.52,161.57a3.58,3.58,0,0,1-2.85-1.22,5.27,5.27,0,0,1-1-3.54,5.38,5.38,0,0,1,1-3.53,3.46,3.46,0,0,1,2.81-1.23,3.5,3.5,0,0,1,1.53.33,3.26,3.26,0,0,1,1.18.91,4.38,4.38,0,0,1,.76,1.42,6,6,0,0,1,.26,1.85v.29h-6.9v.48a4.81,4.81,0,0,0,.22,1.52,3.17,3.17,0,0,0,.63,1.16,2.79,2.79,0,0,0,1,.74,3.32,3.32,0,0,0,1.37.26,3,3,0,0,0,3-2.07l.48.27a3.75,3.75,0,0,1-1.29,1.71A3.57,3.57,0,0,1,248.52,161.57Zm-.07-9a3.1,3.1,0,0,0-1.33.26,2.81,2.81,0,0,0-1,.74,3.31,3.31,0,0,0-.62,1.16,4.77,4.77,0,0,0-.22,1.5v.07h6.23v-.1a4.61,4.61,0,0,0-.23-1.49,3.61,3.61,0,0,0-.62-1.15,2.85,2.85,0,0,0-2.21-1Z" transform="translate(-2.56 -8)"/><path d="M255.76,161.35a.67.67,0,0,1-.77-.75V148.12h.63V160.8h1.48v.55Z" transform="translate(-2.56 -8)"/><path d="M259.87,149.46a.53.53,0,0,1-.41-.13.48.48,0,0,1-.12-.33v-.17a.52.52,0,0,1,.11-.33.55.55,0,0,1,.4-.13.62.62,0,0,1,.42.13.48.48,0,0,1,.12.33V149a.48.48,0,0,1-.12.33A.49.49,0,0,1,259.87,149.46Zm-.32,2.81h.63v9.08h-.63Z" transform="translate(-2.56 -8)"/><path d="M263.75,161.35v-9.08h.63v1.39h.05a2.53,2.53,0,0,1,.94-1.13,3.13,3.13,0,0,1,1.85-.48,2.94,2.94,0,0,1,2.3.89,3.74,3.74,0,0,1,.79,2.58v5.83h-.62v-5.72a3.31,3.31,0,0,0-.67-2.3,2.54,2.54,0,0,0-1.94-.72,3.79,3.79,0,0,0-1,.14,2.72,2.72,0,0,0-.87.43,2.07,2.07,0,0,0-.82,1.72v6.45Z" transform="translate(-2.56 -8)"/><path d="M277,161.57a3.55,3.55,0,0,1-2.85-1.22,5.27,5.27,0,0,1-1.05-3.54,5.38,5.38,0,0,1,1-3.53,3.44,3.44,0,0,1,2.81-1.23,3.5,3.5,0,0,1,1.53.33,3.35,3.35,0,0,1,1.18.91,4.38,4.38,0,0,1,.76,1.42,6.26,6.26,0,0,1,.26,1.85v.29h-6.9v.48a4.81,4.81,0,0,0,.22,1.52,3.17,3.17,0,0,0,.63,1.16,2.79,2.79,0,0,0,1,.74A3.32,3.32,0,0,0,277,161a3,3,0,0,0,3-2.07l.49.27a3.82,3.82,0,0,1-1.29,1.71A3.57,3.57,0,0,1,277,161.57Zm-.07-9a3.17,3.17,0,0,0-1.34.26,2.86,2.86,0,0,0-1,.74,3.31,3.31,0,0,0-.62,1.16,4.77,4.77,0,0,0-.22,1.5v.07h6.22v-.1a4.62,4.62,0,0,0-.22-1.49,3.45,3.45,0,0,0-.63-1.15,2.67,2.67,0,0,0-1-.73A2.84,2.84,0,0,0,276.88,152.61Z" transform="translate(-2.56 -8)"/><path d="M285.87,161.57a4.46,4.46,0,0,1-2-.41,4,4,0,0,1-1.45-1.29l.48-.36a3.79,3.79,0,0,0,1.29,1.15,3.54,3.54,0,0,0,1.66.35,2.92,2.92,0,0,0,1.84-.5,1.73,1.73,0,0,0,.63-1.45,1.7,1.7,0,0,0-.53-1.36,3.41,3.41,0,0,0-1.62-.62l-.77-.13a5.71,5.71,0,0,1-1.1-.27,2.45,2.45,0,0,1-.84-.47,2.13,2.13,0,0,1-.54-.72,2.69,2.69,0,0,1-.18-1,2.31,2.31,0,0,1,.22-1,2.16,2.16,0,0,1,.63-.75,2.74,2.74,0,0,1,.94-.45,4.1,4.1,0,0,1,1.18-.16,3.7,3.7,0,0,1,1.85.41,4.51,4.51,0,0,1,1.19.93l-.45.42a3.73,3.73,0,0,0-.44-.45,3.35,3.35,0,0,0-.55-.39,2.62,2.62,0,0,0-.7-.26,3.71,3.71,0,0,0-.92-.1,2.82,2.82,0,0,0-1.71.46,1.6,1.6,0,0,0-.64,1.36,1.58,1.58,0,0,0,.54,1.33,3.61,3.61,0,0,0,1.63.6l.77.13a3.92,3.92,0,0,1,2,.78A2.15,2.15,0,0,1,289,159a2.3,2.3,0,0,1-.82,1.89A3.53,3.53,0,0,1,285.87,161.57Z" transform="translate(-2.56 -8)"/></svg>