<?xml version="1.0" encoding="utf-8"?>
<!-- Generator: Adobe Illustrator 25.2.3, SVG Export Plug-In . SVG Version: 6.00 Build 0)  -->
<svg version="1.1" id="Layer_1" xmlns="http://www.w3.org/2000/svg" xmlns:xlink="http://www.w3.org/1999/xlink" x="0px" y="0px"
	 viewBox="0 0 296 180" style="enable-background:new 0 0 296 180;" xml:space="preserve">
<style type="text/css">
	.st0{fill:#CCCCCC;}
	.st1{fill:none;stroke:#0F6FFF;stroke-width:3;stroke-linejoin:round;stroke-miterlimit:10;}
</style>
<path class="st0" d="M81.26,53.02l5.16-8.8l-10.14,1.15L81.26,53.02z M40.92,75.16l39.75-25.84l-1.24-1.91L39.68,73.25L40.92,75.16z
	"/>
<path class="st0" d="M75.4,94.47l9.09-4.63l-9.16-4.5L75.4,94.47z M46.39,91.26l30.51-0.22l-0.02-2.28l-30.51,0.22L46.39,91.26z"/>
<path class="st0" d="M81.01,128.17l4.83,8.99l-10.09-1.53L81.01,128.17z M40.95,104.12l39.33,27.72l-1.31,1.86l-39.33-27.72
	L40.95,104.12z"/>
<path class="st0" d="M239.66,92.95l9.09-4.63l-9.16-4.5L239.66,92.95z M210.64,89.74l30.51-0.22l-0.02-2.28l-30.51,0.22
	L210.64,89.74z"/>
<path class="st0" d="M165.13,65.28l4.87,8.96l-10.09-1.48L165.13,65.28z M127.64,43.28l36.78,25.67l-1.31,1.87l-36.78-25.67
	L127.64,43.28z"/>
<ellipse transform="matrix(0.1602 -0.9871 0.9871 0.1602 58.4024 132.7489)" class="st1" cx="107.22" cy="32.05" rx="22.05" ry="22.05"/>
<ellipse class="st1" cx="107.22" cy="148.4" rx="22.05" ry="21.29"/>
<circle class="st1" cx="25.85" cy="90.61" r="21.29"/>
<path class="st0" d="M168.37,112.57l4.74-9.04l-10.07,1.63L168.37,112.57z M127.65,137.68l39.95-28.77l-1.33-1.85l-39.95,28.77
	L127.65,137.68z"/>
<path class="st0" d="M159.05,92.95l9.09-4.63l-9.16-4.5L159.05,92.95z M130.04,89.74l30.51-0.22l-0.02-2.28l-30.51,0.22
	L130.04,89.74z"/>
<ellipse class="st1" cx="189.34" cy="89.08" rx="22.05" ry="21.29"/>
<circle class="st1" cx="107.22" cy="89.85" r="22.05"/>
<path class="st0" d="M195.16,57.42l-7.21,7.22l-1.45-10.1L195.16,57.42z M189.32,56.93l2.07-4.4c0.05-0.1,0.1-0.19,0.17-0.27
	l4.32-4.93c0.05-0.06,0.1-0.11,0.16-0.15l5.48-4.19c0.05-0.04,0.11-0.08,0.17-0.11l6.45-3.35c0.05-0.03,0.11-0.05,0.17-0.07
	l7.25-2.39c0.06-0.02,0.11-0.03,0.17-0.04l7.87-1.32c0.06-0.01,0.11-0.01,0.17-0.02l8.32-0.13c0.06,0,0.11,0,0.17,0.01l7.88,1.04
	c0.06,0.01,0.11,0.02,0.17,0.03l7.26,2.08c0.06,0.02,0.11,0.04,0.16,0.06l6.5,3.01c0.06,0.03,0.11,0.06,0.16,0.09l5.6,3.82
	c0.06,0.04,0.11,0.08,0.16,0.13l4.56,4.52c0.06,0.05,0.11,0.12,0.15,0.18l3.37,5.1c0.05,0.07,0.09,0.15,0.12,0.24l2.05,5.56
	c0.03,0.09,0.06,0.19,0.06,0.28l0.59,5.91l-2.27,0.23l-0.59-5.91l0.06,0.28l-2.05-5.56l0.12,0.24l-3.37-5.1l0.15,0.18l-4.56-4.52
	l0.16,0.13l-5.6-3.82l0.16,0.09l-6.5-3.01l0.16,0.06l-7.26-2.08l0.17,0.03l-7.88-1.04l0.17,0.01l-8.32,0.13l0.17-0.02l-7.87,1.32
	l0.17-0.04l-7.25,2.39l0.17-0.07l-6.45,3.35l0.17-0.11l-5.48,4.19l0.16-0.15l-4.32,4.93l0.17-0.27l-2.07,4.4L189.32,56.93z"/>
<ellipse class="st1" cx="269.95" cy="89.08" rx="22.05" ry="21.29"/>
</svg>
