<svg id="Layer_1" data-name="Layer 1" xmlns="http://www.w3.org/2000/svg" viewBox="0 0 192 108"><defs><style>.cls-1{fill:#ccc;}.cls-2{fill:none;stroke:#0f6fff;stroke-linejoin:round;stroke-width:3px;}</style></defs><path class="cls-1" d="M111.49,65.67l3.39-5.78-6.66.75ZM85,80.23l26.14-17L110.28,62,84.15,79Z" transform="translate(-59.55 -35.89)"/><path class="cls-1" d="M107.64,92.93l6-3-6-3ZM88.56,90.82l20.06-.15v-1.5l-20.06.15Z" transform="translate(-59.55 -35.89)"/><path class="cls-1" d="M111.33,115.09l3.17,5.9-6.63-1ZM85,99.27l25.86,18.23-.87,1.23L84.12,100.5Z" transform="translate(-59.55 -35.89)"/><path class="cls-1" d="M215.64,91.93l6-3-6-3Zm-19.08-2.11,20.06-.15v-1.5l-20.06.15Z" transform="translate(-59.55 -35.89)"/><path class="cls-1" d="M166.63,73.73l3.21,5.9-6.64-1ZM142,59.27l24.19,16.88-.86,1.23L141.12,60.5Z" transform="translate(-59.55 -35.89)"/><circle class="cls-2" cx="69" cy="16" r="14.5"/><ellipse class="cls-2" cx="69" cy="92.5" rx="14.5" ry="14"/><circle class="cls-2" cx="15.5" cy="54.5" r="14"/><path class="cls-1" d="M168.77,104.83l3.11-5.94L165.26,100ZM142,121.34l26.27-18.92-.87-1.22-26.27,18.92Z" transform="translate(-59.55 -35.89)"/><path class="cls-1" d="M162.64,91.93l6-3-6-3Zm-19.08-2.11,20.06-.15v-1.5l-20.06.15Z" transform="translate(-59.55 -35.89)"/><ellipse class="cls-2" cx="123" cy="53.5" rx="14.5" ry="14"/><ellipse class="cls-2" cx="176" cy="53.5" rx="14.5" ry="14"/><circle class="cls-2" cx="69" cy="54" r="14.5"/><path class="cls-1" d="M186.38,68.57l-4.74,4.74-.95-6.64Zm-3.84-.32,1.36-2.9a.66.66,0,0,1,.12-.17l2.84-3.24a.52.52,0,0,1,.11-.1l3.6-2.76.11-.07,4.25-2.2.11-.05,4.77-1.57.11,0,5.17-.86h.11l5.47-.09h.11l5.18.68.11,0,4.78,1.37.11,0,4.27,2a.3.3,0,0,1,.11.06L229,60.87a.39.39,0,0,1,.1.08l3,3,.1.12,2.22,3.35a.8.8,0,0,1,.08.16l1.34,3.66a.61.61,0,0,1,0,.18l.38,3.89-1.49.15-.39-3.89.05.18-1.35-3.65.08.15L231,64.87l.1.12-3-3,.1.09-3.68-2.51.11.06-4.27-2,.11,0-4.78-1.37.11,0-5.18-.69h.11l-5.47.09h.11l-5.18.86.11,0-4.76,1.57.11,0-4.25,2.2.11-.07L187.88,63l.11-.1-2.84,3.24.11-.18-1.36,2.9Z" transform="translate(-59.55 -35.89)"/></svg>